<?xml version="1.0" standalone="no"?>
<!DOCTYPE svg PUBLIC "-//W3C//DTD SVG 20010904//EN"
 "http://www.w3.org/TR/2001/REC-SVG-20010904/DTD/svg10.dtd">
<svg version="1.0" xmlns="http://www.w3.org/2000/svg"
 width="1024.000000pt" height="1024.000000pt" viewBox="0 0 1024.000000 1024.000000"
 preserveAspectRatio="xMidYMid meet">
<metadata>
Created by potrace 1.14, written by Peter Selinger 2001-2017
</metadata>
<g transform="translate(0.000000,1024.000000) scale(0.100000,-0.100000)"
fill="#000000" stroke="none">
<path d="M4677 9904 c-1 -1 -47 -4 -102 -8 -112 -7 -149 -11 -250 -27 -463
-73 -783 -303 -967 -695 -29 -61 -33 -79 -32 -149 l1 -80 207 -520 c115 -286
237 -594 273 -685 62 -159 127 -324 306 -780 118 -298 306 -781 360 -922 l45
-118 -26 -1 c-29 -1 -71 -4 -193 -14 -42 -3 -105 -15 -140 -26 -35 -11 -102
-22 -149 -26 -105 -7 -174 10 -251 64 -77 52 -198 92 -269 87 -108 -6 -182
-47 -286 -155 -169 -178 -337 -440 -398 -619 -43 -130 -27 -268 50 -423 51
-102 78 -134 123 -148 34 -10 45 -9 83 9 24 12 51 35 61 52 29 48 38 37 36
-43 -3 -97 -12 -125 -62 -194 -92 -125 -123 -228 -120 -398 2 -178 68 -356
178 -483 114 -134 248 -226 485 -335 56 -26 266 -92 373 -118 53 -12 97 -26
97 -30 0 -3 -21 -35 -47 -71 -170 -230 -271 -423 -303 -577 -37 -184 -3 -309
103 -375 41 -25 58 -29 127 -31 44 -1 83 -5 87 -9 4 -3 8 -57 9 -119 2 -124 6
-166 34 -306 10 -51 17 -102 15 -112 -2 -9 -6 -46 -9 -81 -3 -34 -8 -74 -11
-88 -5 -26 -9 -58 -20 -150 -3 -30 -8 -68 -10 -85 -11 -82 -20 -234 -20 -355
0 -121 3 -141 24 -190 31 -71 82 -124 151 -158 100 -49 282 -39 430 23 161 68
366 246 471 410 68 106 111 123 229 89 30 -9 78 -20 105 -25 65 -13 76 -27 63
-82 -6 -23 -10 -96 -10 -162 0 -98 4 -130 22 -178 54 -144 175 -199 334 -153
194 57 372 236 492 496 75 164 73 161 162 206 44 23 113 63 153 89 80 52 239
205 283 272 28 42 28 42 48 23 55 -51 148 -65 204 -31 41 25 77 74 99 134 l18
48 46 -6 c52 -7 76 9 85 57 6 38 -17 65 -87 97 -39 18 -79 46 -108 78 -66 71
-82 105 -75 161 9 68 18 135 21 152 23 128 24 606 1 725 -2 11 -7 43 -10 70
-17 119 -40 234 -67 330 -11 39 -22 77 -24 85 -24 96 -112 317 -187 464 -166
330 -363 596 -669 907 l-136 137 78 80 c207 215 188 377 -75 638 -159 158
-343 287 -574 403 -147 74 -197 92 -261 93 -100 2 -161 -23 -233 -94 -51 -52
-87 -71 -140 -74 -45 -2 -119 13 -134 28 -3 4 6 20 22 36 27 27 221 233 309
327 21 22 97 103 170 180 73 77 152 161 176 186 24 26 101 107 170 180 70 74
146 154 169 179 23 25 108 115 188 200 176 185 256 270 313 330 23 25 78 83
123 130 95 101 356 377 405 429 18 20 65 69 103 109 l69 73 -2 121 c-4 326
-135 633 -369 868 -269 269 -813 521 -1320 609 -117 21 -141 24 -265 37 -62 6
-372 13 -378 8z m333 -148 c52 -3 106 -8 120 -11 14 -2 45 -7 70 -10 82 -10
224 -40 350 -75 41 -11 82 -22 90 -25 95 -25 281 -102 451 -187 137 -68 324
-182 363 -220 7 -7 31 -29 53 -49 194 -175 344 -477 358 -721 2 -27 0 -50 -5
-53 -4 -3 -82 22 -173 55 -90 32 -176 61 -191 64 -14 2 -29 7 -34 9 -4 3 -26
8 -48 11 -22 4 -50 8 -63 11 -34 6 -140 14 -266 20 -183 8 -307 32 -436 86
-127 52 -285 98 -421 123 -155 29 -237 37 -485 51 -109 6 -189 26 -349 89
-155 60 -356 112 -509 130 -27 4 -66 9 -85 11 -19 3 -84 8 -145 11 -60 4 -121
7 -135 8 -48 4 -32 54 60 191 114 170 288 306 483 379 72 28 199 62 257 70 19
2 58 8 85 11 28 4 61 9 75 11 14 2 70 7 125 10 55 3 101 7 102 8 4 4 212 -2
303 -8z m-1175 -941 c266 -89 577 -245 651 -326 34 -37 37 -60 39 -279 2 -113
6 -446 10 -740 7 -516 8 -652 5 -1030 l-1 -175 -65 165 c-124 316 -223 566
-294 750 -39 102 -78 199 -85 215 -7 17 -24 59 -38 95 -50 129 -139 355 -346
882 -116 296 -211 539 -211 542 0 5 189 -51 335 -99z m1155 -349 c52 -6 118
-17 185 -30 138 -29 452 -147 471 -178 5 -8 -32 -92 -172 -393 -45 -98 -293
-642 -314 -690 -10 -22 -41 -89 -69 -148 -28 -60 -51 -110 -51 -112 0 -2 -21
-47 -46 -102 -26 -54 -63 -136 -84 -183 -142 -315 -200 -434 -214 -436 -9 -1
-16 3 -17 9 0 7 -3 458 -6 1002 -2 545 -5 1045 -6 1112 -1 84 2 126 10 134 7
7 34 14 60 17 26 2 49 5 50 6 4 4 146 -2 203 -8z m1630 -201 c114 -19 153 -30
148 -44 -2 -5 -37 -45 -78 -88 -41 -44 -133 -142 -205 -218 -71 -77 -146 -155
-165 -175 -40 -42 -282 -298 -330 -350 -18 -19 -101 -106 -184 -194 -83 -87
-158 -167 -167 -177 -8 -10 -79 -85 -156 -166 -77 -81 -157 -166 -178 -188
-20 -22 -96 -102 -168 -179 -73 -76 -155 -164 -184 -195 -28 -30 -54 -53 -57
-51 -2 3 23 64 56 135 33 72 69 150 80 175 11 25 101 223 201 440 99 217 191
420 205 450 13 30 44 97 68 149 24 51 44 95 44 96 0 2 20 45 44 97 24 51 60
129 81 173 132 284 129 279 188 291 34 7 227 33 272 37 104 8 388 -2 485 -18z
m-1131 -2441 c132 -66 343 -201 437 -279 92 -76 219 -212 248 -264 42 -79 41
-143 -3 -207 -37 -54 -114 -121 -149 -130 -17 -5 -47 12 -135 79 -174 132
-360 240 -441 255 -162 30 -226 -56 -189 -257 36 -196 94 -296 201 -344 96
-42 287 -25 452 42 80 33 104 22 220 -92 368 -365 610 -711 774 -1110 32 -77
101 -287 110 -333 2 -11 11 -49 20 -85 20 -81 28 -126 45 -249 30 -209 33
-594 7 -750 -3 -14 -7 -43 -11 -65 -9 -61 -22 -68 -122 -69 -103 -2 -148 -21
-219 -91 -50 -50 -56 -81 -21 -112 38 -35 62 -34 109 1 57 43 95 61 139 64 60
5 65 -14 29 -100 -113 -267 -274 -444 -507 -561 -267 -133 -669 -177 -1033
-112 -97 17 -119 23 -214 59 -117 45 -149 33 -152 -58 -1 -28 -2 -54 -3 -57
-2 -10 -103 -141 -141 -183 -137 -152 -271 -240 -429 -281 -155 -40 -250 -5
-299 108 -11 26 -10 275 2 332 2 11 7 63 11 115 4 52 8 97 10 100 2 3 6 30 9
60 4 30 15 109 25 175 16 103 17 127 6 170 -7 27 -18 77 -24 110 -6 33 -13 76
-17 95 -3 19 -6 96 -6 171 0 154 7 178 69 225 152 115 276 269 334 417 15 40
28 87 29 105 1 96 -105 151 -198 103 -128 -65 -266 -259 -316 -441 -29 -107
-52 -149 -89 -165 -37 -15 -111 -12 -132 5 -36 30 -47 162 -21 251 35 118 210
426 311 548 50 59 188 199 229 231 25 19 53 50 63 67 17 31 17 33 -3 59 -11
15 -29 30 -41 35 -29 10 -94 -23 -141 -73 -77 -82 -138 -89 -322 -38 -306 84
-490 173 -659 319 -140 121 -225 303 -223 481 1 41 3 84 6 95 14 64 21 85 43
128 13 27 44 75 68 108 52 70 62 112 70 288 3 68 7 126 9 130 2 3 7 31 11 61
4 30 9 58 12 63 2 4 6 19 9 33 17 91 88 241 164 343 147 198 383 336 680 398
137 28 531 24 650 -7 19 -5 49 -11 65 -14 28 -5 125 -37 257 -85 69 -25 100
-17 117 30 16 45 -6 74 -77 106 -31 14 -58 26 -60 28 -11 11 25 47 70 69 76
38 115 31 277 -50z m-1853 -1 c46 -20 93 -45 104 -55 l21 -20 -58 -35 c-186
-112 -367 -310 -505 -553 -47 -83 -96 -174 -141 -264 l-45 -89 -15 29 c-41 81
-62 170 -62 260 0 88 2 95 44 178 105 208 284 449 398 537 86 67 128 69 259
12z m1849 -714 c98 -45 374 -230 375 -251 0 -9 -113 -45 -175 -55 -157 -27
-228 13 -266 147 -18 65 -19 69 -25 138 l-7 62 25 -9 c13 -5 46 -19 73 -32z"/>
<path d="M3560 4919 c-55 -20 -80 -128 -43 -189 17 -30 39 -40 89 -40 83 0
116 151 46 215 -28 26 -50 30 -92 14z"/>
<path d="M4313 4923 c-48 -9 -79 -95 -59 -165 17 -58 82 -87 134 -59 71 38 68
187 -5 220 -24 11 -31 12 -70 4z"/>
<path d="M3719 4556 c-2 -2 -51 -6 -108 -10 -138 -8 -173 -19 -209 -62 -56
-67 -80 -224 -53 -339 38 -157 182 -300 339 -334 52 -11 206 -7 287 8 33 6 73
14 89 16 27 6 161 51 280 95 47 17 65 19 83 11 55 -25 97 -4 108 55 7 35 1 43
-47 72 -20 13 -53 45 -72 72 -31 43 -41 50 -68 50 -51 -1 -71 -22 -73 -77 -2
-62 -2 -60 -25 -66 -29 -7 -32 5 -14 54 21 55 23 244 5 308 -22 77 -72 114
-186 136 -32 6 -331 16 -336 11z m306 -150 c44 -6 84 -43 86 -79 6 -107 5
-135 -6 -176 -18 -71 -43 -106 -106 -154 -149 -112 -395 -59 -479 103 -39 77
-50 229 -19 266 20 25 57 35 144 41 44 3 81 6 82 7 5 4 259 -3 298 -8z"/>
<path d="M6432 3823 c-36 -17 -48 -54 -30 -88 7 -13 35 -57 62 -97 138 -203
268 -602 311 -953 2 -22 7 -59 11 -83 10 -67 65 -93 115 -53 29 22 34 62 20
135 -6 28 -13 65 -15 81 -3 17 -10 61 -16 99 -20 125 -98 411 -145 532 -49
127 -114 255 -175 344 -61 90 -89 107 -138 83z"/>
</g>
</svg>
