<?xml version="1.0" encoding="UTF-8"?><svg id="Financial_Investment" xmlns="http://www.w3.org/2000/svg" viewBox="0 0 1448.4302 836.4404"><defs><style>.cls-1{fill:#faa819;}.cls-2{fill:#072019;}.cls-3{fill:#fff6e7;}</style></defs><g><path class="cls-3" d="M1361.7679,223.8887C1163.296-78.8086,759.3309-44.2639,584.5375,147.94c-43.0544,47.3379-72.018,118.1634-79.3448,194.9229,30.4138-10.4177,62.6783-18.1547,71.4838-16.2181,14.3865,3.1769,20.2728,31.2152,20.2728,31.2152,50.9154-22.4479,100.7145-28.8111,127.3124,17.2579,8.567,.8014,29.2689,5.9435,61.915,33.7052,41.4231,35.2219,111.5427,156.4668,167.9341,248.7861h.0095c5.6477-41.9287,11.0188-86.1564,15.2927-124.7079,2.8143-25.3289,5.1611-48.206,6.8212-66.3512,1.908-20.9882,2.9001-35.6704,2.6139-40.5549-.1812-3.0814-.4769-6.2106-.8966-9.4065-7.8229-61.0947-55.8954-141.3077-55.8954-141.3077,0,0-47.8435,38.4561-55.4564,36.6721-6.9834-1.6409,7.9659-53.9588,33.0087-111.7525,11.3525,1.45,25.0903-.0573,38.8281-8.1282,20.8735-12.2685,26.3401-29.6696,26.3401-29.6696,0,0,49.6274,34.9359,54.6169,25.5101,4.98-9.4256-8.3094-24.165-8.3094-24.165,0,0-.7632-12.3544,12.2972-25.0236q.0095-.0096,.019-.0191c27.1512-24.3749,56.1816-4.9036,31.1389,38.4179-3.9592,6.8498-9.2634,14.291-16.1514,22.2475,0,0,52.2605,94.027,74.05,134.248,5.1326,9.4733,8.5765,15.9605,9.2539,17.5347,.4388,1.0399,1.9175,3.1482,4.2644,6.2106,2.7856,3.6729,6.8021,8.691,11.7629,14.8825,2.3945,2.986,5.0085,6.2488,7.8037,9.7404,25.2909,31.6731,65.7026,83.3708,96.5458,137.3484,27.8666,48.769,47.5192,123.4583,58.9291,176.463,154.2344-84.2103,208.0023-247.3552,60.7703-471.9096Z"/><path class="cls-3" d="M754.6276,516.3016c-3.8732-2.2133-24.1936-2.0702-41.4897-12.9077-10.5703,16.0654-25.7583,28.7919-49.5034,40.717,0,0,3.2529,8.8151-3.3295,15.8843-4.1595,4.4647-50.7534,24.1745-88.2458,37.7978,52.6327,71.131,138.0546,127.3409,264.8707,148.6249,6.4491,1.0781,12.8696,2.0989,19.2805,3.0529-62.4779-165.7016-88.3506-225.6133-101.5828-233.1691Z"/><path class="cls-3" d="M682.0848,369.079c-30.0417-6.7161-76.0153,13.2322-76.0153,13.2322l48.4063,132.6262c15.9987-7.5462,32.1788-21.5702,35.1935-34.516-1.6886,0-3.4917-.0859-5.3901-.2767-21.7419-2.0988-18.6223-19.3378-12.1255-24.2127-7.7371-6.7735-3.2914-18.5364,2.5662-21.8754-12.6692-6.1343-14.52-17.01-5.3423-24.9283-5.1421-1.431-9.5402-3.6824-11.6962-7.1932-6.3441-10.2937-5.6763-26.3688,24.4034-32.8561Z"/></g><path class="cls-2" d="M958.7994,231.2386h0c-1.7805,1.3512-4.3193,1.0032-5.6706-.7773l-6.2591-8.2476c-1.3512-1.7805-1.0032-4.3193,.7773-5.6706h0c1.7805-1.3512,4.3193-1.0032,5.6705,.7773l6.2592,8.2476c1.3512,1.7805,1.0032,4.3193-.7773,5.6706Z"/><path class="cls-2" d="M924.4361,236.2833h0c-1.7806,1.3512-4.3194,1.0032-5.6706-.7773l-6.2591-8.2476c-1.3513-1.7805-1.0033-4.3193,.7773-5.6705h0c1.7805-1.3513,4.3193-1.0033,5.6705,.7772l6.2591,8.2476c1.3513,1.7806,1.0033,4.3194-.7772,5.6706Z"/><path class="cls-2" d="M935.0289,782.7734c-.2265,0-.456-.0225-.6875-.0684-1.8955-.3769-3.1259-2.2197-2.749-4.1162,18.6133-93.5068,45.0273-330.5263,43.7637-352.3969-3.0928-53.5171-44.5938-128.7393-54.2901-145.6504-4.4394,3.5-12.9463,10.123-21.8252,16.5805-27.123,19.7251-31.2314,18.7588-33.4375,18.2408-1.4951-.3521-2.7255-1.378-3.4658-2.8892-2.5449-5.1987,.3135-20.8252,8.4951-46.4458,8.0186-25.1084,19.5215-54.4189,32.3897-82.5317,.8047-1.7579,2.8799-2.5303,4.6396-1.7261,1.7569,.8047,2.5303,2.8818,1.7256,4.6391-28.749,62.8067-42.3691,112.3057-41.2285,121.8868,7.0391-2.1436,31.3643-19.5503,51.5059-35.7383,.7881-.6338,1.8125-.8955,2.8086-.7173s1.8662,.7783,2.3857,1.646c2.1914,3.6562,53.6992,90.25,57.2852,152.3013,1.3632,23.5776-24.9336,258.9536-43.8868,354.1684-.331,1.6651-1.7939,2.8174-3.4287,2.8174Zm-66.4023-473.373h0Z"/><path class="cls-2" d="M1312.8785,762.4062c-1.7031,0-3.1963-1.2441-3.457-2.9795-.2353-1.5635-24.0566-157.2724-70.3935-238.3593-29.1788-51.0625-66.7598-99.983-96.2403-136.898-2.2168-2.7725-4.3183-5.3926-6.2871-7.8472-11.6562-14.5351-16.8594-21.0757-18.0225-23.792-2.7451-6.4052-55.5888-101.8711-83.1474-151.4555-.7139-1.2847-.5488-2.8784,.4121-3.9898,6.416-7.4184,11.7197-14.7226,15.7637-21.7099,9.0185-15.5987,11.5049-29.7124,6.6504-37.753-2.4815-4.1098-6.794-6.2573-12.1807-6.042-10.2822,.4087-25.5752,9.4571-37.6582,33.6241-.8643,1.728-2.9629,2.4311-4.6963,1.5649-1.7285-.8642-2.4297-2.9668-1.5654-4.6958,13.4472-26.8945,31.3613-36.999,43.6416-37.4878,7.9336-.3071,14.6465,3.1182,18.4511,9.419,6.2862,10.4106,3.8868,26.7671-6.583,44.8755-3.9218,6.7768-8.9404,13.8051-14.9355,20.9189,10.2949,18.5317,78.9072,142.1011,82.2812,149.9741,.837,1.9536,8.3506,11.3223,17.0498,22.1699,1.9707,2.4571,4.0743,5.0801,6.294,7.857,29.6396,37.1137,67.4336,86.3144,96.8506,137.7949,46.9883,82.2266,71,239.2148,71.2373,240.791,.2871,1.9111-1.0293,3.6943-2.9404,3.9815-.1768,.0263-.3516,.039-.5245,.039Z"/><path class="cls-2" d="M966.4615,266.6933c-1.5078,0-2.9003-.9819-3.3535-2.5005-.5517-1.8525,.502-3.8022,2.3545-4.3545,14.8614-4.4326,17.2178-20.3798,16.5772-32.978-.0987-1.9306,1.3867-3.5752,3.3174-3.6733,1.9414-.0957,3.5751,1.3872,3.6728,3.3179,1.0859,21.3496-6.5732,35.5698-21.5674,40.0415-.333,.0996-.6699,.1469-1.001,.1469Z"/><path class="cls-2" d="M1030.5592,169.0927c-.5283,0-1.0645-.1201-1.5684-.3735-1.7275-.8677-2.4238-2.9712-1.5566-4.6987,5.918-11.7793,14.1279-18.5156,14.4746-18.7964,1.501-1.2168,3.7051-.9878,4.9229,.5146,1.2177,1.5015,.9873,3.7056-.5147,4.9229-.0683,.0561-7.418,6.1313-12.6269,16.5015-.6153,1.2231-1.8496,1.9296-3.1309,1.9296Z"/><path class="cls-2" d="M977.9596,420.0854c-1.9004,0-3.46-1.521-3.4981-3.4297-.039-1.9326,1.4961-3.5307,3.4288-3.5698,60.8134-1.2231,105.0302-28.4873,131.4218-81.0361,.8672-1.7276,2.9688-2.4239,4.6993-1.5572,1.7265,.8677,2.4238,2.9712,1.5566,4.6988-27.6484,55.0517-73.9229,83.6137-137.5371,84.8935-.0235,.0005-.0479,.0005-.0713,.0005Z"/><path class="cls-2" d="M1029.1129,540.5156c-8.4502,0-17.6455-.8731-27.3994-1.7988-9.7529-.9268-20.8066-1.9756-32.3994-2.3125-1.9317-.0557-3.4531-1.667-3.3965-3.5996,.0557-1.9317,1.6602-3.4415,3.5996-3.3975,11.8223,.3437,22.9981,1.4043,32.8584,2.3408,36.5469,3.4658,58.6113,5.5645,68.2197-28.0664,19.5498-68.4219,39.4707-133.7856,52.7471-148.6401,1.2891-1.4405,3.502-1.5655,4.9414-.2769,1.4414,1.2881,1.5654,3.5005,.2774,4.9419-14.0362,15.7041-40.1036,106.939-51.2354,145.8989-8.1689,28.5928-25.4883,34.9102-48.2129,34.9102Z"/><path class="cls-2" d="M983.3346,471.6347c-2.6377,0-5.4649-.5693-8.4912-1.8769-1.7744-.7666-2.5918-2.8262-1.8252-4.6006s2.8262-2.5908,4.6006-1.8252c11.8193,5.1035,19.7861-6.5361,26.0244-18.5938,.6709-1.2988,1.2012-2.3242,1.667-3.083,1.584-2.583,3.5625-3.915,5.8799-3.9609,4.4921-.0928,7.624,4.5996,11.9707,11.0928,2.4004,3.5849,5.1211,7.6484,8.2588,11.1435,2.123,2.3643,3.5273,2.5508,4.6152,2.4346,12.3408-1.3809,40.7949-50.0034,61.125-86.4561,.9424-1.6879,3.0723-2.2939,4.7617-1.352,1.6875,.9414,2.293,3.0732,1.3516,4.7612-40.7598,73.086-56.0459,88.8379-66.459,90.003-3.8936,.4316-7.3633-1.1055-10.6035-4.7149-3.4688-3.8633-6.3369-8.1465-8.8662-11.9258-1.8897-2.8213-4.3995-6.5703-5.8311-7.7226-.0703,.0976-.1494,.2148-.2363,.3574-.3321,.542-.835,1.5127-1.416,2.6377-3.6045,6.9687-12.2491,23.6816-26.5264,23.6816Z"/><path class="cls-2" d="M1087.6744,794.6767c-.1806,0-.3642-.0146-.5488-.0439-1.9092-.3008-3.2139-2.0928-2.9121-4.002,10.3213-65.4707,14.2012-128.7773,17.9541-190,5.1895-84.664,10.0918-164.6323,32.2383-229.5132,.625-1.8291,2.6133-2.8061,4.4433-2.1816,1.8291,.6245,2.8057,2.6138,2.1817,4.4434-21.8428,63.9887-26.7168,143.4995-31.876,227.6801-3.7627,61.3858-7.6543,124.8623-18.0273,190.6612-.2715,1.7246-1.7598,2.956-3.4532,2.956Z"/><g><path class="cls-2" d="M874.402,184.9525c-11.0587,2.1969,26.5015,29.1795,64.0393,7.1164,20.8702-12.2665,26.3366-29.6632,26.3366-29.6632,0,0,49.6235,34.9305,54.6136,25.5048,4.99-9.4256-8.3141-24.1673-8.3141-24.1673,0,0-.7551-12.3553,12.324-25.0368,0,0,5.1812-18.9804-14.1615-28.046-20.5926-9.6513-36.533,10.1481-36.533,10.1481,0,0-12.7188-15.0191-33.8268-5.6829-21.1079,9.3362-26.4714,21.4633-29.6322,35.8564-3.098,14.1071-10.2834,29.091-34.8459,33.9705Z"/><path class="cls-2" d="M907.1744,204.1997c-13.8574,.001-25.7177-4.4727-32.5302-9.4146-4.3506-3.1562-6.2315-6.2407-5.5899-9.1679,.2178-.9966,1.1104-3.3912,4.666-4.0977l.6817,3.4331-.6817-3.4331c23.2539-4.6196,29.2803-18.4087,32.1084-31.2881,3.6524-16.626,10.2178-28.8335,31.6358-38.3066,17.2353-7.6221,29.6826-.3872,35.0205,3.9282,7.4004-7.3384,22.0859-15.9341,38.2402-8.3613,17.4092,8.1591,18.1123,24.5888,16.0518,32.1367-.1651,.605-.4893,1.1543-.9395,1.5908-9.6191,9.3262-11.0459,18.2012-11.2412,21.2432,3.3526,4.0078,13.1797,17.0913,7.8877,27.0859-.6055,1.1445-1.8447,2.6328-4.3105,3.2236-10.2022,2.4483-38.92-16.1484-51.8467-25.0268-3.0488,6.272-10.4912,18.1597-26.1123,27.3413-11.2754,6.6274-22.7139,9.1128-33.0401,9.1133Zm-29.9111-16.2827c1.8447,1.6494,5.5635,4.1254,11.542,6.2002,7.4189,2.5747,26.9346,7.2343,47.8623-5.066,19.3418-11.3681,24.7227-27.5434,24.7744-27.7055,.3408-1.0596,1.167-1.8994,2.2227-2.253,1.0527-.3535,2.2168-.1899,3.1279,.4507,.1084,.0767,10.9922,7.7212,22.8604,14.7627,20.208,11.9898,25.7539,11.8828,26.7841,11.6846,2.751-5.9849-4.9795-16.6025-7.958-19.9028-.5312-.5884-.8467-1.3399-.8945-2.1309-.0342-.5596-.669-13.6265,12.6211-27.0137,.6357-3.4458,1.9365-16.3706-12.4512-23.1133-17.8086-8.3466-31.7412,8.4605-32.3262,9.1797-.6572,.8081-1.6425,1.2852-2.6836,1.2954-1.0332,.0372-2.0371-.4404-2.7089-1.2348-.4473-.5161-11.4053-12.8545-29.7393-4.7442-18.7988,8.315-24.3662,18.5454-27.6299,33.4068-2.7998,12.7495-9.5302,30.1904-35.4033,36.1841Z"/></g><path class="cls-2" d="M954.1188,661.1132c-1.1787,0-2.3301-.5966-2.9903-1.6767-7.8379-12.832-15.7812-25.959-24.1914-39.8574-50.5263-83.4971-107.7949-178.1338-143.0283-208.0952-32.5469-27.6763-52.7812-32.211-59.9697-32.8755-1.9248-.1783-3.3408-1.8828-3.1631-3.8077,.1782-1.9243,1.8848-3.3378,3.8076-3.163,9.7529,.9023,31.0176,6.5859,63.8604,34.5131,36.0996,30.6978,93.6797,125.8521,144.4824,209.8042,8.4062,13.8916,16.3457,27.0127,24.1767,39.8331,1.0069,1.6494,.4864,3.8037-1.163,4.8115-.5694,.3476-1.1993,.5136-1.8213,.5136Z"/><path class="cls-2" d="M864.8834,776.0146c-1.417,0-2.751-.8662-3.2773-2.2705-59.5918-158.7559-94.5664-246.3184-108.7129-254.4023-.7451-.3877-3.8184-.9004-6.5303-1.3536-8.2471-1.375-22.0498-3.6777-34.4448-11.2236-1.6514-1.0049-2.1748-3.1582-1.1699-4.8096,1.0048-1.6503,3.1577-2.1767,4.8095-1.1689,11.2408,6.8418,23.7076,8.9219,31.9576,10.2979,4.4355,.7402,7.1123,1.1865,8.8505,2.1796,14.5772,8.3301,40.6973,68.6153,111.793,258.0205,.6797,1.8096-.2363,3.8272-2.0459,4.5059-.4053,.1524-.8213,.2246-1.2295,.2246Z"/><path class="cls-2" d="M752.5436,489.8847c-.4033,0-.8135-.0703-1.2139-.2177-16.3154-6.0342-25.4209-29.875-20.3183-51.4883-11.2281-2.4522-37.6587-9.7647-37.0875-24.1387,.149-3.7598,1.8018-7.0464,4.7793-9.5049,8.3843-6.9233,27.8306-7.9565,59.4449-3.1577,1.9111,.29,3.2246,2.0747,2.9345,3.9858-.289,1.9097-2.0654,3.2256-3.9853,2.9351-38.1856-5.7954-50.1846-1.4634-53.937,1.6343-1.4585,1.2046-2.1709,2.5981-2.2422,4.3848-.3057,7.7001,20.3418,15.0058,35.1011,17.7338,.9873,.1827,1.8496,.7813,2.3662,1.6431,.5166,.8613,.6377,1.9038,.333,2.8608-5.8936,18.5044,1.5556,41.5601,15.039,46.5455,1.8135,.6709,2.7393,2.6845,2.0694,4.497-.5225,1.4131-1.8604,2.2871-3.2832,2.2871Z"/><path class="cls-2" d="M690.214,415.0063c-10.981,0-29.5322-1.5141-35.5142-11.2344-4.0244-6.54-4.8183-13.8403-2.1787-20.0288,3.6997-8.6733,13.397-14.7612,28.8228-18.0937,1.893-.4072,3.7519,.793,4.1601,2.6816,.4082,1.8897-.7925,3.752-2.6816,4.1602-12.8931,2.7856-21.1445,7.6264-23.8623,13.9985-2.3779,5.5747,.0454,10.9219,1.7016,13.6133,4.5,7.3125,25.1246,8.5669,37.066,7.6416,1.9326-.1494,3.6108,1.2905,3.7607,3.2178,.1504,1.9267-1.2891,3.6103-3.2158,3.7607-.9712,.0762-3.9981,.2832-8.0586,.2832Z"/><path class="cls-2" d="M694.7677,441.9834c-3.1406,0-6.6987-.3565-10.7241-1.1973-12.7847-2.667-21.3257-8.8726-23.4331-17.0244-1.5718-6.0791,.7949-12.3843,6.4931-17.2984,1.4639-1.2622,3.6729-1.0991,4.9361,.3648,1.2627,1.4634,1.0991,3.6738-.3648,4.936-3.6572,3.1543-5.1797,6.793-4.2871,10.2456,1.3945,5.3946,8.1553,9.8521,18.0855,11.9243,20.2412,4.2242,24.8261-5.6606,25.0122-6.0839,.7148-1.7954,2.7383-2.646,4.5361-1.9297,1.7954,.7153,2.6606,2.7768,1.9453,4.5727-.2182,.5479-4.813,11.4903-22.1992,11.4903Z"/><path class="cls-2" d="M688.8209,464.3203c-1.8179,.001-3.6313-.1104-5.4311-.3438-14.1006-1.8271-17.6826-9.581-18.5625-14.04-1.5635-7.9199,3.0161-15.9873,8.1552-18.9199,1.6792-.959,3.8164-.3741,4.7745,1.3047,.9585,1.6787,.374,3.8164-1.3047,4.7744-2.98,1.7011-5.648,6.9746-4.7578,11.4853,1.142,5.7862,7.4799,7.791,12.5952,8.4541,14.8359,1.916,32.373-6.5224,37.5703-15.0693,2.4438-4.0195,.9311-6.1978,.4341-6.9136-1.1031-1.5874-.71-3.7685,.8779-4.8711,1.5854-1.1035,3.7671-.7099,4.8716,.8779,2.9707,4.2774,2.8994,9.4429-.2022,14.5435-5.7978,9.5352-22.4785,18.7178-39.0205,18.7178Z"/><path class="cls-2" d="M689.6681,483.9228c-1.8018,.001-3.7075-.0918-5.7256-.2881-14.209-1.3789-18.3247-8.6894-19.5132-12.9238-2.0107-7.165,1.3955-14.4033,5.6216-17.5762,1.5459-1.1591,3.7402-.8486,4.9004,.6973,1.1606,1.5459,.8486,3.7402-.6973,4.9004-2.3598,1.7715-4.1626,6.2471-3.0849,10.0869,1.2348,4.4004,5.8857,7.1143,13.4497,7.8486,15.8862,1.5391,22.7197-3.9902,23.7363-9.1972,.5664-2.9043-.7739-5.5323-3.188-6.2491-1.853-.5507-2.9092-2.499-2.3584-4.3525,.5503-1.8525,2.4971-2.9092,4.3516-2.3584,5.9458,1.7666,9.3374,7.7813,8.0649,14.3008-1.4228,7.292-8.9995,15.1103-25.5571,15.1113Z"/><path class="cls-2" d="M676.2389,391.2871c-1.2236,0-2.4111-.6421-3.0537-1.7842-.9478-1.6846-.3506-3.8189,1.334-4.7666,13.2885-7.478,27.8393-5.791,28.4531-5.7153,1.9184,.2358,3.2822,1.9824,3.0459,3.9013-.2363,1.9175-1.979,3.2813-3.9014,3.0459-.1211-.0136-12.9341-1.4502-24.165,4.8687-.5425,.3052-1.1319,.4502-1.7129,.4502Z"/><path class="cls-2" d="M654.4718,518.4336c-.4521,0-.9048-.0879-1.3315-.2637-.9092-.374-1.6192-1.1133-1.9566-2.0361l-48.4038-132.6226c-.6348-1.7402,.1958-3.6743,1.8955-4.4111,3.1846-1.3809,77.3882-33.0572,100.061,.3379,3.4229,.9531,11.8184,3.8774,15.7002,10.4111,2.2251,3.7446,2.6504,7.9629,1.2642,12.5386-.5605,1.8501-2.5171,2.894-4.3643,2.3349-1.8501-.5605-2.8955-2.5146-2.3349-4.3642,.8037-2.6534,.6133-4.9214-.5825-6.9336-3.2266-5.4302-12.4922-7.4839-12.585-7.503-.9463-.1962-1.7695-.7749-2.2739-1.5991-16.3545-26.6972-74.9697-5.6006-89.0484-.0444l45.9038,125.7734c15.2374-8.0488,27.5259-20.4502,29.8414-30.4189,.4375-1.8828,2.3178-3.0508,4.2011-2.6172,1.8828,.4375,3.0547,2.3184,2.6172,4.2012-3.4761,14.9668-21.6743,29.6103-37.1118,36.8828-.4717,.2226-.9814,.334-1.4917,.334Z"/><path class="cls-2" d="M526.4757,614.7148c-.2886,0-.5576-.0098-.8061-.0303-13.4639-1.122-20.5928-17.3232-25.3101-28.0429-1.1587-2.6338-2.1621-4.9141-2.9551-6.2393-4.164-5.208-59.1567-37.0547-94.3105-56.7451-12.9805,9.4795-28.2754,14.6787-37.8325,12.7344-4.2276-.8614-7.4415-3.0703-9.2945-6.3907-4.5972-8.2373-8.4267-62.1435-1.0879-80.9843,1.7544-4.5039,4.0801-7.1797,7.1094-8.1797,6.9185-2.2891,16.0518,3.7822,28.7422,19.0908,7.0762,8.5361,13.0039,17.293,15.0215,20.3447l62.7441,17.8272c-3.4551-12.4854-11.3369-41.2656-14.7065-56.0078-.6353-2.7793-1.5127-6.1094-2.5288-9.9649-6.2549-23.7304-15.7066-59.5923,2.9321-71.0263,28.4224-17.4361,106.7412-41.5,123.2358-37.8653,13.0215,2.8692,19.5489,21.1909,21.9229,29.772,41.1875-17.52,72.956-20.5347,97.0347-9.2295,19.8925,9.3389,34.1523,28.7075,42.3837,57.5679,.5293,1.8589-.5478,3.7954-2.4062,4.3257-1.8594,.5293-3.7949-.5464-4.3262-2.4058-7.6509-26.8281-20.6465-44.7105-38.626-53.1514-22.8759-10.7387-53.9682-7.1567-95.0527,10.9512-.9658,.4258-2.0723,.3926-3.0102-.0894-.939-.4819-1.6099-1.3613-1.8267-2.394-1.5166-7.1846-7.6357-26.3149-17.5991-28.5107-12.3272-2.7144-88.0293,18.5673-118.0699,36.9961-14.2041,8.7138-5.2021,42.8686,.1763,63.2758,1.0322,3.9151,1.9234,7.2964,2.5845,10.188,4.3193,18.8994,16.1753,61.2695,16.2944,61.6953,.3418,1.2207-.0024,2.5293-.8999,3.4239-.8974,.8955-2.2085,1.2314-3.4267,.8877l-69.9991-19.8887c-.8193-.2334-1.5254-.7569-1.9863-1.4727-12.749-19.7998-30.4272-39.6689-36.4136-37.6933-.6626,.2187-1.7412,1.4043-2.7807,4.0732-7.1543,18.3662-2.3076,69.6846,.6772,75.0322,.8521,1.5264,2.3496,2.4893,4.5791,2.9434,7.9077,1.6074,22.5269-3.8965,34.0078-12.8076,1.1109-.8614,2.628-.9766,3.8536-.2901,.2338,.1299,23.6508,13.2256,47.2734,26.9883,48.5054,28.2578,50.5669,31.6533,51.5576,33.2852,1.0371,1.708,2.1397,4.2129,3.4155,7.1142,4.0498,9.2022,10.1695,23.1104,19.4849,23.8858,.166,.0146,.3496,.0215,.5449,.0215,15.6641,0,124.5054-43.7491,130.9619-50.1338,5.045-5.418,2.6192-12.2041,2.5938-12.2725-.6177-1.6719,.1196-3.541,1.7129-4.3408,44.5683-22.374,57.6987-47.8027,67.4995-89.8223,.4385-1.8828,2.3232-3.0527,4.2031-2.6133,1.8828,.4385,3.0527,2.3204,2.6133,4.2032-10.1123,43.3574-23.6426,69.9199-68.7109,93.2324,.6118,3.833,.6284,10.5654-4.8003,16.3955-5.8575,6.292-63.0152,28.6387-65.4458,29.5869-17.774,6.9346-59.5655,22.75-70.9478,22.75Z"/><path class="cls-2" d="M112.2643,836.4404c-1.4751,0-2.8462-.9395-3.3277-2.417-22.0107-67.6045-29.5478-94.6152-21.2817-110.1543,3.2881-6.1826,9.1704-10.3037,18.5107-12.9726,28.8179-8.2344,152.8672-24.0938,177.377-26.3223,8.8525-.8047,17.3145-.9629,23.5332,5.8496,8.417,9.2187,14.6636,31.4814-2.8198,126.707-.3487,1.9014-2.1753,3.1563-4.0742,2.8106-1.9014-.3487-3.1597-2.1729-2.8106-4.0742,13.1079-71.3946,14.5493-109.7559,4.5352-120.7237-4.0684-4.458-10.1739-4.2842-17.73-3.5986-23.6231,2.1484-148.2471,18.1269-176.0879,26.082-7.4902,2.1397-11.8862,5.0791-14.2534,9.5293-6.9258,13.0186,1.3115,41.9004,21.7578,104.6992,.5981,1.8389-.4067,3.8135-2.2446,4.4121-.3599,.1172-.7251,.1729-1.084,.1729Z"/><path class="cls-2" d="M92.5114,771.3476c-1.8902,0-3.4468-1.5068-3.4966-3.4072-.0513-1.9326,1.4741-3.541,3.4062-3.5918,58.6553-1.5479,193.8814-21.1963,195.2403-21.3945,1.9116-.2891,3.6894,1.0439,3.9687,2.958,.2788,1.9121-1.0454,3.6894-2.958,3.9678-1.3633,.1992-136.9976,19.9082-196.0664,21.4667-.0313,.001-.063,.001-.0942,.001Z"/><path class="cls-2" d="M190.3439,703.3994c-.2085,0-.4204-.0195-.6333-.0576-23.2657-4.252-53.2007-20.4307-63.023-40.1446-3.9062-7.8398-4.1372-15.6347-.6675-22.542,3.604-7.1728,10.2251-10.1572,18.6416-8.4003,10.708,2.2333,25.0288,12.4716,38.3091,27.3876,10.0655,11.3047,21.0371,27.3702,21.645,38.5557,.105,1.9307-1.3745,3.5801-3.3046,3.6856-1.9151,.0976-3.5801-1.375-3.6846-3.3057-.8882-16.3369-34.0933-55.2363-54.3941-59.4707-6.9755-1.458-9.5952,1.9795-10.9575,4.6904-2.4761,4.9287-2.248,10.4053,.6782,16.2783,7.7911,15.6368,33.8169,31.9571,58.0162,36.3789,1.9013,.3477,3.1611,2.1709,2.8134,4.0723-.3086,1.6895-1.7812,2.8721-3.4389,2.8721Z"/><path class="cls-2" d="M204.212,701.4619c-1.5322,0-2.9384-1.0137-3.3696-2.5615-.5185-1.8623,.5703-3.792,2.4321-4.3116,17.417-4.8515,44.0469-25.4521,47.4893-36.7373,.7895-2.5879-.0151-3.5293-.3179-3.8838-2.2226-2.6015-6.8061-2.1484-9.3398-1.6464-13.7197,2.7177-32.5298,18.2402-38.6636,37.0166-.5996,1.8378-2.5757,2.8427-4.4141,2.2402-1.8374-.6006-2.8403-2.5762-2.2402-4.4141,7.1201-21.7949,28.3608-38.6201,43.9575-41.709,6.9678-1.3818,12.6592,.0274,16.0225,3.9659,1.6426,1.9228,3.269,5.3007,1.6909,10.4726-4.4434,14.5664-34.1777,36.3887-52.3057,41.4395-.3144,.0869-.6303,.1289-.9414,.1289Z"/><path class="cls-2" d="M195.4811,681.8115c-.4805,0-.9688-.0996-1.4351-.3096-1.7627-.7939-2.5478-2.8662-1.7544-4.6279,11.9732-26.5918,16.4419-40.0791-12.5522-55.9697-3.4297-1.8799-6.9282-3.709-10.6323-5.6465-30.0303-15.7022-64.0669-33.499-64.5977-80.8526-.4453-39.79,13.187-56.6054,43.0566-93.4492,4.4263-5.4595,9.003-11.1045,14.0401-17.4389,36.4018-45.7784,71.8652-94.7388,70.9492-145.7266-.0347-1.9326,1.5039-3.5278,3.4365-3.5625,1.9043-.0513,3.5279,1.5034,3.5625,3.4365,.9575,53.3081-35.2754,103.4351-72.4697,150.209-5.0576,6.3604-9.8516,12.2739-14.0811,17.4907-29.6425,36.5635-41.9116,51.6983-41.4941,88.9629,.4834,43.167,31.1675,59.2119,60.8408,74.7276,3.7354,1.9531,7.2637,3.7978,10.7534,5.7109,33.5371,18.3809,28.2554,36.8115,15.5708,64.9814-.5835,1.2969-1.8584,2.0645-3.1933,2.0645Z"/><path class="cls-2" d="M236.0724,289.3452c-.5845,0-1.169-.146-1.6973-.439-1.063-.5893-1.7441-1.688-1.7993-2.9018-.8813-19.3892,4.9463-60.9444,19.2324-71.2412,3.7769-2.7227,8.0142-3.3013,12.2505-1.6709,5.9092,2.2729,9.4702,7.7265,10.0274,15.3569,1.2973,17.769-14.2754,48.0434-36.2959,60.4458-.5332,.2998-1.1255,.4502-1.7178,.4502Zm23.2905-70.1607c-1.1728,0-2.292,.4141-3.4619,1.2574-9.6455,6.9521-15.9629,38.0498-16.395,58.9961,16.8305-12.4908,28.6211-36.4717,27.5986-50.479-.3584-4.9126-2.2285-8.0528-5.5586-9.3335-.7612-.2925-1.4819-.441-2.1831-.441Z"/><path class="cls-2" d="M236.0729,289.3452c-.1382,0-.2764-.0083-.4151-.0244-40.3955-4.8208-69.7446-27.3013-76.8506-46.0059-3.1381-8.2598-2.082-15.9458,2.9742-21.6426,3.0659-3.4555,8.7724-7.0766,18.5464-4.6987,22.5146,5.4746,51.8066,39.1611,59.1367,68.0098,.2842,1.1176-.001,2.3037-.7617,3.1704-.6685,.7622-1.6294,1.1914-2.6299,1.1914Zm-61.7198-66.1406c-3.0683,0-5.4887,1.0327-7.3364,3.1142-3.3354,3.7583-3.896,8.6402-1.666,14.5103,6.1465,16.1777,32.0938,35.2236,65.8203,40.7856-9.0976-26.9512-35.3388-53.6675-52.4971-57.8393-1.5639-.3799-3.0024-.5708-4.3208-.5708Z"/><path class="cls-2" d="M178.3405,411.2436c-.7256,0-1.4434-.2256-2.0474-.6611-24.419-17.6074-36.3501-47.1655-33.7774-65.5693,1.2188-8.7198,5.5684-14.8521,12.2486-17.2676,2.7134-.9824,7.0312-1.1587,12.1645,3.5898,12.0122,11.1099,23.4483,45.9063,14.7852,77.3384-.3042,1.1045-1.1304,1.9907-2.2114,2.3711-.3785,.1333-.7715,.1987-1.1621,.1987Zm-20.4239-77.0454c-.2646,0-.5239,.0405-.7724,.1304-5.2813,1.9096-7.1001,7.3916-7.6958,11.6538-2.1372,15.2866,7.2963,39.4575,26.7402,55.6645,5.3965-27.0849-4.187-56.0849-14.0127-65.1723-.9824-.9087-2.7178-2.2764-4.2593-2.2764Z"/><path class="cls-2" d="M178.5929,437.915c-6.8193,0-13.6397-.9614-19.9868-3.1792-1.1485-.4014-2.0059-1.3696-2.2652-2.5576-.2592-1.1885,.1167-2.4258,.9932-3.2691,15.0855-14.5112,40.7607-29.2099,57.6231-28.6538,5.437,.1748,9.6894,1.8999,12.6391,5.127,3.3633,3.6797,3.5303,8.4609,.4575,13.1177-6.5092,9.8667-27.9731,19.415-49.4609,19.415Zm-11.7441-8.1455c23.0366,4.8203,49.6225-6.4243,55.3623-15.1245,1.8315-2.7754,.7822-3.9234,.2182-4.5401-1.6284-1.7817-4.2178-2.7417-7.6972-2.8535-13.2623-.4228-33.8541,10.7066-47.8833,22.5181Z"/><path class="cls-2" d="M135.4376,594.1172c-.395,0-.7925-.0674-1.1743-.2032-1.0386-.3701-1.8423-1.208-2.1685-2.2607-10.8281-34.9463-2.979-59.9649,7.0332-70.7705,5.2437-5.6602,11.4288-8.0264,17.4146-6.6592,3.1846,.7256,7.311,3.4004,8.8862,12.0195,3.2349,17.7012-6.0859,52.7159-28.0556,67.291-.5811,.3848-1.2554,.5831-1.9356,.5831Zm17.8257-73.2618c-2.9624,0-6.0991,1.6534-9.0005,4.7852-8.9209,9.6279-14.1924,31.3594-6.874,59.0889,16.0332-13.9532,23.8086-42.7022,21.1543-57.2276-.6738-3.6875-2.0034-6.0996-3.5571-6.4541-.5655-.1289-1.1407-.1924-1.7227-.1924Z"/><path class="cls-2" d="M311.1202,455.3242c-.3086,0-.622-.041-.934-.127-.8755-.2422-21.5821-5.9795-33.6426-10.6191-1.8042-.6943-2.7036-2.7188-2.0098-4.5234,.6943-1.8038,2.7178-2.7041,4.5234-2.0098,11.7442,4.5185,32.7823,10.3467,32.9932,10.4043,1.8633,.5156,2.9561,2.4433,2.4414,4.3066-.4287,1.5508-1.8369,2.5684-3.3716,2.5684Z"/><path class="cls-2" d="M295.6168,494.7109c-1.4487,0-2.8037-.9062-3.3061-2.3525-.6343-1.8252,.3315-3.8203,2.1572-4.4541,14.7685-5.1319,27.082-9.6446,27.2046-9.6895,1.8149-.6641,3.8252,.2666,4.4912,2.0811,.6655,1.8144-.2661,3.8252-2.0811,4.4912-.123,.0449-12.4897,4.5761-27.3169,9.7285-.3803,.1328-.768,.1953-1.1489,.1953Z"/><path class="cls-2" d="M251.4796,508.8007c-1.564,0-2.9888-1.0566-3.3906-2.6416-.4746-1.874,.6601-3.7773,2.5337-4.2519,4.9887-1.2637,12.1372-3.4072,21.2456-6.3701,1.8403-.5977,3.8135,.4072,4.4111,2.2451,.5982,1.8389-.4072,3.8135-2.2451,4.4111-9.2559,3.0117-16.5542,5.1983-21.6929,6.4991-.2885,.0732-.5776,.1083-.8618,.1083Z"/><path class="cls-2" d="M288.7213,538.4775c-.9624,0-1.9199-.3945-2.6113-1.168-1.2881-1.4414-1.1636-3.6543,.2778-4.9414,13.4155-11.9882,35.2686-21.7402,36.1919-22.1494,1.7656-.7842,3.8335,.0147,4.6177,1.7822,.7832,1.7666-.0147,3.834-1.7813,4.6182-.2163,.0957-21.7788,9.7227-34.3642,20.9678-.6675,.5967-1.501,.8906-2.3306,.8906Z"/><path class="cls-2" d="M105.6188,618.2763c-5.4546,0-10.4053-.9004-14.3799-2.6328-5.8154-2.5351-9.0718-6.9082-8.9341-11.9961,.0859-3.1943,1.4673-7.7666,7.5571-11.414,13.0777-7.833,38.8482-6.6221,57.4463,2.6963,1.0108,.5058,1.7149,1.4697,1.8897,2.5869,.1753,1.1162-.1997,2.249-1.0069,3.041-12.4052,12.165-29.0337,17.7187-42.5722,17.7187Zm7.5473-24.1347c-8.1777,0-15.332,1.4765-19.7075,4.0966-2.7012,1.6182-4.1001,3.502-4.1567,5.5987-.0733,2.7168,2.5342,4.4306,4.7344,5.3896,9.4458,4.1172,29.5683,2.5166,45.3339-10.1816-8.5659-3.3848-17.9106-4.9033-26.2041-4.9033Z"/><path class="cls-2" d="M193.5831,628.5039c-.5654,0-1.1391-.1377-1.6718-.4268-1.6983-.9228-2.3238-3.0537-1.4009-4.7519,1.4599-2.6875,9.04-9.9161,12.2309-12.8995,1.4117-1.3203,3.627-1.2451,4.9468,.1661,1.3203,1.4121,1.2456,3.6269-.1665,4.9472-4.6182,4.3174-10.0859,9.8047-10.8672,11.1397-.6333,1.166-1.8325,1.8252-3.0713,1.8252Z"/><path class="cls-2" d="M108.0128,537.8672c-.2363,0-.4761-.0245-.7168-.0743l-24.0674-5.0117c-1.8925-.3945-3.1074-2.248-2.7129-4.1406,.3936-1.8916,2.2437-3.1055,4.1397-2.7129l24.0674,5.0117c1.8926,.3946,3.1074,2.2481,2.7129,4.1406-.3438,1.6514-1.7998,2.7872-3.4229,2.7872Z"/><path class="cls-2" d="M247.8947,341.5034c-.1626,0-.3272-.0112-.4932-.0347-9.7944-1.3808-20.8428-2.7646-23.2031-2.8047-.6954,.1563-1.4468,.1021-2.1524-.2021-1.7744-.7661-2.5923-2.8257-1.8262-4.6006,1.1109-2.5718,3.3804-2.3472,7.4976-1.9414,2.0723,.2046,4.9287,.5371,8.4902,.9883,6.0332,.7646,12.1104,1.6206,12.1714,1.6289,1.9141,.27,3.2466,2.0405,2.9771,3.9546-.2466,1.748-1.7451,3.0117-3.4614,3.0117Zm-21.2549-4.8521c-.1065,.2432-.2368,.4683-.3882,.6734,.147-.1988,.2788-.4229,.3882-.6734Zm.0019-.0039c-.0005,.001-.001,.0025-.0014,.0034,.0004-.0014,.0009-.0024,.0014-.0034Zm.0015-.0039c-.0005,.001-.0005,.0015-.001,.0025,.0005-.001,.0005-.0015,.001-.0025Zm.0015-.0039c0,.0005,0,.001-.0005,.0015,.0005-.0005,.0005-.001,.0005-.0015Z"/><g><path class="cls-2" d="M1202.0003,328.172c-7.0347,13.1749-29.9289,8.2248-32.7371,29.2055-1.7612,13.1082-11.014,21.8185-23.7414,24.6077-13.4319-16.8018-22.5991-27.968-23.8271-30.8334-3.5412-8.2628-83.3042-151.7773-83.3042-151.7773,6.8825-7.9582,12.1848-15.4023,16.1449-22.2468,1.2945,10.6903,5.9496,18.5152,15.3928,20.1335,13.4415,2.3037,21.2759,8.063,17.7442,24.5696-3.5317,16.5066,10.0715,25.8642,24.7695,23.1036,14.6885-2.7607,36.9638-1.4184,41.1809,18.2582,4.2267,19.6766,3.4556,35.4217,25.7213,36.5735,22.266,1.1519,28.7962,16.8875,22.6562,28.4059Z"/><path class="cls-2" d="M1145.5221,385.4853c-1.0508,0-2.0615-.4736-2.7334-1.3144-2.2178-2.774-4.3193-5.3941-6.2881-7.8487-11.6562-14.5351-16.8594-21.0757-18.0225-23.792-2.7451-6.4052-55.5888-101.8711-83.1474-151.4555-.7139-1.2847-.5488-2.8784,.4121-3.9898,6.416-7.4184,11.7197-14.7226,15.7637-21.7099,.7539-1.3037,2.2597-1.979,3.7314-1.6758,1.4756,.3022,2.5918,1.5137,2.7725,3.0083,1.2275,10.1372,5.4355,15.8921,12.5088,17.104,9.1953,1.5762,15.0361,4.6113,18.3818,9.5522,3.2217,4.7593,3.9395,11.0396,2.1943,19.1997-1.2597,5.8838-.0839,10.8814,3.3994,14.4532,3.9874,4.0903,10.4542,5.7632,17.3018,4.478,18.0645-3.396,40.7676,.0547,45.2481,20.9648,.6132,2.8536,1.1171,5.5928,1.6044,8.2422,2.834,15.418,4.545,24.7241,20.876,25.5694,11.9971,.6206,21.0479,5.2851,25.4873,13.1352,3.5323,6.2451,3.5606,13.876,.0772,20.4121-.001,.0005-.001,.0015-.001,.002-3.542,6.6333-10.0332,9.2827-16.3115,11.8452-7.878,3.2158-14.6817,5.9932-16.0449,16.1763-1.8868,14.0415-11.7784,24.3442-26.461,27.5625-.249,.0547-.5,.081-.749,.081Zm-102.8916-185.6865c10.2949,18.5317,78.9072,142.1011,82.2812,149.9741,.837,1.9536,8.3506,11.3223,17.0498,22.1699,1.5508,1.9331,3.1836,3.9693,4.8907,6.1021,10.6738-3.0317,17.5312-10.6372,18.9424-21.1338,1.9003-14.2002,12.123-18.3735,20.3378-21.7266,5.5948-2.2837,10.4278-4.2563,12.7793-8.6591h0c2.3516-4.4117,2.3545-9.5235,.0079-13.6734-3.2188-5.6919-10.2354-9.0981-19.7559-9.5908-21.8545-1.1304-24.5479-15.7817-27.3994-31.2939-.4785-2.5987-.9717-5.2862-1.5635-8.0396-4.418-20.6133-31.6914-16.5723-37.1123-15.5532-9.1523,1.7187-17.9785-.6997-23.6055-6.4707-5.122-5.252-6.9804-12.6406-5.2334-20.8052,1.3262-6.1963,.9512-10.7139-1.1455-13.8105-2.2041-3.2554-6.5781-5.3453-13.7666-6.5772-5.7988-.9936-12.7715-4.4375-16.3418-14.5493-3.0263,4.48-6.4922,9.0405-10.3652,13.6372Zm159.3701,128.373h0Z"/></g><path class="cls-1" d="M278.2302,299.2026c32.8069-5.9637,57.5692,27.2154,48.2133,53.4623-12.6247,35.4172-54.3015,41.7287-77.0747,15.0887-18.3714-21.4908-2.3842-62.871,28.8614-68.551Z"/><g><path class="cls-2" d="M293.6019,351.5538c-.8686,2.4599-2.107,4.2688-3.7146,5.4271-1.608,1.1576-3.6911,1.667-6.2506,1.5279l-2.2707,6.4309c-.0661,.1871-.1868,.3224-.3608,.4061-.1744,.0829-.3555,.0919-.5426,.0258l-8.5044-3.0029c-.1877-.0662-.323-.1869-.4061-.3607-.0834-.1746-.0918-.3555-.0257-.5426l2.0226-5.7282c-1.5688-.6329-2.968-1.2591-4.1983-1.8774-.1559-.0818-.2676-.2132-.3349-.395-.0677-.1822-.068-.3669-.0019-.554l3.0873-6.6171c.0976-.2025,.2492-.3331,.4548-.3927,.2051-.0592,.4052-.028,.5996,.0933,.4734,.2991,.9694,.5929,1.4871,.8807,.5171,.2882,1.1969,.64,2.0382,1.0556,.8413,.4157,1.6364,.7558,2.3865,1.0206,.8117,.3125,1.5436,.4592,2.1964,.4396,.6524-.0198,1.1556-.1583,1.5101-.4154,.3538-.2568,.6255-.5035,.8146-.7399,.1884-.236,.3205-.46,.3949-.6707,.0826-.234,.1266-.5087,.1325-.8228,.0053-.3144-.0521-.73-.1725-1.2467-.1207-.5168-.4444-1.0919-.9713-1.7263-.5271-.6338-1.2297-1.2375-2.1073-1.8111-1.0105-.6464-1.9118-1.452-2.7037-2.4169-.7925-.9648-1.4608-2.0573-2.0045-3.277-.5445-1.2198-.838-2.6078-.8812-4.1645s.2164-3.1313,.779-4.7246c.7941-2.2491,2.036-3.9382,3.726-5.0674,1.6892-1.1289,3.744-1.6878,6.1645-1.6767l2.3329-6.6067c.066-.1871,.1883-.3288,.367-.4237,.178-.0952,.361-.1095,.5487-.0433l8.5044,3.0029c.1871,.0661,.3266,.1943,.4176,.3845,.0909,.1901,.103,.3792,.037,.5664l-2.0227,5.7281c1.4981,.6079,2.9559,1.2549,4.3742,1.9396,.1551,.0815,.273,.215,.3524,.4011,.0788,.1861,.0735,.3688-.0155,.5478l-3.0874,6.617c-.09,.1793-.2396,.3044-.4487,.3751-.2097,.071-.3999,.0503-.5705-.0632-2.1848-1.3507-4.2332-2.3772-6.1455-3.079-.7886-.3043-1.5089-.4469-2.1613-.4271-.653,.0202-1.1639,.162-1.534,.4266-.3699,.2646-.6478,.5092-.8321,.7339-.185,.2247-.3185,.4543-.4011,.6882-.0745,.2109-.1147,.4733-.12,.7876-.0059,.3141,.0577,.7318,.1898,1.2529,.1324,.5209,.462,1.0985,.9891,1.7323,.527,.6345,1.2291,1.2382,2.1073,1.8113,.9781,.6615,1.8716,1.4711,2.6799,2.4284,.8082,.9573,1.482,2.0518,2.0222,3.283,.5396,1.2317,.8277,2.618,.8636,4.1585,.0352,1.5407-.2279,3.1078-.7903,4.7008Z"/><path class="cls-2" d="M280.7047,366.914c-.2485,0-.4985-.0425-.7407-.1279l-8.5054-3.0029c-.5566-.1958-1.0044-.5957-1.2588-1.126-.2549-.5357-.2851-1.1353-.0869-1.6939l1.5484-4.3857c-1.0767-.46-2.0767-.9214-2.9839-1.3774-.5113-.2686-.8716-.6841-1.0679-1.2139-.1895-.5083-.1939-1.0532-.0107-1.5732,.0161-.0464,.0346-.0923,.0556-.1368l3.0874-6.6167c.2901-.6015,.7832-1.0219,1.3965-1.1997,.6138-.1772,1.2564-.0835,1.8106,.2613,.4584,.2895,.9301,.5693,1.4223,.8427,.502,.2793,1.1597,.6197,1.9736,1.022,.7857,.3877,1.5332,.7075,2.2217,.9507,.6612,.2534,1.2041,.3667,1.6514,.3545,.5117-.0152,.6694-.1255,.6763-.1304,.3188-.2314,.4638-.3882,.5219-.4609,.1241-.1558,.1529-.2334,.1538-.2368,.0118-.0337,.0425-.1412,.0464-.3487,.001-.0835-.0088-.3413-.1338-.8799-.0371-.1587-.1733-.5161-.664-1.1069-.4282-.5146-1.0254-1.0244-1.7744-1.5142-1.127-.7207-2.1548-1.6386-3.0425-2.7211-.874-1.0635-1.6192-2.2808-2.2153-3.6172-.6221-1.3936-.962-2.9868-1.0103-4.7339-.0483-1.7334,.2422-3.5049,.8638-5.2656,.9008-2.5508,2.3501-4.5074,4.3076-5.815,1.6728-1.1186,3.6621-1.7554,5.9253-1.8984l1.9907-5.6377c.1924-.5449,.5654-.9771,1.0786-1.249,.5459-.2915,1.169-.3379,1.7525-.1324l8.5029,3.0025c.5586,.1972,1.0102,.6059,1.271,1.1518,.2607,.5464,.2954,1.1538,.0986,1.7119l-1.5503,4.3912c1.0625,.4545,2.1138,.9326,3.1392,1.4272,.5073,.2656,.8647,.6592,1.0796,1.1621,.2519,.5952,.2324,1.2344-.0513,1.8057l-3.0713,6.5835c-.2871,.5742-.7397,.9624-1.3266,1.1616-.6543,.2212-1.3218,.1377-1.8824-.2349-2.0473-1.2651-4.0234-2.2563-5.8315-2.9199-.6211-.2402-1.1587-.355-1.6001-.3359-.3848,.0117-.6172,.084-.7061,.1474-.3569,.2554-.5009,.4112-.5464,.4659-.0903,.1103-.1289,.1884-.145,.2348-.0009,.0025-.0312,.0903-.0346,.3145-.002,.083,.0092,.3281,.1435,.8579,.043,.1689,.19,.5425,.6885,1.1421,.4302,.5175,1.0268,1.0268,1.7739,1.5141,1.1074,.7491,2.1123,1.6587,3.0064,2.7173,.8964,1.062,1.6533,2.2891,2.2495,3.648,.6162,1.4072,.9492,2.997,.9897,4.726,.0391,1.7178-.2553,3.479-.8755,5.2354-.9677,2.7417-2.3984,4.8091-4.2519,6.1445-1.6338,1.1768-3.6729,1.7905-6.0733,1.8311l-1.9106,5.4106c-.1968,.5576-.5972,1.0049-1.1274,1.2593-.3013,.1431-.6241,.2153-.9483,.2153Zm-7.5-5.6963l7.0108,2.4756,2.0068-5.6841c.2222-.6284,.8379-1.0439,1.4961-.998,2.1963,.1211,3.977-.3003,5.2925-1.2476,1.3471-.9707,2.416-2.5551,3.1762-4.7089v-.0005c.4991-1.4126,.7364-2.8145,.7056-4.167-.0313-1.336-.2798-2.5445-.7383-3.5913-.48-1.0933-1.0835-2.0752-1.7939-2.9165-.7163-.8482-1.5152-1.5728-2.3745-2.1538-.9781-.6377-1.7994-1.3477-2.4205-2.0953-.6772-.8139-1.0991-1.5737-1.289-2.3217-.1675-.6578-.2446-1.1978-.2359-1.6499,.0079-.4795,.0752-.8926,.2056-1.2608,.1402-.396,.3609-.7803,.6563-1.1391,.27-.3291,.6362-.6568,1.1186-1.002,.6143-.439,1.4082-.6768,2.3604-.7061,.8413-.0258,1.7744,.1519,2.7475,.5274,1.752,.6426,3.6494,1.5659,5.6343,2.7422l2.3901-5.124c-1.1547-.5415-2.3676-1.0723-3.5874-1.5669-.7426-.3018-1.1171-1.1338-.8505-1.8897l1.7714-5.0166-7.0459-2.4878-2.0815,5.895c-.2119,.5996-.7788,1.0005-1.4146,1.0005-.0224,.0025-.0468,0-.0698,0-2.0776,0-3.8471,.479-5.2612,1.4239-1.4268,.9531-2.4556,2.3662-3.145,4.3198-.4986,1.4116-.732,2.8193-.6939,4.1831,.0371,1.3525,.2901,2.562,.751,3.5952,.4868,1.0913,1.0903,2.0791,1.7944,2.936,.688,.8389,1.4795,1.5469,2.3526,2.1055,1.0117,.6616,1.8325,1.3701,2.4521,2.1152,.6851,.8247,1.103,1.5913,1.2793,2.3448,.1499,.645,.2188,1.1723,.2114,1.6132-.0092,.4771-.0825,.9126-.2177,1.2964-.1319,.3706-.3457,.7427-.6377,1.1079-.2744,.3438-.6358,.6768-1.1045,1.0171-.603,.437-1.3921,.6724-2.3472,.7012-.8501,.022-1.7847-.1558-2.7803-.5391-.7612-.268-1.6196-.6347-2.5117-1.0756-.8686-.4288-1.5703-.7925-2.104-1.0899-.2788-.1553-.5522-.312-.8193-.4707l-2.3965,5.1358c1.02,.4897,2.1694,.9941,3.4131,1.4956,.7446,.3003,1.1206,1.1337,.8535,1.8906l-1.7588,4.9809Zm-.2632,.7447l-.0005,.0024c0-.001,.0005-.0015,.0005-.0024Zm24.5484-30.2022c.0112,.0069,.0224,.0137,.0337,.0205-.0108-.0068-.022-.0136-.0337-.0205Zm1.9917-6.2671c-.0044,.0088-.0083,.0176-.0122,.0264l.0122-.0264Z"/></g><g><path class="cls-1" d="M3.4271,500.0022c12.4832-30.9197,56.2271-39.5006,79.359-9.8581,23.132,29.6425,2.3708,76.9156-38.5691,71.8815-32.3203-3.9743-52.6791-32.5752-40.7899-62.0234Z"/><g><path class="cls-2" d="M59.9251,516.0432c1.6155,2.0483,2.4831,4.0615,2.6037,6.0393,.1196,1.9776-.5625,4.0107-2.0474,6.1002l4.2235,5.3548c.1229,.1559,.1729,.3302,.1506,.522-.023,.1917-.1122,.3495-.268,.4724l-7.0814,5.5853c-.1563,.1233-.3306,.1732-.5219,.1506-.1922-.0227-.3496-.1122-.4725-.2681l-3.762-4.7697c-1.373,.9881-2.6498,1.8365-3.8297,2.5462-.1525,.0881-.3231,.1124-.5128,.0722-.1902-.0402-.3465-.1386-.4694-.2944l-3.9447-6.1446c-.1191-.1907-.1485-.3887-.089-.5943,.0595-.205,.1927-.3574,.3991-.457,.5058-.2405,1.0191-.5029,1.5389-.7868,.52-.2831,1.1804-.6699,1.9812-1.159,.8008-.4892,1.513-.9797,2.1376-1.4724,.6978-.5192,1.2127-1.0596,1.5448-1.6219,.3318-.5621,.4836-1.0615,.4556-1.4985-.0281-.4363-.0915-.7978-.1904-1.0839-.0989-.2854-.2176-.5167-.356-.6922-.1537-.1947-.3624-.3787-.6248-.5514-.2629-.1725-.645-.3459-1.146-.5202-.5014-.174-1.1605-.2076-1.9783-.101-.8173,.107-1.703,.3785-2.6567,.814-1.0862,.5089-2.2488,.8405-3.4875,.9945-1.2389,.1547-2.5195,.136-3.841-.0559-1.322-.1913-2.6522-.6846-3.9912-1.4797-1.3391-.795-2.5316-1.8556-3.578-3.1823-1.4771-1.8728-2.2416-3.8248-2.2935-5.8568-.052-2.031,.5732-4.0666,1.8756-6.1069l-4.3389-5.5013c-.1229-.1558-.1774-.3348-.1622-.5366,.0146-.2014,.1003-.3637,.2566-.487l7.0814-5.5853c.1558-.1229,.3387-.1723,.548-.1476,.2094,.0247,.3757,.1154,.4986,.2713l3.762,4.7697c1.3141-.9417,2.6398-1.8285,3.9762-2.6617,.1518-.0876,.3276-.1159,.5274-.0837,.1994,.0329,.3511,.1349,.4548,.3058l3.9446,6.1446c.1035,.1719,.1293,.3652,.0773,.5797-.0519,.2153-.1711,.365-.3581,.4485-2.3089,1.1255-4.2709,2.3088-5.8857,3.5506-.6785,.5041-1.1838,1.0368-1.5156,1.5989-.3317,.5628-.4848,1.0704-.4588,1.5247,.0261,.454,.0844,.8196,.1759,1.0955,.0912,.2764,.2139,.5118,.3676,.7066,.1385,.1756,.3388,.3499,.6017,.5222,.2623,.1728,.6495,.3421,1.1605,.5088,.5112,.1663,1.1755,.1963,1.9928,.0893,.8179-.1067,1.7033-.3777,2.6569-.8139,1.0818-.4735,2.2434-.7964,3.4845-.9684,1.241-.1718,2.5262-.1568,3.8556,.0443,1.3294,.2017,2.6553,.6987,3.9768,1.4913,1.3212,.7932,2.5055,1.8528,3.5517,3.1792Z"/><path class="cls-2" d="M57.068,541.7724c-.0859,0-.1724-.0049-.2588-.0146-.5835-.0684-1.1074-.3633-1.4746-.8281l-2.8828-3.6553c-.9678,.667-1.8916,1.2656-2.7583,1.7871-.4995,.2881-1.0425,.373-1.5962,.2549-.5332-.1123-.9966-.4014-1.3379-.835-.0303-.0371-.0581-.0771-.084-.1172l-3.9443-6.1445c-.3545-.5664-.4463-1.208-.2676-1.8223,.1777-.6133,.6001-1.1064,1.1885-1.3906,.4873-.2324,.9756-.4814,1.4702-.7519,.5054-.2754,1.1445-.6495,1.9189-1.1231,.7471-.4561,1.417-.917,1.9908-1.3701,.5669-.4219,.9531-.8193,1.1826-1.207,.2593-.4395,.25-.6309,.2495-.6387-.0249-.3945-.0801-.6026-.1109-.6914-.0644-.1865-.1157-.252-.1162-.253-.0234-.0292-.0976-.1123-.2724-.2275-.0865-.0566-.3101-.1807-.8145-.3564-.1528-.0528-.5283-.1289-1.291-.0293-.6631,.0869-1.4126,.3193-2.227,.6904-1.2115,.5674-2.5362,.9463-3.9248,1.1191-1.3692,.1709-2.7959,.1504-4.2427-.0605-1.5069-.2168-3.0357-.7803-4.5406-1.6738-1.4912-.8858-2.8339-2.0772-3.9902-3.543-1.6753-2.124-2.5552-4.3945-2.6152-6.7481-.0518-2.0107,.4726-4.0332,1.5605-6.0234l-3.7021-4.6943c-.357-.4502-.5235-.9961-.48-1.5772,.0449-.6172,.3374-1.1709,.8237-1.5537l7.0811-5.584c.4673-.3691,1.0591-.5322,1.6577-.459,.5957,.0694,1.1299,.3663,1.4976,.835l2.8808,3.6523c.9512-.6562,1.917-1.289,2.8838-1.8925,.4937-.2862,1.021-.3799,1.5596-.291,.6372,.1054,1.1665,.4628,1.4975,1.0068l3.9253,6.1142c.3325,.5508,.419,1.1407,.2735,1.7422-.1626,.6729-.5918,1.1934-1.208,1.4668-2.1597,1.0547-4.0533,2.1953-5.5801,3.3692-.5337,.3965-.9097,.7861-1.1382,1.1728-.1953,.3321-.2588,.5674-.2524,.6768,.0249,.4365,.08,.6416,.1025,.7099,.0444,.1348,.0893,.2081,.1196,.2461,.0039,.0049,.062,.0772,.2466,.1983,.0708,.0469,.2822,.167,.8052,.3379,.164,.0537,.56,.1289,1.3315,.0273,.668-.0869,1.417-.3193,2.2276-.6904,1.227-.5371,2.5327-.9004,3.9038-1.0899,1.374-.1933,2.8164-.1738,4.2856,.0469,1.5181,.2305,3.0401,.7979,4.5239,1.6885,1.4727,.8838,2.8042,2.0732,3.9576,3.5361h0c1.8007,2.2832,2.7846,4.5977,2.9233,6.878,.1216,2.0087-.4487,4.0605-1.6963,6.1113l3.5527,4.5049c.3658,.4648,.5303,1.04,.4634,1.622-.0708,.5899-.3647,1.1123-.8286,1.4786l-7.0825,5.5859c-.3965,.3125-.8735,.4775-1.3667,.4775Zm-4.3193-8.042c.4443,0,.8833,.1963,1.1787,.5713l3.2715,4.1475,5.8378-4.6045-3.7329-4.7334c-.4126-.5225-.4306-1.2549-.0449-1.7979,1.2739-1.7929,1.8706-3.5224,1.773-5.1396-.1011-1.6572-.8697-3.4082-2.2847-5.2022-.9277-1.1757-1.9858-2.125-3.146-2.8212-1.1465-.6875-2.2998-1.1231-3.4292-1.294-1.1826-.1797-2.3359-.1933-3.4248-.043-1.0982,.1524-2.1377,.4405-3.0894,.8575-1.061,.4863-2.1001,.8017-3.0649,.9267-1.0474,.1377-1.9146,.0879-2.6494-.1494-.6499-.2129-1.1475-.4355-1.523-.6836-.3969-.2588-.7099-.5371-.9536-.8457-.2607-.3291-.4682-.7217-.6142-1.164-.1338-.4053-.2154-.8897-.2491-1.4815-.0429-.7529,.1802-1.5508,.6636-2.3711,.4331-.7334,1.0767-1.4199,1.9136-2.042,1.479-1.1367,3.2729-2.248,5.3281-3.2978l-3.0552-4.7578c-1.0757,.6875-2.1718,1.4287-3.2407,2.1953-.6514,.4677-1.5547,.3388-2.0517-.2901l-3.295-4.1767-5.8667,4.6269,3.8716,4.9092c.3955,.501,.4302,1.1973,.0864,1.7354-1.1323,1.7744-1.684,3.5449-1.6401,5.2617,.0435,1.7148,.6885,3.3398,1.9717,4.9668,.9272,1.1748,1.9922,2.124,3.166,2.8203,1.1645,.6914,2.3218,1.124,3.4395,1.2851,1.1835,.1719,2.3408,.1895,3.4414,.0528,1.0756-.1338,2.0976-.4248,3.0366-.8653,1.1006-.5019,2.1387-.8173,3.0991-.9423,1.0625-.1387,1.9336-.0821,2.6636,.1709,.6279,.2187,1.1103,.4423,1.478,.6835,.3989,.2627,.7275,.5577,.979,.876,.2441,.3096,.439,.6787,.5957,1.1289,.1455,.4219,.2334,.9043,.27,1.4805,.0479,.7402-.1743,1.5332-.6611,2.3574-.4336,.7334-1.0869,1.4278-1.9414,2.0625-.6328,.5-1.4014,1.0303-2.25,1.5489-.8272,.5048-1.5093,.9033-2.0464,1.1962-.2793,.1534-.5576,.2998-.8345,.4414l3.0616,4.7686c.955-.5986,1.9951-1.3008,3.0878-2.0859,.2642-.1905,.5708-.2823,.8746-.2823Zm-7.4454-31.5654c-.0122,.0059-.0249,.0117-.0376,.0186,.0127-.0059,.0254-.0118,.0376-.0186Zm-18.7729-2.6006l.0015,.002c-.0005-.001-.001-.001-.0015-.002Zm14.5049-2.4121c.0049,.0078,.0097,.0156,.0151,.0234l-.0151-.0234Zm-8.6363-2.2119c.001,.001,.0015,.002,.002,.0029l-.002-.0029Z"/></g></g><g><path class="cls-1" d="M225.8844,536.5384c32.7889-6.0618,63.5068,26.2425,50.9104,61.6698-12.5963,35.4274-62.0764,35.7509-81.3516,6.0358-17.7213-27.3194-.7873-61.9322,30.4412-67.7056Z"/><g><path class="cls-2" d="M242.6723,592.819c-.8612,2.4625-2.0942,4.275-3.6983,5.4382-1.6045,1.1624-3.6861,1.678-6.246,1.5466l-2.2515,6.4376c-.0655,.1874-.1858,.323-.3596,.4072-.1741,.0834-.3552,.0929-.5425,.0274l-8.5133-2.9774c-.1879-.0657-.3236-.186-.4072-.3596-.084-.1743-.0929-.3552-.0274-.5425l2.0055-5.7342c-1.5706-.6281-2.9717-1.2502-4.2038-1.8649-.1562-.0813-.2683-.2123-.3362-.3939-.0682-.182-.069-.3667-.0035-.554l3.0675-6.6263c.097-.2028,.2482-.3339,.4537-.3941,.2048-.0597,.405-.0292,.5998,.0915,.4743,.2978,.9712,.59,1.4898,.8763,.5179,.2867,1.1987,.6364,2.0413,1.0495,.8425,.4132,1.6386,.7509,2.3895,1.0135,.8127,.31,1.545,.4546,2.1977,.433,.6523-.0218,1.1552-.1617,1.5089-.4199,.353-.2579,.624-.5054,.8124-.7424,.1877-.2366,.3191-.4609,.3929-.6719,.0819-.2341,.125-.509,.13-.8231,.0044-.3145-.0543-.7299-.1762-1.2462-.1222-.5164-.4477-1.0906-.9765-1.7234-.5289-.6322-1.2334-1.2338-2.1127-1.8048-1.0124-.6434-1.9161-1.4463-2.7109-2.4088-.7954-.9624-1.467-2.0529-2.0143-3.271-.5481-1.2181-.8458-2.6053-.8936-4.1618-.0479-1.5566,.207-3.1319,.7648-4.727,.7874-2.2514,2.0242-3.9442,3.7108-5.0785,1.6859-1.1339,3.739-1.6989,6.1596-1.695l2.313-6.6137c.0655-.1873,.1874-.3293,.3657-.4249,.1778-.0957,.3608-.1105,.5487-.0448l8.5133,2.9774c.1873,.0655,.3272,.1933,.4187,.3832s.1042,.379,.0387,.5663l-2.0055,5.7342c1.4998,.6034,2.9597,1.246,4.3799,1.9265,.1554,.081,.2737,.2141,.3537,.4,.0793,.1859,.0746,.3686-.014,.5479l-3.0675,6.6262c-.0895,.1796-.2387,.3051-.4476,.3764-.2095,.0717-.3997,.0515-.5707-.0615-2.1888-1.3442-4.2403-2.3645-6.1547-3.0606-.7894-.3019-1.5102-.4424-2.1626-.4207-.6529,.0222-1.1633,.1655-1.5327,.4312-.3691,.2658-.6462,.5112-.8299,.7364-.1843,.2253-.3171,.4552-.399,.6894-.0738,.2111-.1133,.4737-.1177,.788-.0049,.3141,.06,.7316,.1937,1.2523,.1339,.5205,.4652,1.0972,.9942,1.7294,.5289,.6328,1.2328,1.2344,2.1127,1.805,.9801,.6586,1.876,1.4654,2.6872,2.4204,.811,.9548,1.4881,2.0473,2.032,3.2769,.5432,1.23,.8355,2.6155,.876,4.1559,.0398,1.5405-.2186,3.1085-.7763,4.7031Z"/><path class="cls-2" d="M229.8165,608.2177c-.247,0-.4951-.042-.7363-.1259l-8.5142-2.9776c-.5595-.1943-1.0092-.5947-1.2641-1.126-.2544-.5263-.2871-1.1269-.0908-1.6875l1.5356-4.3916c-1.0806-.458-2.082-.9169-2.9888-1.3701-.5092-.2636-.8725-.6787-1.0713-1.2099-.1909-.5108-.1958-1.0557-.0136-1.5752,.0161-.0459,.0342-.0908,.0542-.1338l3.0674-6.627c.291-.6054,.7836-1.0263,1.3964-1.2041,.6045-.1777,1.2491-.0888,1.8057,.2549,.4624,.2901,.9355,.5674,1.4292,.8408,.5,.2764,1.1597,.6143,1.9751,1.0147,.7866,.3857,1.5352,.7031,2.2241,.9443,.6612,.251,1.2036,.3692,1.6533,.3506,.5108-.0176,.668-.1279,.6744-.1328,.3183-.2334,.4638-.3916,.5214-.4639,.1231-.1552,.1519-.2334,.1519-.2344,.0127-.0361,.043-.1435,.0459-.3515,.0015-.084-.0093-.3418-.1362-.8779-.0376-.1592-.1748-.5157-.6675-1.1055-.4297-.5147-1.0278-1.0215-1.7783-1.5078-1.1285-.7178-2.1587-1.6328-3.0508-2.7129-.8784-1.0635-1.6275-2.2783-2.2261-3.6123-.626-1.3916-.9712-2.9824-1.0249-4.7295-.0532-1.7334,.2324-3.5059,.8482-5.2686,.894-2.5547,2.3369-4.5146,4.29-5.8281,1.6704-1.123,3.6582-1.7656,5.9199-1.916l1.9736-5.6426c.19-.5439,.5606-.9765,1.0723-1.251,.5454-.2929,1.1675-.3427,1.7515-.1406l8.5151,2.9785c.5591,.1953,1.0122,.6026,1.2744,1.1475,.2627,.5439,.2993,1.1523,.104,1.7119l-1.5376,4.3955c1.064,.4512,2.1167,.9258,3.1436,1.417,.5083,.2647,.8667,.6572,1.0835,1.1592,.2544,.5976,.2363,1.2383-.0484,1.8105l-3.0493,6.5879c-.2856,.5762-.7378,.9668-1.3247,1.167-.6533,.2207-1.3227,.1416-1.8823-.2305-2.0474-1.2568-4.0264-2.2421-5.8398-2.9023-.6221-.2363-1.1519-.3477-1.6006-.3311-.4981,.0176-.6739,.127-.7036,.1485-.3594,.2588-.501,.4131-.545,.4678-.0918,.1113-.1303,.1904-.1465,.2373-.0014,.0029-.0307,.0898-.0336,.3134-.0015,.083,.0102,.3282,.1464,.8584,.0435,.169,.1914,.5411,.6919,1.1407,.4312,.5156,1.0293,1.0224,1.7779,1.5078,1.1098,.7451,2.1172,1.6513,3.0151,2.709,.8984,1.0566,1.6592,2.2822,2.2598,3.6406,.6215,1.4062,.959,2.9951,1.0039,4.7236,.0444,1.7168-.2447,3.4785-.8594,5.2373h0c-.9605,2.7451-2.3848,4.8164-4.2344,6.1572-1.6303,1.1817-3.667,1.8018-6.0674,1.8487l-1.894,5.416c-.1973,.5605-.5957,1.0078-1.1235,1.2627-.3013,.1455-.6255,.2187-.9527,.2187Zm-7.5122-5.6738l7.0181,2.4541,1.9897-5.6894c.2202-.6289,.8369-1.0264,1.4932-1.003,2.1909,.1094,3.9756-.3125,5.2881-1.2636,1.3447-.9746,2.4087-2.5616,3.1631-4.7178h0c.4946-1.4141,.7275-2.8174,.6924-4.169-.0347-1.3359-.2867-2.5429-.7486-3.5888-.4839-1.0938-1.0903-2.0733-1.8027-2.9112-.7193-.8476-1.52-1.5693-2.3804-2.1474-.9805-.6348-1.8042-1.3418-2.4272-2.0879-.6802-.8135-1.104-1.5713-1.2959-2.3184-.1695-.6572-.2481-1.1972-.2412-1.6494,.0068-.4775,.0727-.8896,.2016-1.2588,.1406-.4013,.3609-.7861,.6548-1.1455,.2651-.3252,.6304-.6543,1.1143-1.0029,.6088-.4395,1.4028-.6797,2.3569-.7129,.8491-.0303,1.7749,.1465,2.75,.5186,1.7568,.6396,3.6572,1.5566,5.6426,2.7255l2.375-5.1318c-1.1563-.5371-2.3711-1.0644-3.5928-1.5557-.7437-.2988-1.1206-1.1298-.856-1.8867l1.7569-5.0215-7.0537-2.4668-2.0635,5.9004c-.2105,.6016-.7788,1.0049-1.416,1.0049-.0078,.001-.0161,0-.0244,0-2.0948,0-3.877,.4844-5.2984,1.4404-1.4233,.9561-2.4477,2.3721-3.1318,4.3282-.4942,1.4131-.7232,2.8222-.6812,4.1865,.0415,1.3516,.2979,2.5596,.7622,3.5918,.4888,1.0889,1.0953,2.0752,1.8028,2.9316,.6914,.8369,1.4848,1.543,2.3589,2.0987,1.0131,.6572,1.8369,1.3642,2.4589,2.1084,.6871,.8222,1.1075,1.5869,1.2852,2.3388,.1519,.6426,.2227,1.1699,.2168,1.6123-.0073,.4776-.0796,.9131-.2139,1.2979-.1284,.3681-.3418,.7412-.6338,1.1094-.2739,.3437-.6338,.6777-1.101,1.0205-.6011,.4384-1.3887,.6757-2.3438,.709-.8579,.0253-1.7881-.1514-2.7847-.5313-.7612-.2656-1.621-.6299-2.5146-1.0684-.8696-.4257-1.5713-.7871-2.106-1.082-.2802-.1553-.5542-.3115-.8217-.4697l-2.3809,5.1435c1.0205,.4864,2.1704,.9864,3.417,1.4854,.7456,.2978,1.1245,1.1299,.8594,1.8877l-1.7437,4.9863Zm20.3682-9.7246h0Zm3.8286-19.8057c.0112,.0069,.022,.0137,.0332,.0205-.0107-.0068-.0215-.0136-.0332-.0205Zm1.9727-6.2724c-.0044,.0088-.0093,.0185-.0132,.0283l.0132-.0283Z"/></g></g></svg>