<?xml version="1.0" encoding="UTF-8"?><svg id="Financial_Portfolio" xmlns="http://www.w3.org/2000/svg" viewBox="0 0 1665.3918 879.6321"><defs><style>.cls-1{fill:#202d37;}.cls-2{fill:#00986d;}.cls-3{fill:#fff6e8;}</style></defs><g><path class="cls-2" d="M599.6285,711.9457c-31.2161,17.4136-125.9096,62.571-157.1497,77.3038-4.6251,2.1812-17.2739,.51-32.0145-5.1074-68.2818-26.0217-250.9551-90.4128-255.7962-101.2388-4.8411-10.8259-46.4559-141.5417-60.2466-177.1171-13.8026-35.5636-12.7098-52.6208,4.3237-62.4204,17.0453-9.7995,106.9282-36.2287,106.9282-36.2287l-11.6644-23.6497s-124.8882,42.9163-159.8817,55.4597C-.8661,451.4787,.4405,455.9212,7.4962,479.4164c7.0439,23.4953,63.1608,172.0861,71.5429,189.0547,12.7477,25.8064,69.9037,29.0305,69.9037,29.0305,0,0,5.1314,60.9117,14.3727,75.6289,9.2413,14.7173,153.99,72.8853,209.426,90.6788,55.4359,17.7937,84.5258,14.0283,113.6157,3.0765,29.078-10.9519,186.8335-104.0181,187.5224-108.8169,.6771-4.7871-.3445-74.2512-2.0549-80.7605,0,0-40.9801,17.2117-72.1962,34.6371Z"/><g><path class="cls-3" d="M818.0582,439.1311v.006c6.7588-6.8537,17.0215-13.9094,29.0781-20.2167-12.0571,6.306-22.3263,13.3661-29.0781,20.2106Z"/><path class="cls-3" d="M1599.8628,186.1773C1367.9675-161.1281,906.0442,26.9673,829.0558,346.2173c1.8578,2.3024,3.6376,5.6683,5.3824,10.4016,53.5116,2.3756,83.825,11.7713,96.9862,21.262,22.8419,16.4752,79.5726,142.0167,79.5726,142.0167v.0119c2.34-1.0927,4.573-2.2093,6.6637-3.3378,0,0,14.9071,18.5896,19.9791,46.4916,20.4187,0,48.1547,40.4337,51.6587,58.1561,.9978,5.0602,2.8508,11.6881,5.1196,18.6013,56.8257-84.5733,126.1353-183.5432,126.1353-183.5432l-.3445-193.9485s-94.3252-15.9644-96.8079-26.6906c-2.3044-9.9777,74.9044-62.5035,144.1431-100.0626-1.9839,16.2614,15.1328,31.4775,40.0891,30.5391,15.418-.582,38.7469-11.2725,43.1182-4.4662,4.3711,6.7943-5.5116,27.5338,4.7039,46.1708,10.2034,18.6252,26.5598,38.8776,33.366,39.5309,3.7299,.3563,12.7336-4.6088,20.0862-11.4032,23.2222-2.34,45.6602,8.9207,44.3654,20.787-2.3282,21.179-61.4821,23.7922-61.4821,23.7922,0,0-8.7065,85.8325-4.3593,161.5327,0,0,11.8901,11.5932,16.5345,21.4641,4.6445,9.8589,25.9065,41.7521,49.3542,66.9816,27.4508,29.5531,64.119,88.3863,82.0791,167.0917,127.0023-134.3433,183.733-332.7937,64.4634-511.4193Z"/><path class="cls-3" d="M922.8484,618.9863c.9382-9.0394,.9382-22.7469-8.1011-40.6713-9.0393-17.9363-7.4478-30.159-7.4478-30.159-5.7017,0-42.4648-17.1047-54.4382-30.8716-4.0385,1.9599-9.2057,3.2783-15.5366,3.5872-3.9199,.1901-7.4714,.1188-10.6667-.19,12.2821,58.7025,38.1768,119.1035,80.5348,179.3501,5.167,7.3528,10.4528,14.4202,15.8694,21.2146-1.0216-7.5308-2.1263-15.9407-3.326-25.277-7.1744-56.1012,2.1858-67.9437,3.1123-76.983Z"/></g><path class="cls-1" d="M1272.5368,197.0207c-2.6659-.8197-5.4916,.6768-6.3113,3.3427l-3.7972,12.3487c-.8198,2.6659,.6768,5.4915,3.3425,6.3113h.0001c2.6658,.8198,5.4915-.6768,6.3113-3.3427l3.7972-12.3486c.8198-2.6659-.6768-5.4916-3.3427-6.3114Z"/><path class="cls-1" d="M1309.1504,204.1431c-2.6658-.8198-5.4915,.6768-6.3113,3.3427l-3.7972,12.3487c-.8198,2.6659,.6768,5.4916,3.3427,6.3113,2.666,.8198,5.4915-.6768,6.3113-3.3426l3.7974-12.3487c.8198-2.6659-.6768-5.4916-3.3428-6.3113Z"/><g><path class="cls-1" d="M1404.3763,198.2582c9.8824-6.4803,13.4182-28.1942-6.8044-33.8598,6.9663-14.0946-2.4769-38.3584-23.4912-38.7199,6.8044-20.089-11.0166-38.2339-31.4294-26.2453-2.1062-15.5528-28.6755-24.4633-37.1,2.4301-21.223-16.3629-38.1576,4.6982-24.7018,13.9069-28.2117,20.5339-8.5894,51.6724,26.778,50.3423,15.4208-.58,38.7499-11.2725,43.1241-4.4682,4.3743,6.8044-5.5083,27.5414,4.6982,46.1724,10.2064,18.6309,26.5693,38.8819,33.3737,39.53,6.8043,.6479,31.1033-16.359,31.1056-29.9716,.0032-19.1169-15.0667-19.279-15.5527-19.1169Z"/><path class="cls-1" d="M1415.1468,198.2624c-1.209-.8716-2.4941-1.5557-3.7617-2.0796,3.4268-4.8438,5.0947-11.3628,4.1484-17.4731-1.1494-7.4279-5.9531-13.2549-13.3789-16.4107,2.4775-8.0727,1.1162-17.853-3.8135-25.9429-4.585-7.5244-11.6602-12.3881-19.8291-13.7739,1.8916-9.8618-1.2266-19.5078-8.4766-25.4088-6.958-5.6645-16.1221-6.6118-25.1553-2.7787-2.9375-7.1079-10.1602-12.48-18.415-13.1797-9.7549-.8188-17.9893,4.8052-22.623,15.2534-7.4258-4.4228-15.1162-5.3779-21.6035-2.5649-5.4365,2.3584-9.1279,7.1006-9.6328,12.376-.3242,3.3847,.7031,6.6152,2.8799,9.2925-10.0918,8.809-13.9004,20.067-10.2012,30.7485,5.0889,14.6943,22.168,24.0454,42.4746,23.2895,6.3467-.2387,13.6348-2.0161,20.6826-3.7348,5.2598-1.2827,10.2275-2.4942,14.0918-2.8711,4.5869-.4483,5.2676,.5234,5.2734,.5327,1.0586,1.647,.5703,6.5332,.0986,11.2588-.9463,9.4702-2.2432,22.4409,4.4746,34.7026,8.833,16.1231,26.4189,40.4092,36.1113,41.3325,.2207,.021,.4473,.0313,.6816,.0313,5.6143-.001,15.0518-5.915,21.7568-12.0103,4.667-4.2431,12.498-12.6757,12.499-21.476,.002-10.8614-4.5029-16.3887-8.2822-19.1133Zm-8.9258,35.4097c-7.6104,6.9194-15.3008,10.3846-17.0654,10.1899-4.1533-.3955-19.5303-17.4541-30.6367-37.7271-5.6748-10.3603-4.5508-21.6064-3.6484-30.6435,.6729-6.7266,1.2031-12.04-1.1748-15.7398-1.8135-2.8208-4.9629-3.8447-9.001-3.8447-4.9219,0-11.1641,1.5225-17.9111,3.1675-6.71,1.6362-13.6484,3.3286-19.2881,3.5405-16.9658,.6333-31.5859-7.0052-35.5957-18.5849-3.0615-8.8404,.9512-18.1089,11.0098-25.4302,.9199-.669,1.457-1.7432,1.4404-2.8804-.0166-1.1371-.585-2.1953-1.5234-2.8373-2.3457-1.6055-3.4707-3.6577-3.252-5.9355,.2578-2.6978,2.3975-5.2969,5.4502-6.6211,5.207-2.2574,11.9092-.687,18.3896,4.3095,.9072,.6993,2.0986,.9102,3.1885,.5665,1.0918-.3443,1.9463-1.1998,2.2881-2.2921,3.1338-10.003,9.3135-15.3653,16.9834-14.7193,6.6494,.5635,12.4951,5.708,13.3076,11.713,.1572,1.1606,.8848,2.1655,1.9385,2.6777,1.0537,.5127,2.292,.4629,3.3027-.1293,7.7559-4.5538,15.4814-4.4991,21.1943,.1508,5.9922,4.8775,8.0127,13.4947,5.1475,21.9532-.3584,1.0585-.1895,2.2245,.4541,3.1381,.6426,.9136,1.6836,1.4654,2.8008,1.4844,10.332,.1777,15.9277,6.856,18.3438,10.8208,4.4131,7.2432,5.2451,16.4253,2.0703,22.8486-.4619,.9336-.4834,2.0245-.0596,2.9756,.4248,.9512,1.25,1.6646,2.2529,1.9453,8.751,2.4522,11.3496,7.8858,11.9883,12.0123,.9072,5.8608-1.7979,12.6913-6.1582,15.5507-1.4707,.9639-1.998,2.8697-1.2314,4.4527,.6582,1.3593,2.0908,2.1162,3.5449,1.9521,.5459,.0147,4.4102,.231,7.499,3.2232,2.7607,2.6738,4.1602,6.851,4.1592,12.4155-.001,4.46-3.7217,10.4004-10.208,16.2974Zm-.7383-32.0938c-.002,.001-.0049,.0015-.0068,.0024,.002-.0009,.0049-.0014,.0068-.0024Zm-.0088,.0034c-.002,.0005-.0039,.001-.0059,.0015,.002-.0005,.0039-.001,.0059-.0015Z"/></g><path class="cls-1" d="M1455.886,528.1281c-23.126-24.8818-44.3369-56.7178-48.7529-66.1006-4.1064-8.7265-13.2539-18.4238-16.2783-21.5-3.6729-66.3642,2.6826-141.0127,4.1309-156.6811,13.4053-.8853,59.4326-5.4688,61.7627-26.7251,.5781-5.2837-2.2422-10.6158-7.9443-15.0137-11.4854-8.8618-34.8975-13.9868-55.6592-6.0366-1.8047,.6914-2.708,2.7153-2.0166,4.5205,.6914,1.8042,2.7129,2.706,4.5205,2.0166,17.7119-6.7847,38.7617-2.7637,48.8799,5.042,2.1406,1.6509,5.6699,4.9775,5.2607,8.7085-1.4502,13.2373-36.4424,19.7007-58.1582,20.6655-1.7354,.0772-3.1514,1.4155-3.3271,3.1436-.0869,.8613-8.6777,86.9887-4.3623,162.0903,.0498,.8711,.4248,1.6934,1.0498,2.3037,.1143,.1113,11.4971,11.2842,15.8076,20.4463,4.7031,9.9922,26.0059,42.1133,49.96,67.8857,33.5498,36.0967,74.1543,107.3555,87.499,199.0987,.2539,1.7422,1.749,2.9971,3.46,2.9961,.167,0,.3369-.0117,.5078-.0361,1.9131-.2783,3.2383-2.0547,2.96-3.9678-13.5762-93.335-55.0312-165.9874-89.2998-202.8564Z"/><path class="cls-1" d="M1281.7132,124.1169c-34.7119,17.9482-75.2725,42.0537-108.5,64.4819-55.6016,37.5303-53.9336,44.7432-53.2217,47.8233,.6748,2.916,3.3818,6.2949,18.4951,11.2368,8.2383,2.6933,19.5049,5.6411,33.4854,8.7607,18.8379,4.2031,37.6768,7.6084,44.7373,8.8495l.3477,189.9126c-7.1201,10.1787-72.2266,103.3408-125.54,182.6895-1.0781,1.6045-.6514,3.7793,.9531,4.8574,.5996,.4023,1.2773,.5947,1.9492,.5947,1.126,0,2.2324-.543,2.9082-1.5479,56.1523-83.5752,125.4053-182.4971,126.0986-183.4864,.4131-.5898,.6338-1.2939,.6328-2.0146l-.3545-193.9575c-.0029-1.7056-1.2344-3.1602-2.916-3.4449-.2236-.0375-22.6514-3.8457-45.584-8.9057-39.3682-8.686-46.835-13.6216-48.2393-15.0811,1.4033-3.4926,13.7715-16.1128,52.7236-42.2055,32.4941-21.7661,71.8359-45.0728,105.2393-62.3452,1.7168-.8878,2.3896-2.9996,1.502-4.7164-.8887-1.7172-3.001-2.3901-4.7168-1.5014Z"/><path class="cls-1" d="M1222.7649,453.5646c-1.5-1.2187-3.7041-.9912-4.9229,.5108-1.2188,1.5-.9902,3.7041,.5107,4.9228,9.1006,7.3907,33.2734,28.7198,35.7949,38.5274,3.1543,12.2705-2.8965,44.0976-13.8633,99.2968-11.665,58.713-13.042,189.6817-12.3926,221.503,.0391,1.9082,1.5977,3.4287,3.498,3.4287,.0234,0,.0479,0,.0723-.001,1.9326-.0391,3.4678-1.6377,3.4277-3.5703-.6455-31.6543,.708-161.8506,12.2598-219.9971,11.4883-57.8193,17.3184-88.6328,13.7773-102.4023-3.5459-13.793-34.6289-39.3506-38.1621-42.2188Z"/><path class="cls-1" d="M1385.513,439.1321c-5.7695,3.7949-56.4932,37.6094-60.792,56.3661-5.0371,21.9805-9.0449,121.8419-9.7969,141.6368-1.8457,48.5352-7.041,137.0703-7.0938,137.959-.1133,1.9297,1.3594,3.5859,3.2891,3.6992,.0693,.0039,.1387,.0059,.208,.0059,1.8389,0,3.3818-1.4346,3.4912-3.2949,.0518-.8887,5.252-89.4951,7.0996-138.1035,2.0674-54.3809,5.8281-123.7657,9.625-140.3379,3.1123-13.5781,42.79-42.1992,57.8154-52.0821,1.6152-1.0615,2.0635-3.2324,1.001-4.8466-1.0615-1.6143-3.2314-2.0635-4.8467-1.002Z"/><path class="cls-1" d="M1411.8831,492.2463c-1.8145-.6602-3.8252,.2685-4.4902,2.084-11.6367,31.791-30.7939,44.0507-37.9727,43.3076-1.3066-.1377-2.6953-.6465-3.0859-3.3799-1.6416-11.4951-9.8369-26.919-19.0625-35.877-1.3877-1.3476-3.6025-1.3144-4.9492,.0723-1.3467,1.3867-1.3145,3.6025,.0723,4.9492,7.9775,7.7471,15.6084,22.0322,17.0098,31.8457,.7607,5.3252,4.2324,8.8214,9.2852,9.3506,.4531,.0479,.915,.0713,1.3867,.0713,12.9326,0,32.8379-17.7402,43.8906-47.9336,.6641-1.8154-.2686-3.8252-2.084-4.4902Z"/><path class="cls-1" d="M1316.1312,518.2101c-.3672,.0577-36.8916,5.5586-56.6201-4.7421-1.7139-.8956-3.8281-.2315-4.7227,1.4824-.8945,1.7138-.2305,3.8281,1.4824,4.7226,10.7822,5.6289,25.457,7.0772,37.7119,7.0772,12.46,0,22.418-1.4981,23.2188-1.6221,1.9102-.2959,3.2197-2.084,2.9238-3.9941-.2959-1.9102-2.0898-3.2256-3.9941-2.9239Z"/><path class="cls-1" d="M1247.0804,494.7707c-9.8369,.915-17.3809,15.1816-24.6758,28.9775-2.085,3.9424-4.0547,7.666-5.918,10.7393-1.4795,2.4404-2.8545,2.6904-3.8916,2.6484-5.9756-.2803-14.9795-11.4775-17.8906-17.4824-.8428-1.7383-2.9355-2.4668-4.6768-1.6221-1.7393,.8438-2.4648,2.9366-1.6221,4.6768,2.6895,5.5459,13.3398,20.9267,23.8623,21.4199,.1709,.0078,.3447,.0127,.5234,.0127,2.8672,0,6.7041-1.1143,9.6816-6.0244,1.9688-3.2481,3.9854-7.0596,6.1191-11.0957,5.5156-10.4307,13.0703-24.7158,19.1367-25.2793,1.9248-.1797,3.3398-1.8848,3.1611-3.8096-.1797-1.9247-1.876-3.3349-3.8096-3.1611Z"/><path class="cls-1" d="M1310.0726,267.4675c-1.8877-.4336-3.7637,.7358-4.2002,2.6191-1.8799,8.105-7.5957,15.5498-14.917,19.4302-4.5381,2.4043-11.7822,4.5615-20.542,1.1821-1.8027-.6978-3.8291,.2017-4.5254,2.0054-.6953,1.8032,.2021,3.8291,2.0059,4.5249,3.792,1.4634,7.6963,2.1909,11.5742,2.1909,5.0723,0,10.0996-1.2456,14.7646-3.7183,9.1982-4.8745,16.0986-13.8593,18.458-24.0341,.4375-1.8829-.7354-3.7632-2.6182-4.2002Z"/><path class="cls-1" d="M1435.094,251.7819c-11.9922-3.0835-30.8965,.9229-39.1533,6.4273-1.6084,1.0717-2.043,3.2451-.9707,4.8535,.6748,1.0117,1.7842,1.5591,2.915,1.5591,.667,0,1.3418-.1905,1.9385-.5884,6.1426-4.0952,22.9258-8.1973,33.5283-5.4722,1.8652,.4789,3.7793-.6461,4.2607-2.5181,.4814-1.872-.6455-3.7797-2.5186-4.2612Z"/><path class="cls-1" d="M1136.6771,674.7141c-6.6055-7.5752-14.5518-4.165-19.2988-2.127-1.3164,.5645-3.248,1.3936-4.0752,1.4414-4.2734-3.7002-17.0107-35.4893-20.5723-53.4902-1.9092-9.6426-10.0234-24.6075-20.1934-37.2364-7.1387-8.8652-21.1641-23.7373-34.8965-23.7373-1.9326,0-3.5,1.5674-3.5,3.5s1.5674,3.5,3.5,3.5c18.1709,0,44.8701,38.3946,48.2227,55.3331,1.7314,8.75,6.0205,22.4082,10.9258,34.7949,8.9395,22.5723,12.8174,23.6299,14.4727,24.082,2.9277,.7979,5.8174-.4424,8.877-1.7549,5.5664-2.3887,8.3164-3.085,11.2617,.2939,7.6602,8.7861,12.458,37.7041,13.6602,48.1055,.2061,1.7842,1.7188,3.0986,3.4727,3.0986,.1338,0,.2695-.0078,.4053-.0234,1.9199-.2217,3.2969-1.958,3.0752-3.8779-.1855-1.6143-4.6855-39.6846-15.3369-51.9023Z"/><path class="cls-1" d="M1012.4394,523.0901c-.46,.21-.9501,.31-1.4401,.31-1.3298,0-2.5999-.76-3.1899-2.06-19.49-43.13-60.96-128.02-78.4299-140.62-7.1101-5.13-29.8701-17.09-89.99-20.36-2.27-.12-4.6001-.23-6.98-.33-.1702-.01-.3301-.03-.49-.06-.25-.74-.51-1.46-.76-2.14-.4701-1.27-.9301-2.41-1.3801-3.43,.66-.87,1.73-1.42,2.92-1.36,1.41,.06,2.7999,.12,4.1801,.19,61.78,3,87,14.89,96.6,21.81,23.33,16.84,78.38,138.26,80.71,143.42,.7999,1.76,.01,3.83-1.75,4.63Z"/><path class="cls-1" d="M859.4694,477.4801c-4.25,10.9-19.08,18.47-39.6801,20.24-2.0699,.18-4.02,.26-5.86,.26-16.6901,0-23.99-6.85-26.95-11.24-3.12-4.62-4.1901-10.33-3.2101-16.2,.4601-2.74,1.3701-5.52,2.73-8.25,.4801-.15,.9601-.31,1.4301-.46,1.1901-.39,2.38-.77,3.5599-1.16,1.5901,.92,2.1901,2.93,1.3501,4.6-.46,.9-.8501,1.8-1.1699,2.71-1.9701,5.42-1.6101,10.82,1.1099,14.84,4.1901,6.22,13.5701,9.04,26.41,7.93,17.35-1.5,30.6-7.7,33.76-15.81,1.9601-5.04-.72-9.49-3.33-12.33-1.3-1.42-1.2-3.64,.22-4.94,1.4299-1.31,3.64-1.21,4.95,.22,5.5701,6.08,7.23,13.04,4.6801,19.59Z"/><path class="cls-1" d="M849.3177,481.8986c-1.8691-.4639-3.7734,.6748-4.2412,2.5518-.4668,1.876,.6758,3.7744,2.5518,4.2412,8.335,2.0732,13.5156,7.7734,12.8916,14.1836-.6016,6.1816-7.083,13.6875-23.3701,14.498-20.1201,1.0186-27.3364-5.374-29.8486-9.2656-2.4976-3.8691-2.6245-8.6309-.3491-13.0645,.8828-1.7197,.2041-3.83-1.5156-4.7128-1.7217-.8799-3.8301-.2041-4.7119,1.5156-3.3979,6.6211-3.1377,14.1191,.6958,20.0576,3.1182,4.8311,11.3066,12.5723,31.7368,12.5723,1.3892,0,2.8364-.0362,4.3403-.1104,20.7412-1.0342,29.1182-11.8574,29.9902-20.8115,.9736-10.0068-6.3281-18.71-18.1699-21.6553Z"/><path class="cls-1" d="M1018.0745,514.3527c-1.8145-.6572-3.6328-.3788-4.9951,.7559-20.8027,17.3789-100.0547,29.5508-105.7656,29.5508-4.4326-.1534-39.9814-16.0538-51.8203-29.6788-1.2666-1.457-3.4766-1.6152-4.9375-.3457-1.459,1.2676-1.6143,3.4786-.3457,4.9375,12.3984,14.2686,50.3506,32.087,57.0918,32.087,6.2852,0,84.6689-11.5811,109.1045-30.252,3.75,3.1191,13.5859,19.1572,17.791,42.2832,.3076,1.6904,1.7803,2.875,3.4395,2.875,.208,0,.418-.0185,.6299-.0576,1.9023-.3457,3.1631-2.168,2.8174-4.0693-4.4287-24.3564-15.8008-45.4756-23.0098-48.086Z"/><path class="cls-1" d="M923.2063,695.5315c-5.5811-43.6816-1.1133-59.6494,1.5557-69.1895,.7217-2.5801,1.3447-4.8076,1.5713-6.9912,.9512-9.2032,1.1094-23.6338-8.46-42.6161-8.3467-16.5557-7.1172-27.9776-7.0986-28.1397,.2402-1.9102-1.1094-3.6572-3.0205-3.9062-1.9121-.2441-3.6738,1.1005-3.9229,3.0186-.0703,.542-1.623,13.5029,7.792,32.1777,8.7412,17.3418,8.6084,30.418,7.7471,38.7452-.165,1.5918-.6875,3.46-1.3496,5.8252-2.8115,10.0518-7.5186,26.874-1.7578,71.9629,7.0986,55.5488,11.207,78.4951,11.248,78.7207,.3057,1.6914,1.7793,2.8789,3.4404,2.8789,.2061,0,.415-.0186,.626-.0566,1.9014-.3438,3.166-2.1641,2.8223-4.0664-.04-.2236-4.123-23.0371-11.1934-78.3633Z"/><path class="cls-1" d="M1039.2981,559.9816c-1.7021-.914-3.8242-.2754-4.7402,1.4258-25.4111,47.2754-111.0967,54.0293-111.959,54.0918-1.9277,.1406-3.377,1.8164-3.2373,3.7441,.1328,1.8418,1.6689,3.2471,3.4863,3.2471,.085,0,.1699-.0029,.2559-.0088,3.6777-.2656,90.3818-7.0869,117.6201-57.7598,.915-1.7032,.2764-3.8252-1.4258-4.7403Z"/><path class="cls-1" d="M560.5867,254.9709c-20.5884,19.2549-54.2021,50.0986-60.5278,54.438-1.2559-.3902-3.5894-1.3726-5.3814-2.127-5.4106-2.2787-11.5459-4.855-15.7055-4.5405-3.7315,.2871-13.3911,7.5283-46.982,35.2192-8.5029,7.0093-17.2949,14.2569-18.8579,15.169-2.0127,1.1186-12.625,1.0014-19.6469,.9228-8.5044-.0927-17.2959-.1909-22.9712,.8594-10.1704,1.8833-15.4361,9.5571-32.8824,34.9824-5.4091,7.8828-12.1406,17.6934-20.6059,29.6685-1.1157,1.5786-.7407,3.7627,.8374,4.8784,.6138,.4341,1.3188,.6426,2.0176,.6426,1.0976,0,2.1792-.5157,2.8608-1.48,8.4937-12.0151,15.2407-21.8482,20.662-29.749,17.0454-24.8413,21.3374-30.7549,28.3848-32.0601,5.0058-.9267,13.4526-.832,21.6191-.7422,12.5557,.1406,19.8277,.1206,23.2495-1.875,1.9629-1.145,8.1343-6.2104,19.7857-15.8154,13.5757-11.1914,38.7217-31.9209,43.2788-33.6509,.022,0,.0439-.0005,.0664-.0005,2.6196,0,8.3408,2.4092,12.1733,4.023,4.4214,1.8613,6.814,2.833,8.6407,2.833,1.8726,0,3.226,0,34.6679-28.6841,15.062-13.7407,29.9497-27.6602,30.0982-27.7993,1.4121-1.3203,1.4858-3.5352,.1655-4.9468-1.3198-1.4111-3.5352-1.4868-4.9468-.1655Z"/><g><path class="cls-1" d="M548.8608,248.2098c-1.4717,1.9911,16.2443,29.6098,19.9455,28.7873,3.7013-.8225,14.805-29.1986,12.9543-31.2548-1.8506-2.0563-29.4042-2.2619-32.8998,2.4675Z"/><path class="cls-1" d="M564.7723,242.9797c-6.5806,.3169-14.8921,1.3271-17.1177,4.3383-.5073,.6866-1.6953,2.2935,6.9834,15.6436,6.7095,10.3198,11.4477,15.542,14.0991,15.542,.1372,0,.2691-.0142,.395-.042,4.8369-1.0752,12.5806-24.1504,12.6548-24.3828,2.2979-7.1816,1.7979-8.5523,1.0884-9.3399-2.2441-2.4931-17.9443-1.7675-18.103-1.7592Zm3.8012,32.499c-3.6049-1.3428-17.4731-22.6816-18.2646-26.645,3.6226-3.3736,26.3247-3.6656,30.1811-2.1114,.21,4.3536-9.1674,26.9415-11.9165,28.7564Z"/></g><path class="cls-1" d="M329.6439,318.925c-5.314-.6157-76.0704,20.02-106.7774,32.5073-1.7905,.728-2.6518,2.77-1.9238,4.5606,.5527,1.3588,1.8618,2.1826,3.2436,2.1826,.439,0,.8853-.0835,1.3169-.2588,32.6582-13.2808,98.1553-31.6143,103.5669-32.0195,1.8223,.0995,3.4248-1.2496,3.6411-3.0875,.2256-1.9194-1.1474-3.6586-3.0673-3.8847Zm-.8174,6.9521c.0488,.0059,.1084,.0132,.1782,.0166-.0698-.0034-.1294-.0107-.1782-.0166Z"/><path class="cls-1" d="M192.8709,380.1735c-1.249,.4297-125.311,43.0762-159.9214,55.4741-17.0421,6.1045-27.022,10.7334-30.9507,17.7002-3.9023,6.919-1.497,14.9375,2.1441,27.0743,7.2348,24.1152,65.1504,173.5087,71.6611,189.373,9.916,24.1611,49.1665,28.749,60.96,29.5791,.084,.0059,.167,.0088,.2495,.0088,1.8213,0,3.3579-1.4092,3.4878-3.2539,.1357-1.9287-1.3169-3.6016-3.2451-3.7373-22.2086-1.5645-48.3135-9.0195-54.9766-25.2549-6.4951-15.8262-64.2407-164.7559-71.4316-188.7266-3.2369-10.7881-5.1906-17.3007-2.752-21.624,2.4727-4.3848,9.8486-8.3281,27.2139-14.5488,34.5683-12.3828,158.5879-55.0147,159.8364-55.4439,1.8281-.6284,2.8008-2.6196,2.1724-4.4477-.6285-1.8272-2.6172-2.8013-4.4478-2.1724Z"/><path class="cls-1" d="M68.6473,448.6027H7.3382c-1.9331,0-3.5,1.5674-3.5,3.5s1.5669,3.5,3.5,3.5h61.3091c1.9331,0,3.5-1.5674,3.5-3.5s-1.5669-3.5-3.5-3.5Z"/><path class="cls-1" d="M204.6888,403.7775c-3.6865,1.084-90.4864,26.6612-107.6846,36.5528-21.5278,12.3837-17.9087,35.6308-5.8516,66.7255,13.6011,35.0762,59.7217,175.5255,60.1856,176.9405,.4839,1.4736,1.8535,2.4092,3.3252,2.4092,.3618,0,.7295-.0566,1.0918-.1758,1.8369-.6025,2.8369-2.5801,2.2344-4.417-.4649-1.416-46.6431-142.041-60.3106-177.2881-14.918-38.4727-9.9829-50.7647,2.8154-58.126,16.4844-9.4819,105.274-35.6421,106.169-35.9053,1.8545-.5454,2.916-2.4907,2.3706-4.3452-.5454-1.854-2.4893-2.915-4.3452-2.3706Z"/><path class="cls-1" d="M429.594,787.967c-2.832-1.498-47.5112-18.4629-120.1757-46.0166-59.9082-22.7178-121.8555-46.208-139.2945-53.2188-1.7944-.7246-3.8315,.1484-4.5532,1.9414-.7207,1.7939,.1484,3.832,1.9419,4.5527,17.5034,7.0371,79.4839,30.54,139.4238,53.2695,57.1167,21.6592,116.1778,44.0547,119.3833,45.6592,.522,.2764,1.0821,.4072,1.6343,.4072,1.2549,0,2.4683-.6777,3.0962-1.8643,.9043-1.708,.2524-3.8262-1.4561-4.7305Z"/><path class="cls-1" d="M670.4661,674.0862c-.4116,.1729-41.52,17.4814-72.5449,34.7969-31.3203,17.4824-117.7168,60.333-156.8286,77.1475-1.7759,.7637-2.5967,2.8223-1.833,4.5986,.5698,1.3252,1.8603,2.1182,3.2168,2.1182,.4614,0,.9301-.0918,1.3808-.2852,39.272-16.8838,126.0254-59.9111,157.4756-77.4658,30.6782-17.123,71.4351-34.2842,71.8433-34.4551,1.7822-.749,2.6206-2.7998,1.8721-4.582-.7486-1.7832-2.7999-2.6211-4.5821-1.873Z"/><path class="cls-1" d="M441.1092,805.3137c-1.9287-.1875-3.6309,1.2334-3.8115,3.1572-2.4258,25.877-1.0381,67.3574-1.024,67.7734,.065,1.8906,1.6187,3.3799,3.4961,3.3799,.0406,0,.0811-.001,.1221-.002,1.9321-.0664,3.4443-1.6865,3.3779-3.6182-.0141-.4121-1.3867-41.4512,.9976-66.8789,.1802-1.9248-1.2334-3.6318-3.1582-3.8115Z"/><path class="cls-1" d="M572.2674,723.9406c-.7241-.2959-72.8877-29.8037-113.4981-44.1377-1.8222-.6416-3.8212,.3125-4.4653,2.1357-.6436,1.8232,.3125,3.8223,2.1353,4.4658,40.4482,14.2754,112.4542,43.7188,113.1767,44.0146,.4341,.1777,.8828,.2617,1.3242,.2617,1.3789,0,2.6861-.8203,3.2408-2.1748,.7319-1.7891-.1245-3.833-1.9136-4.5654Z"/><path class="cls-1" d="M313.5618,613.4963c-1.1587-1.5459-3.3515-1.8614-4.8999-.7002-1.5464,1.1592-1.8598,3.3535-.6996,4.8994,4.9805,6.6416,8.8931,13.0479,8.9317,13.1123,.6591,1.082,1.812,1.6797,2.993,1.6797,.6201,0,1.2481-.165,1.8165-.5107,1.6509-1.0049,2.1747-3.1582,1.1699-4.8086-.1655-.2725-4.1191-6.749-9.3115-13.6719Z"/><path class="cls-1" d="M340.0135,597.1457c.0503-1.9326-1.4751-3.5401-3.4072-3.5908-1.8936-.0176-3.5396,1.4746-3.5909,3.4072-.2011,7.6865,.2813,14.6396,1.4346,20.665,.3208,1.6758,1.7876,2.8428,3.4336,2.8428,.2183,0,.4395-.0205,.6616-.0635,1.8985-.3633,3.1431-2.1963,2.7798-4.0957-1.0586-5.5322-1.5-11.9805-1.3115-19.165Z"/><path class="cls-1" d="M364.5428,605.9631c-.3013,.3584-7.4234,8.8594-11.2935,15.1885-1.0088,1.6494-.4892,3.8037,1.1602,4.8125,.5698,.3486,1.1997,.5146,1.8222,.5146,1.1788,0,2.3296-.5957,2.9893-1.6748,3.5947-5.8799,10.6118-14.2549,10.6821-14.3389,1.2432-1.4803,1.0508-3.6885-.4297-4.9316-1.4785-1.2422-3.686-1.0498-4.9306,.4297Z"/><path class="cls-1" d="M281.3792,667.3869c-.6987,.2617-70.1553,26.1875-93.8452,28.5576-1.9233,.1924-3.3267,1.9072-3.1338,3.8311,.1802,1.8047,1.7017,3.1514,3.478,3.1514,.1167,0,.2344-.0059,.3531-.0176,24.5903-2.46,92.7137-27.8848,95.602-28.9658,1.8106-.6777,2.7285-2.6953,2.0508-4.5059-.6777-1.8096-2.6953-2.7236-4.5049-2.0508Z"/><g><g><path class="cls-1" d="M401.2874,435.5944c-6.067-13.0444-13.377-33.3032-16.0732-74.522-2.8106-42.9594-44.8326-61.3481-53.2276-64.5981-7.7231-2.9868-45.1767,6.3652-75.2397,14.7368-38.7017,10.7778-78.2495,23.7359-100.7525,33.0117-1.3227,.5454-2.1743,1.8433-2.1596,3.2744,.0146,1.4307,.9052,2.711,2.2392,3.2291,.1153,.0444,11.6875,4.6586,24.7036,20.2094,11.731,14.0158,26.9889,39.9412,34.0596,84.4095,2.2663-.7277,4.5165-1.4416,6.7442-2.1401-7.4548-45.7667-23.4722-72.6266-35.8267-87.2264-7.7988-9.2163-15.105-14.835-20.1773-18.0542,54.5225-21.2656,154.7754-48.0977,163.8819-44.9219,7.6997,2.9805,46.2368,19.8106,48.7695,58.5269,2.7725,42.3774,10.3872,63.4194,16.7119,77.0171,.815,1.7534,2.8985,2.5112,4.6494,1.6977,1.7525-.8154,2.5127-2.897,1.6973-4.6499Z"/><path class="cls-1" d="M243.2801,591.8928c8.8891,13.6035,21.8349,20.4951,38.4927,20.4951,.2924,0,.5888-.002,.8842-.0059,1.9327-.0283,3.4771-1.6181,3.4488-3.5508-.0279-1.915-1.5889-3.4492-3.4986-3.4492h-.0517c-14.5283,.1973-25.7691-5.6162-33.4156-17.3184-4.8084-7.3583-8.1531-16.9854-9.8799-28.2565-2.3497,.6573-4.6165,1.2852-6.7794,1.8789,1.6133,10.0142,4.7701,20.9793,10.7995,30.2067Z"/></g><path class="cls-1" d="M324.8665,487.0803c-1.7505-5.7168-3.7988-12.4062-6.2036-20.3232l-.0508-.1699c-.0444-.1514-.0884-.2988-.1094-.3565-2.417-7.9111-4.5732-14.0488-6.5932-18.7695-7.4966-17.4579-14.751-19.0013-27.2119-15.7886-41.8979,10.7437-81.5699,23.0249-111.71,34.5826-11.166,4.2929-16.165,16.713-11.8882,29.5312,.5287,1.5869,1.1543,3.4131,1.8711,5.4336,1.4541,4.1436,3.2276,9.0147,5.2808,14.6553l1.7041,4.665c3.7148,10.1309,7.9253,21.6143,12.0224,33.21,5.3955,15.2959,10.8785,19.5888,17.8164,19.5888,3.1988,0,6.7076-.913,10.6582-2.082,1.69-.5,3.438-1.0176,5.3291-1.501,15.7857-4.0341,53.4468-14.3584,82.9942-24.5517,29.7148-10.2422,37.7016-12.9951,35.7305-24.0547-1.1021-6.1885-3.6016-14.3506-9.6396-34.0693Zm-.5161,40.7462c-4.5845,2.6611-13.582,5.8408-27.856,10.7607h-.0009c-29.3335,10.1191-66.7559,20.3769-82.4453,24.3877-2.0186,.5156-3.9117,1.0762-5.5822,1.5703-4.9731,1.4707-8.5649,2.5322-11.1371,1.373-2.9507-1.333-5.7309-5.9394-8.75-14.498-4.1118-11.6367-8.3297-23.1406-12.0513-33.29l-1.6987-4.6495c-2.0454-5.6201-3.8125-10.4736-5.2573-14.5908-.7046-1.9834-1.3145-3.7666-1.8316-5.3174-3.0991-9.289,.0914-17.8359,7.7564-20.7832,29.8945-11.4628,69.2939-23.6572,110.9438-34.3374,2.6348-.6787,4.857-1.2514,6.8658-1.2514,4.3823,0,7.75,2.7256,12.1699,13.0185,1.918,4.4825,3.9892,10.3897,6.3613,18.1465l.1353,.4512c2.3994,7.8974,4.4492,14.5918,6.2007,20.3135,5.9506,19.4326,8.4135,27.4755,9.4413,33.247,.3701,2.0772,.5742,3.2217-3.2642,5.4493Z"/></g><g><path class="cls-1" d="M166.2732,500.0609c1.6511,4.7037,3.7654,10.4884,6.1292,16.9859,44.1159-18.4945,118.0938-42.0728,142.7531-49.7937-2.3518-7.6972-4.4543-13.7195-6.4619-18.4114-45.9214,10.1797-112.321,38.2243-142.4205,51.2192Z"/><path class="cls-1" d="M310.0726,448.2521c-.2831-.664-.9961-1.0283-1.7036-.875-32.5318,7.2119-80.5401,24.4737-142.6906,51.3067-.7231,.3125-1.0815,1.1308-.8208,1.874,1.4507,4.1318,3.2217,8.998,5.273,14.6328l.8623,2.3691c.1401,.3858,.4326,.6973,.8086,.8614,.1914,.084,.396,.126,.601,.126,.1973,0,.3946-.0391,.5801-.1163,44.5098-18.6611,120.4165-42.7939,142.6212-49.7461,.7866-.246,1.2271-1.082,.9863-1.8701-2.396-7.8408-4.5278-13.9131-6.5175-18.5625Zm-136.7979,66.8057l-.3247-.8936c-1.8335-5.0351-3.4429-9.457-4.7964-13.2812,60.5825-26.1084,107.544-43.0254,139.6431-50.3027,1.6875,4.0957,3.4912,9.2529,5.4863,15.6875-23.6339,7.416-96.1235,30.5507-140.0083,48.79Z"/></g><path class="cls-1" d="M301.0916,484.9767c-1.4331-1.29-3.3667-1.3125-4.6968-1.2246-6.4238,.4453-23.1753,6.667-26.2173,10.2832-4.041,4.8028,4.5162,18.7168,4.605,18.8545,1.1079,1.7119,2.8828,2.5684,5.6001,2.5684,2.751-.001,6.4683-.8789,11.4336-2.6358,5.7857-2.0478,11.6206-4.7666,12.5-5.2939,1.1397-.6836,1.796-1.8408,1.9503-3.4395,.3052-3.1621-1.6958-15.9814-5.1748-19.1123Zm-28.2358,11.3116h0Zm24.5742-5.5586h0Zm-17.1524,17.7441c-1.958-3.2617-3.8764-8.207-4.1953-10.3311,3.46-2.2862,16.334-7.1299,20.5767-7.4229,1.1016,2.3721,2.4375,8.5498,2.6392,11.5195-4.8062,2.2901-15.71,6.5078-19.0206,6.2344Z"/><path class="cls-1" d="M372.9715,659.0549c-4.8916-12.6221-7.1572-13.0674-8.6577-13.3623-2.3208-.4551-37-2.9639-43.8457,.8291-3.8286,2.1201-7.5005,10.2939-9.9063,16.7764-1.1958,3.2217-5.0102,14.0713-3.8891,18.4014,.5283,2.042,2.1328,3.3604,4.0888,3.3604h.0034l2.3604-.002c32.2212-.0234,55.5347-.2432,62.0693-2.8652,2.0635-.8271,2.9576-2.8643,2.6577-6.0547-.4111-4.374-2.8862-11.9365-4.8808-17.083Zm-62.2095,22.5049h0Zm2.7808-3.502c.9302-6.5527,7.1797-23.3164,10.3144-25.4111,1.6856-.8896,7.855-1.1982,14.8384-1.1982,9.2295,0,19.8804,.54,23.4745,.9932,2.5773,3.4365,7.9713,18.377,8.6807,23.7441-8.6504,1.8232-36.419,1.8564-57.3081,1.8721Z"/><path class="cls-1" d="M334.5677,680.759c-1.0059-1.1143-1.9556-2.167-17.502-2.585-8.4375-.2285-17.5884-.1104-23.312,.2988-5.8984,.4209-7.8227,.9971-8.9526,2.6797-2.0938,3.1162-13.6992,28.3047-12.6529,33.0186,.7491,3.3672,4.0445,3.6865,13.9756,3.6865h.3775c5.8222-.0049,13.8203-.2207,23.7729-.6426,16.7525-.709,34.6494-1.8262,36.1431-2.0244,1.3818-.1846,2.5425-1.1211,3.0283-2.4434,.5464-1.4873,1.1118-3.0254-6.3496-17.2607-2.1514-4.1055-7.0669-13.1064-8.5283-14.7275Zm-43.9561,4.2959h.0005c-.0014,.002-.0029,.0049-.0045,.0068,.001-.002,.0031-.0049,.0039-.0068Zm-2.8955-1.9512h0Zm-8.1133,27.6357c1.8785-6.1348,7.9043-20.292,10.4976-24.8457,5.7163-1.1523,33.8242-1.0742,39.6558,.1201,2.2407,3.416,9.2833,16.3477,11.9414,22.54-12.7618,.8779-51.2486,2.8779-62.0948,2.1855Z"/><path class="cls-1" d="M400.5247,680.3664c-1.106-.8818-4.4736-3.5596-24.1787-2.9482-4.3848,.1367-18.9126,.75-21.751,2.8916,0,0,0,.001-.0005,.001-.6718,.5078-2.7177,2.0518-7.6753,15.3047-5.0029,13.374-4.3442,15.5068-4.0625,16.417,.8633,2.7949,3.4463,3.2549,10.7403,3.2549,.7817,0,1.6177-.0059,2.5112-.0137,5.2232-.0488,12.4014-.3057,21.3359-.7646,15.7149-.8086,31.419-1.9609,32.8614-2.1221,1.6484-.1826,2.9702-1.3271,3.4492-2.9844,1.4927-5.168-8.1235-24.9658-13.23-29.0361Zm-50.4316,27.8623c1.5371-5.9268,6.6694-19.2471,8.6967-22.2021,5.7872-1.7031,33.5914-2.751,37.3721-.1855,3.2051,2.5547,8.8443,14.46,10.397,19.8398-10.9307,.833-46.2568,3.0557-56.4658,2.5479Z"/><path class="cls-1" d="M460.0999,559.6594c-1.0635-1.0821-2.8442-2.8936-21.8491-1.0674-4.1968,.4023-18.1333,1.873-21.2686,3.8691-2.292,1.459-4.102,2.6113,.5103,40.9297,2.2388,18.5967,5.7368,43.2432,9.3579,65.9297,.2744,1.7217,1.7617,2.9492,3.4517,2.9492,.1837,0,.3691-.0146,.5562-.0449,1.9087-.3047,3.209-2.0986,2.9043-4.0078-7.7047-48.2754-12.9287-91.7334-12.103-100.1367,5.7319-1.5801,27.247-3.8564,33.1792-3.1747,2.1655,9.9199,8.1421,66.4628,11.5888,101.7431,.1885,1.9238,1.9107,3.3379,3.8238,3.1426,1.9238-.1875,3.331-1.9004,3.143-3.8242-.0249-.2539-2.52-25.7607-5.2714-51.2324-5.6938-52.7081-6.7734-53.8057-8.0229-55.0752Z"/><path class="cls-1" d="M511.4105,572.7463c-3.1636-.0225-13.8301,.0898-18.4786,1.9599h-.0004c-2.3638,.9522-4.2432,3.0537-3.293,19.1895,.4385,7.4492,1.5254,16.8838,2.9648,21.1729,1.334,3.9736,5.187,5.4443,10.4395,5.4443,5.7954,0,13.2949-1.792,20.9878-3.9854,.8066-.2305,1.4311-.4102,1.8178-.5059,.9805-.2451,2.3311-.9541,3.1973-2.9482,2.5903-5.9638,.8823-33.46-.9839-36.8193-.7622-1.3731-1.9145-3.4463-16.6513-3.5078Zm11.4561,36.834c-.2324,.0664-.4854,.1378-.7559,.2148-19.4029,5.5342-22.4786,3.4707-22.8716,3.0459-2.1592-6.4346-3.4512-26.8379-2.5445-32,5.7163-1.4287,20.8135-1.3271,25.3452-.3955,.959,5.456,2.0918,24.2119,.8267,29.1348Z"/><path class="cls-1" d="M602.5818,745.0988c-2.707-1.0557-5.5004-.7422-7.4716,.8408-1.2452,1.001-3.2242,3.3838-2.4869,8.1016,1.3453,8.6094-1.8471,15.6553-9.4877,20.9424-14.9048,10.3145-41.6031,10.2969-53.772,3.4072h-.0005c-5.4404-3.0791-9.353-1.043-11.0493,1.6377-2.6031,4.1123-1.2652,11.6768,4.8159,15.959,8.1909,5.7686,19.2905,8.623,30.9643,8.623,12.8848-.001,26.4678-3.4795,37.5982-10.3564,14.7729-9.1279,21.6943-22.2109,19.4883-36.8408-1.058-7.0176-5.1358-10.9629-8.5987-12.3145Zm-14.5688,43.2002c-18.6929,11.5498-45.9912,12.4316-60.853,1.9658-1.6841-1.1865-2.8389-2.9873-3.0894-4.8174-.1186-.8682,.0234-1.3926,.1177-1.6006,.2134,.0078,.7637,.0908,1.7261,.6357,14.4838,8.2002,43.7372,8.3438,61.204-3.7422,9.8955-6.8477,14.1909-16.4531,12.421-27.7793-.1237-.792-.0699-1.2529-.0167-1.4785,.2495,.0293,.7187,.1592,1.3261,.5801,1.71,1.1855,2.9849,3.5762,3.4097,6.3936,2.377,15.7637-9.1582,25.4639-16.2456,29.8428Z"/><path class="cls-1" d="M850.5994,418.4301c-3.8201-27.14-7.4299-45.84-11.21-58.07-.55-1.79-1.1101-3.43-1.67-4.95-.27-.72-.54-1.45-.84-2.18-3.49-8.68-9.0601-17.21-20.27-14.06-2.9399,.83-7.4399,1.89-13.15,3.24-20.51,4.84-58.7001,13.85-115.55,33.18-4.3,1.46-7.44,4.16-9.31,8.02-5.64,11.6,1.51,31.94,9.09,53.47,1.04,2.96,2.09,5.94,3.11,8.92,1.77,5.1801,3.1801,10.0601,4.42,14.3701,3.59,12.49,6.19,21.52,13.93,25.79,2.84,1.57,6.16,2.36,10.19,2.36,4.28,0,9.35-.89,15.49-2.66,12.52-3.62,32.47-9.98,48.9399-15.32,2.1801-.7,4.3-1.39,6.3301-2.05,.52-.17,1.05-.34,1.5701-.51,6.7-2.18,13.3298-4.34,19.5999-6.42,.91-.3,1.66-.97,2.0701-1.84,.4099-.88,.4399-1.88,.0801-2.77-3.1802-8.02,11.3499-22.38,35.3398-34.93,1.3101-.68,2.05-2.12,1.8401-3.59Zm-44.55,37.48c-4.72,1.56-9.61,3.15-14.5601,4.76-1.1799,.39-2.3699,.77-3.5599,1.16-.47,.15-.95,.31-1.4301,.46-17.1899,5.6-39.9099,12.88-53.6199,16.84-9.84,2.85-16.3101,3.14-20.35,.91-5.2-2.88-7.46-10.73-10.58-21.6-1.27-4.39-2.7-9.37-4.53-14.71-1.03-2.99-2.08-5.99-3.13-8.97-6.76-19.23-13.76-39.11-9.39-48.1,1.05-2.17,2.73-3.58,5.26-4.44,56.53-19.22,94.5101-28.18,114.91-33,6.01-1.41,10.36-2.44,13.4399-3.31,.77-.22,1.6501-.46,2.6101-.46,2.4099,0,5.3799,1.54,8.6599,8.95,.4501,1.02,.91,2.16,1.3801,3.43,.25,.68,.51,1.4,.76,2.14,3.8298,11.33,7.48,29.6,11.4099,57.01-24.8401,13.38-38.3201,27.56-37.28,38.93Z"/><path class="cls-1" d="M922.7269,513.3215c-52.749-21.1368-40.377-62.1485-39.8262-63.875,.4756-1.4688-.0664-3.0743-1.334-3.9541-1.2676-.8799-2.9619-.8262-4.1709,.1328-7.7725,6.164-34.6934,15.6679-51.5952,15.666-2.71,0-5.1655-.2441-7.2402-.7861-2.73-.7129-4.4492-1.8916-5.1099-3.501-.7798-1.9004-.5342-4.2227,.7295-6.9043,6.4229-13.6275,36.3018-32.0054,68.0215-41.8384,1.8467-.5728,2.8789-2.5332,2.3066-4.3794-.5713-1.8463-2.5322-2.8795-4.3789-2.3071-34.4844,10.6899-64.8828,29.8428-72.2812,45.5405-2.1357,4.5322-2.4297,8.7529-.874,12.5449,1.541,3.7559,4.8438,6.3184,9.8179,7.6172,14.7246,3.8467,43.0298-4.3994,57.8823-11.8808-.54,4.9511-.6182,11.7773,1.1934,19.3789,3.2832,13.7744,13.626,32.7705,44.2559,45.0439,.4268,.1709,.8672,.252,1.3008,.252,1.3877,0,2.7021-.8321,3.25-2.1993,.7188-1.7939-.1533-3.832-1.9473-4.5507Z"/><path class="cls-1" d="M616.7601,567.175c-24.7994,0-44.9746,20.1758-44.9746,44.9746s20.1752,44.9746,44.9746,44.9746,44.9746-20.1758,44.9746-44.9746-20.1753-44.9746-44.9746-44.9746Zm0,82.9492c-20.9395,0-37.9746-17.0352-37.9746-37.9746s17.0351-37.9746,37.9746-37.9746,37.9746,17.0351,37.9746,37.9746-17.0352,37.9746-37.9746,37.9746Z"/><g><path class="cls-1" d="M627.599,613.4096c-.7927-1.137-1.6977-2.0328-2.7144-2.6878-1.0169-.6543-2.066-1.1398-3.1476-1.4556-1.0817-.3158-2.1539-.4785-3.2159-.4882-.9431,.0069-1.7693-.0966-2.4798-.3102-.7101-.213-1.2443-.4822-1.6025-.8069-.358-.3249-.6133-.6064-.7651-.8447-.1522-.2382-.2525-.4549-.3015-.65-.0543-.2164-.0684-.4548-.0414-.7152,.0265-.2601,.1132-.5815,.2589-.9638,.1459-.3823,.4583-.7425,.9377-1.0822,.4792-.3391,1.0901-.5903,1.8324-.7541,1.7822-.4245,3.8279-.6733,6.1369-.7469,.1843,.0003,.3372-.0787,.459-.2362,.1216-.1569,.1716-.325,.15-.5042l-.975-6.4944c-.0222-.1785-.1091-.318-.2606-.4184-.1521-.1-.3068-.1415-.4636-.1255-1.4034,.1918-2.8178,.4315-4.2427,.7205l-1.3313-5.299c-.0434-.1731-.1465-.3088-.3092-.4062-.1627-.0973-.331-.1241-.5041-.0806l-7.8672,1.9764c-.1736,.0436-.3036,.1453-.3898,.3052-.0867,.16-.108,.3269-.0645,.5l1.5354,6.1117c-1.8199,1.1949-3.0823,2.6351-3.7873,4.3209-.7055,1.6866-.7967,3.5699-.274,5.6504,.3703,1.474,.9584,2.7833,1.7646,3.9286,.8061,1.1454,1.716,2.0398,2.7304,2.6836,1.0138,.644,2.0578,1.1306,3.1313,1.46,1.0732,.3296,2.1494,.4854,3.2279,.4677,.943-.0063,1.7698,.097,2.4799,.3101,.7102,.2136,1.2388,.4838,1.5861,.8112,.347,.3274,.5967,.6104,.749,.8488,.1517,.2383,.2554,.4662,.3097,.6825,.049,.1948,.0612,.4285,.0374,.6991-.0242,.2712-.1052,.5912-.2428,.9596-.1379,.3689-.4464,.7229-.9255,1.0619-.4795,.3392-1.101,.593-1.8648,.7622-.6939,.1744-1.4589,.3147-2.2961,.4213-.8372,.1067-1.5215,.1809-2.0524,.2219-.5312,.0415-1.0489,.0679-1.5525,.0791-.206,.0056-.3715,.0818-.4958,.228-.1245,.1467-.1732,.3201-.1457,.5204l.975,6.4945c.0435,.1731,.1355,.3114,.2768,.4143,.1408,.1029,.2899,.1458,.4474,.1296,1.2295-.1479,2.5896-.3741,4.08-.6796l1.3312,5.299c.0435,.1731,.1397,.3044,.289,.3938,.1487,.0891,.3101,.1123,.4838,.0686l7.8671-1.9763c.1731-.0435,.3044-.1401,.3939-.2891,.0889-.1492,.1121-.3105,.0686-.4838l-1.4946-5.949c1.9877-1.1681,3.2959-2.5852,3.9258-4.2522,.6292-1.6674,.6583-3.6388,.0866-5.9143-.3702-1.4735-.9519-2.7792-1.7441-3.9164Z"/><path class="cls-1" d="M628.8294,612.552c-.9005-1.2921-1.9541-2.3311-3.1333-3.0919-1.1339-.7295-2.3237-1.2793-3.5391-1.6347-1.2104-.3526-2.4287-.5371-3.6479-.5479-.7998,0-1.4717-.076-2.0371-.2461-.6426-.1933-.9195-.3847-1.0244-.4804-.3623-.3291-.481-.4971-.5103-.542-.0898-.1407-.1103-.209-.1103-.21-.0054-.0195-.0157-.0791-.0039-.1964,.0048-.0449,.0302-.2187,.1679-.581,.0005-.001,.0601-.1495,.4048-.3926,.311-.2207,.7441-.3936,1.311-.5195,1.6773-.3986,3.6416-.6358,5.7901-.7051,.6513,0,1.2348-.2901,1.6455-.8184,.3652-.4726,.5215-1.0254,.4468-1.6454l-.9698-6.4541c-.0761-.6182-.4052-1.1475-.9213-1.4863-.439-.2901-.9415-.418-1.4952-.3613-.9736,.1337-1.9546,.29-2.9297,.4667l-.9858-3.9228c-.1387-.5557-.4912-1.0273-.9918-1.3281-.5005-.2998-1.0815-.3887-1.6421-.25l-7.8691,1.9775c-.5806,.1465-1.0572,.5186-1.3408,1.0439-.2671,.4921-.3365,1.038-.2007,1.5811l1.2861,5.1182c-1.6064,1.2373-2.7705,2.7031-3.4673,4.3701-.8296,1.9834-.9458,4.2021-.3447,6.5957,.4141,1.6465,1.0845,3.1357,1.9927,4.4248,.9155,1.3008,1.976,2.3398,3.1528,3.0879,1.1226,.7119,2.2983,1.2598,3.4946,1.626,1.2207,.375,2.4654,.5488,3.6783,.5342,.775-.0068,1.4755,.0781,2.038,.2471,.6573,.1973,.9112,.3916,.9883,.4639,.3482,.3301,.4766,.5068,.5142,.5654,.0908,.1426,.1142,.2207,.1191,.2383,0,.001,.0117,.0615-.001,.2021-.0068,.0771-.0361,.2539-.1533,.5674-.0005,.001-.0639,.1357-.3882,.3652-.3125,.2217-.7573,.3965-1.3623,.5312-.6357,.1592-1.3496,.29-2.1211,.3877-.8056,.1025-1.4648,.1758-1.9809,.2148-.502,.0391-.9907,.0645-1.4766,.0752-.6302,.0176-1.1972,.2861-1.5967,.7559-.4013,.4727-.5747,1.0762-.4858,1.7148l.9751,6.4941c.0073,.0479,.0166,.0947,.0283,.1416,.1284,.5137,.4204,.9492,.8496,1.2646,.4439,.3223,.9585,.4629,1.5083,.4043,.8648-.1035,1.7998-.2471,2.7925-.4268l.9849,3.9209c.1386,.5557,.4839,1.0225,.9736,1.3174,.3345,.2002,.709,.3027,1.0903,.3027,.1763,0,.354-.0225,.5298-.0664l7.8618-1.9756c.5581-.1387,1.0274-.4844,1.3223-.9785,.2905-.4883,.3735-1.0615,.2344-1.6152l-1.2319-4.9043c1.7583-1.2295,2.9711-2.7061,3.6118-4.4023,.7363-1.9512,.7827-4.2422,.1377-6.8086-.4126-1.6436-1.0747-3.127-1.9683-4.4092Zm-6.3818-12.1464h.0019c-.0146,0-.0293,.0009-.0434,.0009,.0136-.0009,.0278-.0009,.0415-.0009Zm-1.795-5.4786c-.0019-.0117-.0039-.0234-.0053-.0351,.0014,.0117,.0034,.0234,.0053,.0351Zm-2.5239,39.8096s.001,0,.0015-.001c-.0005,.001-.0015,.001-.0015,.001Zm7.2422-.9287h0Zm.6221-1.0479c.0014,0,.0029,0,.0039-.001-.001,.001-.0025,.001-.0039,.001Zm1.8603-10.0498c-.5024,1.3301-1.6069,2.5039-3.2827,3.4893-.5737,.3369-.8569,1.0127-.6943,1.6582l1.2842,5.1123-6.1929,1.5557-1.1211-4.4619c-.1699-.6787-.7793-1.1348-1.4531-1.1348-.1002,0-.2012,.0098-.3029,.0303-1.1255,.2314-2.1826,.417-3.144,.5537l-.71-4.7285c.2256-.0127,.4536-.0283,.6826-.0459,.5508-.042,1.2608-.1191,2.1285-.2295,.8891-.1133,1.7208-.2656,2.4316-.4443,.957-.2119,1.7671-.5498,2.4067-1.0029,.7276-.5146,1.2203-1.1074,1.4639-1.7607,.187-.499,.2954-.9414,.3326-1.3535,.0386-.4365,.0126-.8389-.0767-1.1943-.0928-.3711-.2613-.75-.501-1.126-.2207-.3457-.542-.7158-.9839-1.1338-.5225-.4922-1.2363-.8701-2.1841-1.1553-.8496-.2549-1.8154-.3828-2.9365-.374-.9155,.0234-1.8428-.1182-2.7627-.4023-.9404-.2881-1.8716-.7227-2.7661-1.29-.8433-.5361-1.6201-1.3037-2.3086-2.2823-.6953-.9873-1.2124-2.1416-1.5361-3.4297-.4458-1.7753-.3793-3.3144,.2026-4.707,.5923-1.415,1.6479-2.6084,3.2275-3.6454,.5332-.3506,.7867-1,.6309-1.6191l-1.3335-5.3076,6.2256-1.5635,1.1294,4.4941c.1958,.7783,.9712,1.2686,1.7529,1.1046,1.1046-.2236,2.2241-.4209,3.311-.585l.7085,4.7159c-2.0146,.1103-3.8476,.3593-5.4458,.7392-.937,.2071-1.7363,.543-2.374,.9951-.7246,.5118-1.2207,1.1084-1.4741,1.7725-.1953,.5127-.3096,.9531-.3491,1.3438-.0449,.4344-.0181,.8495,.0786,1.2334,.0893,.3574,.2505,.7158,.4912,1.0927,.2251,.3526,.5591,.7285,1.0239,1.1504,.5317,.4815,1.2441,.8516,2.1763,1.1309,.8525,.2568,1.8359,.3701,2.8989,.373,.918,.0089,1.8633,.1524,2.8081,.4278,.938,.2744,1.8658,.7041,2.7564,1.2773,.8481,.5469,1.6206,1.3154,2.2959,2.2842,.685,.9834,1.1963,2.1357,1.5205,3.4248,.4927,1.9619,.4809,3.6504-.0352,5.0186Z"/></g><g><g><g><path class="cls-1" d="M584.4791,586.1206c-4.7911,5.9343-7.9753,13.2144-8.903,21.1863,.9341,.1436,1.725,.2316,2.3348,.2518,1.5347-3.8675,3.8419-11.525,6.5682-21.4382Z"/><g><path class="cls-1" d="M675.2059,676.4231c-1.2911-4.9053-10.95-9.9524-46.7362-24.4861-3.7147,1.0916-7.6415,1.6875-11.7095,1.6875-1.0489,0-2.0853-.0513-3.1146-.1277,29.1176,11.6526,51.9962,21.1868,54.844,24.9399,1.3593,6.6543,2.519,68.8975,1.9936,78.2588-11.6968,10.6445-157.6415,96.4814-185.3647,106.9189-28.8477,10.8594-57.5313,14.125-111.3062-3.1377-61.1269-19.6201-199.7139-76.7637-207.5288-89.21-7.2065-11.4766-12.4404-57.3506-13.8486-74.0576-.1626-1.9258-1.8506-3.3564-3.7818-3.1934-1.9262,.1621-3.3559,1.8555-3.1938,3.7812,.2124,2.5215,5.3144,61.9326,14.896,77.1924,10.4399,16.626,158.6714,75.2539,211.3174,92.1533,27.644,8.873,48.9433,12.4893,67.0854,12.4893,18.4189,0,33.5829-3.7275,48.8267-9.4668,15.5508-5.8545,64.4082-33.2686,104.9458-56.9727,21.9126-12.8135,42.4033-25.125,57.6977-34.667,26.6338-16.6172,26.8238-17.9473,27.1109-19.959,.6909-4.835-.2618-75.0322-2.1333-82.1436Z"/><path class="cls-1" d="M580.846,632.895c-5.4583-2.1786-11.11-4.4407-16.9279-6.7822,.096,2.6735,.175,5.2247,.2358,7.6392,9.3022,3.7378,18.1646,7.2693,26.4313,10.5582-3.8965-3.1754-7.2068-7.0403-9.7392-11.4152Z"/><g><path class="cls-1" d="M702.1336,609.5754c-.043-.2276-4.3087-22.751-6.338-26.0469-1.5986-2.5967-5.0933-3.627-20.6294-2.4658-7.1751,.5366-16.3143,1.5247-27.8827,3.0148,1.8215,1.9796,3.4541,4.1349,4.8665,6.4407,27.8228-3.4603,35.7075-3.0919,37.9181-2.6567,2.1123,6.2285,8.3379,36.6777,8.1523,44.1016-6.8833,2.0664-35.9516,6.2236-42.9062,5.6836-.538-1.4031-1.2802-3.5126-2.0576-5.7915-1.3849,2.5577-3.0339,4.9502-4.9055,7.1482,.4643,1.2622,.8737,2.308,1.1686,2.9402,.5791,1.2402,1.7071,2.0488,3.3527,2.4043,.7289,.1572,1.9003,.2305,3.4086,.2305,11.6879,0,43.6308-4.3604,47.2104-7.4307,1.627-1.3936,3.3091-2.8359-1.3579-27.5723Z"/><g><path class="cls-1" d="M699.1678,610.4601c-1.183,.0718-24.7054,1.5025-40.985,3.3426-.0963,2.4454-.4033,4.8344-.9058,7.1526,16.1826-1.9185,42.0134-3.4891,42.3118-3.5078,1.9297-.1162,3.3994-1.7744,3.2832-3.7041-.1162-1.9287-1.7759-3.3878-3.7041-3.2833Z"/><g><path class="cls-1" d="M696.1487,595.3459c-1.1441,.0751-23.6796,1.5718-39.9593,3.9875,.7177,2.2073,1.2729,4.4873,1.6129,6.8397,16.0586-2.3318,38.5303-3.8245,38.8044-3.8429,1.9288-.126,3.3902-1.792,3.2637-3.7206-.1265-1.9297-1.7778-3.4073-3.7217-3.2637Z"/><g><path class="cls-1" d="M636.2293,534.0539c29.5259-54.335,29.5259-56.5039,29.5259-58.0879,0-11.541-42.1196-20.2871-46.9224-21.2471-1.8926-.375-3.7388,.8516-4.1177,2.7471s.8511,3.7393,2.7466,4.1182c24.9024,4.9736,38.711,11.7343,41.1201,14.542-2.989,7.8856-30.2664,58.1063-50.9563,95.5613,2.7526-.6204,5.6105-.96,8.541-1.0014,5.4806-9.9418,12.7941-23.2559,20.0628-36.6321Z"/><path class="cls-1" d="M687.7127,494.3156c-6.8325-4.6846-16.251-10.5605-25.8403-16.1211-1.6719-.9717-3.813-.3994-4.7838,1.2715-.9697,1.6719-.3999,3.8135,1.272,4.7832,18.5195,10.7393,31.6015,19.7373,35.2744,23.3916-5.9453,6.4531-30.9551,30.5195-48.021,46.9424-6.982,6.7187-13.335,12.832-17.9424,17.3057-.0693,.0673-.1271,.1234-.1953,.1896,2.5272,.6747,4.9542,1.5896,7.267,2.7054,4.5277-4.3823,10.1691-9.8109,15.7247-15.1569,45.6406-43.9199,49.9536-48.5019,50.6436-50.4004,1.1523-3.1679-.5089-6.0722-13.3989-14.9111Z"/></g></g></g></g><path class="cls-1" d="M590.5852,644.3102c6.3854,5.2035,14.3464,8.5389,23.0604,9.1866-5.8007-2.3215-11.8436-4.7251-18.031-7.186-1.6467-.6549-3.33-1.3245-5.0294-2.0006Z"/></g><path class="cls-1" d="M594.0604,577.4447c11.7927-44.5783,27.996-115.5933,28.1791-124.092,.0195-.9092-.23-2.2734-1.5312-3.6035-7.3315-7.4932-62.9702-14.1675-66.8228-14.1689h-.0015c-4.9128,0-7.0392,6.0989-9.8779,19.7925,.0991,.0782,.1947,.1544,.2936,.2325,.7769,.614,1.5458,1.2231,2.3075,1.8279,.2863,.2272,.5725,.4544,.8565,.6803,.6257,.4978,1.2427,.9901,1.8569,1.4808,.2759,.2204,.5602,.446,.8336,.6648,1.0801-5.4418,3.0273-14.9758,4.6751-17.6515,9.8516,.4814,53.6216,7.3281,60.3389,11.625-1.3064,12.7305-19.5266,91.3002-30.6891,131.888,2.7181-3.3668,5.9515-6.2969,9.5813-8.676Z"/><path class="cls-1" d="M575.5761,607.307c-2.9975-.4608-7.5158-1.5114-12.6426-2.8775,.1314,2.4907,.2562,4.9411,.372,7.3336,5.2963,1.3739,9.1691,2.1962,12.0369,2.5602-.0372-.7198-.0569-1.4443-.0569-2.1735,0-1.6393,.1057-3.2531,.2906-4.8428Z"/></g><path class="cls-1" d="M513.9856,430.8249c-.7242-8.6802-1.6938-20.3101-1.1695-23.9619,3.4683-.8042,13.583-.9634,17.4068-.3033,.6971,5.6971,2.3768,24.9566,3.7083,40.9359,2.5538,1.9774,5.0611,3.9332,7.5082,5.8556-1.8345-22.4435-4.0577-48.261-4.7346-50.2905-.4741-1.4233-1.6665-2.4262-3.5444-2.9809-4.1788-1.2339-21.4322-1.6553-25.1949,1.3545-2.731,2.1846-2.809,7.03-1.324,25.4808,2.4821,1.8185,4.9799,3.6661,7.4785,5.5275-.0449-.5392-.0897-1.0822-.1343-1.6177Z"/><path class="cls-1" d="M554.0437,497.3817c-.3387-.303-1.0709-.9086-2.1221-1.7575,4.9254,61.3157,10.7028,147.2573,8.419,159.376-15.0121,3.5361-147.2495,11.7764-165.8803,12.1699-4.1708-13.0918-14.9507-97.7334-20.2466-139.3184-1.1292-8.8668-2.1266-16.6983-2.9211-22.7954-2.8071,2.7675-4.9762,4.8341-6.2881,5.9498,.663,5.149,1.4274,11.1489,2.2653,17.7294,3.3106,25.9942,7.8443,61.5928,11.9878,90.668,2.2666,15.9033,4.1989,28.3008,5.7437,36.8496,2.8686,15.876,3.9809,17.666,7.1347,17.9023,.1231,.0088,.3169,.0137,.5791,.0137,6.0835,0,48.6612-2.4326,84.8301-4.8613,82.9419-5.5703,85.961-7.6406,87.4116-8.6348,2.5518-1.75,5.191-3.5596-.7207-92.8594-1.7536-26.4935-3.7856-53.0138-5.1028-69.6592-2.1654,.3812-3.983,.2174-5.0895-.7727Z"/></g><path class="cls-1" d="M517.949,430.9318c-56.7015-42.3965-64.5029-41.683-67.0591-41.4507-9.0205,.8203-45.9194,36.7593-61.3652,52.1734-23.4541,23.4052-51.9185,53.8828-54.9492,62.749-.5156,1.5088-.3032,3.0791,.5981,4.4209,1.1285,1.6787,3.4761,5.1738,27.8223,6.5918l.4277,.0254c.1592,.0098,.3091,.0195,.4585,.0195,2.1245,0,4.149-1.8799,32.3096-30.6299,19.373-19.7783,51.457-52.5341,57.9409-56.1557,10.8516,3.8442,90.5342,65.0122,97.5777,71.3149,2.4253,2.1699,6.2226,2.4326,11.2866,.7793,7.0552-2.3017,18.7012-9.4424,19.7192-14.2139,.4331-2.0312-.9512-3.5918-1.6948-4.4296-5.7647-6.4971-34.6484-29.9415-63.0723-51.1944Zm-180.0615,74.6035h0Zm25.9502,2.919l.0186,.001-.0186-.001Zm202.6055-16.792c-6.0171,3.1875-9.4175,3.4453-10.0655,3.1113-2.727-2.4394-26.0644-20.6826-49.5532-38.2334-47.3887-35.4092-51.0556-35.145-53.2456-34.9761-4.52,.3345-16.7646,11.7901-62.3882,58.3697-12.3379,12.5957-25.0669,25.5918-28.4907,28.4521-13.6704-.8349-18.9438-2.3144-20.855-3.1053,4.3223-7.8322,25.8228-31.8858,52.0171-58.0645,31.9126-31.895,53.5576-49.9634,57.6514-50.7627,3.126-.1196,20.3198,8.5591,64.9375,42.1045,29.6899,22.3213,52.834,41.5801,58.5063,47.3125-1.5341,1.4336-4.5625,3.6992-8.5141,5.792Z"/></g></g><g><path class="cls-1" d="M781.5256,413.6626c-1.2038-1.522-2.5441-2.6977-4.0203-3.5272-1.4764-.8286-2.9835-1.4186-4.5217-1.7686-1.5384-.35-3.0506-.4869-4.5356-.4108-1.3174,.0892-2.4809,.0143-3.4918-.2243-1.0103-.2378-1.7796-.5688-2.3076-.9924-.5277-.4238-.9083-.7957-1.1405-1.116-.2328-.32-.3913-.6144-.4762-.8829-.0942-.2979-.134-.6299-.1182-.996,.0151-.3657,.1091-.8222,.2804-1.3688,.1717-.5465,.5778-1.0763,1.2192-1.5916,.6411-.5143,1.4736-.9169,2.4972-1.2085,2.4548-.7437,5.2927-1.264,8.5135-1.5617,.2575-.0151,.4645-.1384,.6215-.3688,.1567-.2296,.2123-.4687,.1671-.7173l-1.9107-8.9938c-.0461-.2476-.1793-.4352-.3995-.5627-.221-.1269-.4406-.1718-.6584-.1363-1.9451,.3864-3.9016,.8408-5.8685,1.3649l-2.3077-7.2931c-.0753-.2382-.2308-.4192-.4664-.5416-.2355-.1222-.473-.1455-.7113-.0701l-10.8278,3.426c-.2389,.0756-.412,.2287-.519,.4595-.1077,.2309-.1234,.466-.048,.7042l2.6616,8.4117c-2.4425,1.8235-4.0853,3.9427-4.9282,6.3582-.8436,2.4167-.8121,5.0563,.094,7.9197,.6419,2.0287,1.5743,3.8089,2.7976,5.3415,1.2232,1.5327,2.5703,2.7058,4.0423,3.52,1.4712,.8145,2.9713,1.4064,4.4994,1.7761,1.5277,.37,3.0447,.4969,4.5506,.3811,1.3173-.0885,2.4816-.0137,3.4919,.224,1.0106,.2386,1.7721,.5715,2.2851,.9998,.5126,.4283,.8854,.8026,1.1183,1.1229,.2322,.3202,.3962,.63,.4904,.9277,.0849,.2681,.1217,.5936,.1112,.9739-.011,.3811-.0972,.8351-.2583,1.3616-.1616,.5272-.5628,1.0479-1.2038,1.5621-.6415,.5146-1.4886,.9217-2.5418,1.2226-.955,.3023-2.0122,.5629-3.1733,.7825-1.161,.2198-2.111,.3812-2.8496,.4834-.7388,.1028-1.4601,.1834-2.163,.2416-.2874,.0252-.5122,.1456-.6736,.3605-.1616,.2156-.2151,.4619-.1597,.7395l1.9107,8.994c.0754,.2382,.2156,.4238,.4218,.5556,.2055,.1319,.4174,.1792,.6363,.1434,1.7058-.3105,3.5875-.7414,5.6445-1.294l2.3077,7.2931c.0754,.2382,.2209,.4137,.4371,.526,.2153,.112,.4428,.1308,.6819,.055l10.8277-3.4259c.2382-.0753,.4136-.2215,.526-.4372,.1117-.216,.1305-.4435,.055-.6819l-2.5908-8.1877c2.6793-1.8002,4.3879-3.8911,5.1275-6.2739,.7386-2.3833,.6129-5.1409-.3781-8.2727-.6417-2.028-1.5649-3.8036-2.7679-5.3261Z"/><path class="cls-1" d="M783.1727,412.3601c-1.3675-1.7297-2.9276-3.0928-4.6398-4.0565-1.6462-.9238-3.3554-1.5917-5.084-1.9859-1.7213-.3906-3.4395-.5456-5.1443-.4579-1.1177,.0675-2.0631,.0179-2.8677-.172-.9143-.2159-1.3175-.46-1.4722-.5849-.5341-.4294-.7141-.6541-.7589-.7144-.1373-.189-.1718-.2828-.1719-.2841-.0092-.0268-.0286-.1092-.022-.2741,.003-.0631,.0238-.3082,.1856-.8261,.0006-.0014,.0714-.214,.5327-.5828,.416-.3347,1.0067-.6129,1.7883-.8366,2.3104-.6986,5.0356-1.1959,8.0323-1.4741,.9102-.055,1.7012-.5096,2.2306-1.2826,.4705-.6913,.6422-1.477,.4855-2.3373l-1.9-8.9379c-.1585-.8576-.6631-1.5695-1.413-1.9994-.6379-.3684-1.351-.5047-2.12-.3787-1.3493,.269-2.7071,.5702-4.0549,.8994l-1.7087-5.399c-.2408-.7649-.7732-1.3942-1.4981-1.7724-.7247-.3767-1.5442-.4519-2.316-.2108l-10.8304,3.4278c-.7991,.2537-1.4337,.8139-1.7857,1.5721-.3317,.7103-.3826,1.4791-.147,2.2265l2.2294,7.0442c-2.1406,1.8647-3.6437,4.0115-4.4769,6.4-.992,2.8419-.9671,5.9524,.075,9.2468,.7176,2.2661,1.7802,4.2907,3.1583,6.0156,1.3893,1.7406,2.959,3.1032,4.6668,4.0493,1.6289,.9002,3.3182,1.5666,5.021,1.9774,1.7376,.421,3.4918,.5589,5.1856,.4361,1.0825-.075,2.0687-.0153,2.869,.1733,.9352,.2202,1.3065,.4704,1.4203,.5649,.5145,.4319,.7089,.6681,.7664,.7468,.139,.1916,.1782,.2988,.1865,.323,0,.0014,.0216,.085,.0157,.2826-.003,.1084-.0291,.3579-.1664,.8059-.0006,.0014-.0779,.1951-.5117,.5432-.418,.3362-1.0249,.618-1.859,.8574-.8749,.2761-1.8616,.5192-2.9316,.7208-1.1172,.2113-2.0322,.3693-2.7502,.4674-.6983,.097-1.3791,.1737-2.0573,.2297-.8793,.0778-1.649,.5009-2.1676,1.1911-.5209,.6944-.7123,1.5525-.5342,2.4375l1.9108,8.9934c.0142,.0663,.0312,.131,.0514,.1955,.2228,.707,.6676,1.2911,1.2941,1.6957,.6476,.4129,1.3786,.566,2.142,.4377,1.1999-.2177,2.4944-.4972,3.8666-.8321l1.7074,5.3964c.2406,.7649,.7625,1.3881,1.4718,1.7589,.4844,.2515,1.0165,.3632,1.5493,.3311,.2463-.0149,.4928-.0613,.7348-.1375l10.8204-3.4244c.7683-.2409,1.3949-.7636,1.7653-1.4791,.3648-.7069,.4324-1.515,.1913-2.2771l-2.1356-6.7499c2.3535-1.8666,3.9239-4.0325,4.6761-6.4572,.8644-2.789,.7358-5.9946-.3822-9.5268-.7153-2.2621-1.7658-4.2793-3.1228-5.9958Zm-9.9439-16.4364l.0026-.0002c-.0204,.0012-.0409,.0037-.0606,.0049,.0189-.0023,.0388-.0035,.0579-.0047Zm-2.9709-7.5051c-.0036-.0162-.0074-.0323-.0104-.0486,.003,.0163,.0067,.0324,.0104,.0486Zm-.1674,55.8481s.0015,0,.0021-.0015c-.0006,.0014-.0021,.0015-.0021,.0015Zm10.0429-1.9091l.0136-.0008-.0136,.0008Zm.7809-1.5169c.002-.0001,.0041-.0002,.0054-.0017-.0013,.0014-.0034,.0016-.0054,.0017Zm1.7516-14.2019c-.5898,1.9012-2.0343,3.6349-4.2932,5.1534-.7733,.5193-1.112,1.4876-.8303,2.376l2.2261,7.0362-8.5234,2.6967-1.9433-6.141c-.2948-.9342-1.1849-1.5201-2.1265-1.4632-.14,.0085-.2804,.0306-.4207,.0679-1.5534,.4184-3.0151,.767-4.3471,1.0392l-1.3913-6.5483c.3142-.0368,.6315-.0779,.9501-.1218,.7662-.1052,1.752-.2729,2.9552-.5004,1.233-.2334,2.3824-.5164,3.3608-.8262,1.3195-.3769,2.4232-.9175,3.2788-1.6047,.9734-.7806,1.6119-1.6506,1.8972-2.5842,.2192-.7132,.3334-1.3406,.3506-1.9196,.0171-.6133-.0531-1.1734-.2079-1.6626-.161-.5108-.4285-1.0261-.7952-1.5313-.3376-.4645-.8179-.9546-1.4707-1.5015-.7718-.6437-1.8012-1.1117-3.1499-1.4302-1.2089-.2845-2.5693-.3818-4.1354-.2749-1.2775,.11-2.5854-.0096-3.8949-.3291-1.3386-.3232-2.6767-.852-3.9746-1.5694-1.2238-.6781-2.3742-1.6852-3.4189-2.9947-1.055-1.3211-1.8751-2.8906-2.4362-4.6634-.7729-2.4434-.8099-4.5999-.1141-6.5953,.7083-2.0275,2.0828-3.7844,4.2028-5.367,.7156-.535,1.015-1.4639,.7451-2.316l-2.3115-7.3049,8.5685-2.7105,1.9576,6.1853c.3393,1.0712,1.4643,1.691,2.5429,1.3957,1.5248-.4058,3.0727-.7759,4.5779-1.097l1.3881,6.5308c-2.8061,.3242-5.3468,.8269-7.5483,1.4927-1.292,.3685-2.3807,.9054-3.2338,1.5911-.9695,.7764-1.6124,1.652-1.9104,2.6016-.2297,.733-.3523,1.3581-.3745,1.9075-.0261,.6109,.0464,1.1888,.214,1.7171,.155,.4919,.4105,.9792,.7787,1.4856,.3443,.4738,.8428,.9709,1.5281,1.5213,.7838,.628,1.8106,1.0852,3.1368,1.3968,1.213,.287,2.5969,.3623,4.0827,.2766,1.2837-.0651,2.6169,.0557,3.9605,.3609,1.334,.3043,2.6669,.8265,3.96,1.5525,1.2314,.6927,2.3759,1.7016,3.4014,2.9984,1.0403,1.3165,1.8521,2.8838,2.414,4.6579,.8541,2.7002,.9801,5.0609,.3743,7.0165Z"/></g></svg>