<?xml version="1.0" encoding="UTF-8"?><svg id="Financial_Analysis" xmlns="http://www.w3.org/2000/svg" viewBox="0 0 1453.8739 808.9071"><defs><style>.cls-1{fill:#faa819;}.cls-2{fill:#fefaf5;}.cls-3{fill:#072019;}.cls-4{fill:#fff6e7;}</style></defs><g><path class="cls-2" d="M818.7337,273.4776c-38.25,68.0853-37.1278,125.0972-22.8987,138.8761,17.8804-48.0674,25.6206-96.0129,22.8987-138.8761Z"/><path class="cls-4" d="M269.7867,408.4711c3.73-14.75,7.54-29,11.3399-42.63,11.81-42.37,23.5701-78.68,32.5401-104.84,9.54-27.85,15.9399-44.22,15.9399-44.22-2.9399-.34-5.78-.81-8.5099-1.4-24.19-5.21-39.3601-19.36-35.74-33.29,4.43-17.03,29.2699-20.55,54.79-5.14,1.2,5.87,6.33,9.11,8.44,10.77,2.86,2.25-5.1001,12.04,0,15.11,5.11,3.07,20.83-9.8,23.08-14.19,15.73,0,58.1999-18.49,60.0699-45.52,0,0,28.81-4.3,47.1501,25.2,7.4199,11.95,19.27,20.42,30.6799,23.11,36.4501,41.62,67.4001,91.7,63.86,96.43-5.25,7-84.63-26.85-84.63-26.85,0,0-22.0399,82.34-34.5299,169.12-1.85,12.79-3.48,25.68-4.8,38.42-1.8,17.33,34.8399,85.39,34.8399,85.39l.11,.19c11.4301-7.02,21.6201-13.04,27.14-16.72,14.1299-9.44,22.7001-26.75,68.6501-20.63,3.77,.51,9.2199-.41,15.44-2.09,19.74-5.35,47.2201-18.57,53.0699-19.46,1.04-.15,2.46,1.46,4.1401,4.41,56.8099-26.57,84.4598-38.15,102.1399-38.7,.509-.0161,1.054-.0161,1.6257-.0035,.0208,.0004,.0403,.0003,.061,.0008,.5564,.0132,1.1445,.0413,1.7563,.0807,.0452,.0029,.0889,.0051,.1345,.0081,.5972,.0402,1.2214,.0938,1.8672,.1581,.0713,.0071,.1415,.0136,.2135,.021,.6366,.0655,1.2964,.1431,1.976,.2311,.0894,.0115,.1782,.023,.2683,.035,.6827,.0906,1.3857,.1924,2.1079,.3048,.0867,.0135,.1736,.0273,.2607,.0411,.2118,.0336,.4214,.0657,.6365,.1011,6.9955-15.8806,11.6074-26.2737,11.6074-26.2737-25.2909-15.4871-26.9233-71.225-3.9115-140.2405,8.5448-25.6379,20.5726-52.2473,35.488-74.9608-7.944-24.8691-20.5563-46.5399-37.9517-63.5433C635.9967,24.8111,398.1667-78.2489,188.9866,107.6411-53.2833,322.9311-44.9133,549.9511,113.9667,654.9811c15.05-54.72,32.3499-93.3199,46.17-124.96,59.64-136.53,109.65-121.55,109.65-121.55Z"/></g><g><path class="cls-3" d="M942.7865,188.1411c-7.9299-16.46-19.83-26.33-35.3699-29.33-29.2001-5.63-58.4102,7.29-84.4801,37.36-20.9,24.12-39.61,58.97-52.66,98.1299-22.95,68.83-21.71,124.1,2.8501,142.59-1.7001,3.85-5.02,11.34-9.3601,21.19-.9299,2.12-1.9099,4.34-2.9399,6.67,2.14,.23,4.55,.6,7.1699,1.1,1.01-2.29,1.9701-4.48,2.8901-6.56,5.8499-13.29,9.6599-21.86,9.8199-22.23,.72-1.6,.13-3.48-1.37-4.4-23.75-14.54-24.72-69.26-2.4199-136.15,22.5-67.5,69.8298-142.27,129.1699-130.82,13.25,2.55,23.48,11.13,30.39,25.49,20.1901,41.92,8.84,129.02-25.3,194.17-21.73,41.46-45.35,57.89-61.34,64.36-17.15,6.95-29.4199,4.22-29.53,4.2-1.72-.42-3.48,.52-4.1,2.17-.8199,2.19-3.0599,7.56-6.2999,15.15-.8601,2.02-1.79,4.19-2.78,6.5,2.1699,.89,4.3099,1.8199,6.4099,2.78,.99-2.31,1.92-4.48,2.78-6.49,2.39-5.6,4.24-10,5.39-12.82,5.09,.56,16.16,.79,30.2101-4.78,17.22-6.83,42.5698-24.13,65.46-67.82,16.22-30.95,28.4299-69.71,33.49-106.33,5.36-38.75,2.49-72.18-8.0801-94.13Zm-195.5699,421.91c-7.52,15.3899-13.36,26.36-15.87,28.9399-2.1001-.13-8.55-2.53-16.1101-7.0699-9.2-5.53-12.6599-9.7001-12.99-11,1.0901-3.5699,3.8-10.61,7.5901-19.9401,.84-2.0599,1.73-4.22,2.6699-6.49-2.2899-.7-4.5299-1.3999-6.7-2.11-.9399,2.27-1.83,4.4301-2.6599,6.49-3.8501,9.49-6.5901,16.64-7.67,20.24-1.1,3.67,1.33,7.85,7.42,12.78,5.47,4.4301,20.8999,14.03,28.83,14.02,1.12,0,2.09-.1901,2.86-.61,1.48-.8101,4.35-2.39,19.97-34.3501,1.04-2.1199,2.13-4.3699,3.28-6.77-2.3501-.1299-4.8401-.3799-7.4199-.73-1.1001,2.28-2.1702,4.48-3.2001,6.6001Z"/><path class="cls-3" d="M794.3255,415.7059c4.7832,4.0059,10.4014,6.0361,16.5508,6.0361,2.8369,0,5.7881-.4326,8.8213-1.3027,28.9492-8.3047,64.3018-56.0762,82.2334-111.1206v.0005c16.0352-49.2163,12.4824-94.188-8.2656-104.6089-9.0166-4.5308-28.6836-5.7266-59.042,37.165-32.9277,46.5166-44.8965,86.2188-49.1387,111.3335-4.9512,29.312-1.4814,53.8428,8.8408,62.4971Zm46.0107-169.7866c16.7256-23.6299,32.2773-36.4053,43.8984-36.4053,2.25,0,4.3535,.4795,6.2891,1.4517,14.916,7.4917,20.9736,46.396,4.751,96.1845v.0005c-16.9912,52.1597-51.0371,98.9663-77.5078,106.5601-7.374,2.1182-13.749,.9814-18.9453-3.3701-14.0527-11.7818-16.876-81.9322,41.5146-164.4214Z"/></g><path class="cls-3" d="M433.6426,210.9047l4.0461-10.0409c.8735-2.1677-.1756-4.633-2.3433-5.5065-2.1677-.8735-4.633,.1756-5.5065,2.3433l-4.0462,10.0409c-.8735,2.1677,.1757,4.6331,2.3433,5.5066,2.1677,.8735,4.6331-.1757,5.5066-2.3434Z"/><g><path class="cls-3" d="M1067.5294,771.8629c-.3494,.5125-.8657,1.0588-1.5481,1.6384-.684,.5807-1.6902,.9421-3.0198,1.0845-1.3301,.1421-2.8479-.0432-4.5547-.5547-1.5732-.4237-3.2505-.994-5.0338-1.7114-1.7833-.7175-3.2267-1.3298-4.3278-1.8376-1.1025-.5071-2.1614-1.0295-3.1752-1.5665-.4159-.2173-.8296-.2496-1.2391-.0969-.4106,.1538-.6998,.4445-.8676,.8733l-5.2719,13.9977c-.1057,.3926-.0762,.7698,.0905,1.1312,.1659,.361,.4147,.6117,.7457,.7543,2.6095,1.0708,5.5653,2.1312,8.8683,3.1787l-3.2361,12.0157c-.1057,.3925-.0603,.7606,.1375,1.1041,.1969,.342,.4921,.5674,.8859,.6735l17.8391,4.8043c.3926,.1057,.761,.0591,1.1042-.1373,.3424-.1981,.5676-.4933,.6733-.8859l3.6332-13.4897c5.2495-.116,9.4246-1.4818,12.528-4.0974,3.1023-2.6172,5.3491-6.5052,6.7388-11.6653,.8999-3.3416,1.1924-6.5834,.8799-9.7249-.3142-3.1407-1.1191-5.9272-2.4138-8.3585-1.2957-2.4304-2.843-4.5605-4.6432-6.3895-1.8007-1.8291-3.7521-3.3429-5.8531-4.5413-1.8833-1.0334-3.4116-2.1567-4.5872-3.3701-1.1755-1.2122-1.939-2.3406-2.2908-3.3838-.3513-1.0437-.5465-1.887-.5836-2.5293-.0383-.6427,.0028-1.1851,.1221-1.6274,.1322-.4907,.3689-.9805,.7115-1.4683,.3416-.4878,.8708-1.0308,1.585-1.6292,.7146-.5983,1.7358-.9677,3.0665-1.111,1.3293-.1425,2.823,.0364,4.4811,.5348,4.0155,1.1345,8.3599,2.911,13.0333,5.3284,.3661,.2051,.7577,.2178,1.1749,.0398,.4161-.1769,.7021-.4558,.858-.8361l5.2719-13.9974c.1539-.3796,.136-.7537-.0538-1.1215-.1913-.3678-.4528-.6219-.7826-.764-3.0037-1.177-6.0824-2.2708-9.2371-3.2782l3.2361-12.0157c.1057-.3925,.0513-.7769-.1641-1.151-.2155-.3741-.5205-.6143-.9131-.7198l-17.8391-4.8044c-.3938-.1062-.7653-.0482-1.114,.174-.3501,.2219-.5778,.5304-.6835,.923l-3.7324,13.8585c-4.9456,.3556-9.0552,1.818-12.329,4.3877-3.2753,2.5707-5.5479,6.2145-6.8184,10.9323-.9001,3.3423-1.1843,6.5991-.8528,9.7717,.3315,3.1727,1.1478,5.9619,2.4504,8.3682,1.301,2.4064,2.8368,4.5334,4.6063,6.38,1.7682,1.847,3.735,3.3517,5.8998,4.514,1.8822,1.0344,3.4116,2.1577,4.5873,3.3699,1.1752,1.2134,1.9264,2.3374,2.2535,3.3741,.3267,1.0365,.509,1.8763,.5471,2.5194,.0371,.6423-.0098,1.2104-.1418,1.7012-.1191,.4419-.354,.92-.7019,1.4316Z"/><path class="cls-3" d="M1066.2914,771.0174c-.2734,.3994-.7051,.8506-1.2812,1.3408-.4404,.374-1.2041,.6289-2.209,.7363-1.1211,.1162-2.4541-.0479-4.0039-.5117-1.5088-.4062-3.1445-.9629-4.8643-1.6553-1.7568-.7061-3.1904-1.3145-4.2607-1.8086-1.0703-.4912-2.1133-1.0059-3.1064-1.5322-.7959-.417-1.6445-.4756-2.4619-.1729-.8135,.3057-1.4141,.9043-1.7441,1.75l-5.2715,13.9971c-.0176,.0449-.0322,.0918-.0449,.1387-.1963,.7295-.1348,1.4727,.1768,2.1494,.3203,.6953,.8438,1.2148,1.5381,1.5137,2.2773,.9346,4.835,1.8672,7.6182,2.7803l-2.8633,10.6338c-.2109,.7773-.1133,1.5537,.2852,2.2471,.3975,.6885,1.0186,1.1631,1.7949,1.3711l17.8398,4.8047c.2656,.0713,.5303,.1074,.791,.1074,.5049,0,.9971-.1328,1.4531-.3945,.6885-.3975,1.1631-1.0176,1.3711-1.7949l3.3457-12.4238c5.0605-.29,9.2051-1.7695,12.334-4.4062,3.3281-2.8066,5.7568-6.9863,7.2207-12.4219,.9434-3.502,1.2539-6.9551,.9229-10.2637-.3311-3.3184-1.1992-6.3184-2.582-8.916-1.3604-2.5508-3.0078-4.8164-4.8975-6.7354-1.8906-1.9199-3.9697-3.5322-6.2012-4.8047-1.7422-.9551-3.165-1.998-4.2324-3.0996-1.0117-1.043-1.667-1.9912-1.9453-2.8164-.3828-1.1396-.4873-1.792-.5078-2.1406-.0352-.5938,.0205-.9521,.0742-1.1494,.085-.3184,.25-.6533,.4922-.998,.1797-.2578,.5557-.6992,1.3193-1.3389,.4766-.4004,1.2383-.6592,2.2617-.7695,1.1201-.1201,2.4307,.042,3.9131,.4873,3.8994,1.1016,8.1895,2.8574,12.709,5.1934,.7666,.4287,1.6523,.4678,2.4951,.1123,.7773-.3311,1.3506-.9004,1.6738-1.6885l5.2578-13.9609c.3223-.791,.2832-1.6123-.1133-2.3799-.3496-.6709-.876-1.1719-1.5645-1.4668-2.5898-1.0156-5.2637-1.9775-7.9658-2.8682l2.8652-10.6396c.209-.7783,.1016-1.5693-.3135-2.291-.415-.7188-1.0449-1.209-1.8223-1.418l-17.8398-4.8057c-.8057-.2119-1.6016-.0918-2.3066,.3564-.667,.4238-1.126,1.0459-1.3281,1.7998l-3.46,12.8477c-4.7627,.5049-8.8232,2.0527-12.0791,4.6094-3.5205,2.7617-5.9902,6.7061-7.3408,11.7217-.9443,3.5078-1.2451,6.9795-.8965,10.3174,.3506,3.3555,1.2334,6.3594,2.623,8.9268,1.3604,2.5146,2.9893,4.7695,4.8428,6.7031,1.8701,1.9531,3.9805,3.5674,6.2607,4.791,1.7412,.957,3.166,2,4.2324,3.0996,1.0059,1.0381,1.6455,1.9746,1.9004,2.7803,.3584,1.1406,.459,1.8027,.4805,2.1562,.0273,.4805-.0039,.8916-.0938,1.2236-.0518,.1914-.1787,.5166-.4912,.9766Zm22.2188,6.0586h0Zm4.1855-39.6025h0Zm-23.4395,28.2852c-.4023-1.2734-1.2549-2.5703-2.6074-3.9668-1.2744-1.3145-2.9375-2.5391-4.9541-3.6465-2.0146-1.082-3.874-2.5049-5.5264-4.2305-1.667-1.7393-3.1377-3.7773-4.3701-6.0557-1.2021-2.2207-1.9688-4.8477-2.2773-7.8105-.3115-2.9707-.0391-6.0752,.8086-9.2266,1.1787-4.375,3.2969-7.7881,6.2959-10.1416,3.0195-2.3691,6.8916-3.7393,11.5107-4.0713,.6367-.0459,1.1748-.4893,1.3408-1.1064l3.6924-13.8975,17.8574,4.8379-3.2363,12.0156c-.209,.7734,.2285,1.5742,.9922,1.8184,3.1045,.9922,6.1816,2.084,9.0879,3.2197,0,0,.0078,.0068,.0225,.0273l-5.2998,13.8955c-4.7031-2.4258-9.1475-4.2373-13.1875-5.3789-1.8447-.5537-3.5479-.7549-5.0732-.5898-1.627,.1758-2.9287,.6641-3.8682,1.4521-.8262,.6924-1.4316,1.3203-1.8496,1.917-.4424,.6309-.7568,1.2842-.9326,1.9414-.1631,.6055-.2197,1.2939-.1709,2.1035,.0449,.7803,.2598,1.7363,.6592,2.9219,.4287,1.2715,1.291,2.5635,2.6348,3.9482,1.2744,1.3154,2.9375,2.541,4.9209,3.6289,1.9707,1.124,3.8311,2.5674,5.5283,4.292,1.6875,1.7129,3.1641,3.7461,4.3877,6.041,1.1973,2.25,1.9521,4.875,2.2451,7.8037,.2939,2.9443,.0127,6.0352-.835,9.1855-1.3018,4.833-3.4072,8.5029-6.2578,10.9072-2.8213,2.3779-6.7217,3.6377-11.5947,3.7451-.666,.0146-1.2422,.4668-1.415,1.1104l-3.5723,13.4541-17.8037-4.7441,3.2354-12.0156c.209-.7744-.2295-1.5771-.9941-1.8193-3.2383-1.0273-6.1836-2.083-8.7051-3.1309-.0107-.0234-.0176-.0381-.0137-.0693l5.2373-13.8828c1.0361,.5488,2.1299,1.0889,3.249,1.6035,1.1143,.5137,2.5938,1.1416,4.3955,1.8662,1.8301,.7363,3.5811,1.3311,5.1631,1.7568,1.8936,.5674,3.626,.7705,5.1455,.6094,1.627-.1738,2.916-.6562,3.8311-1.4326,.792-.6729,1.3857-1.3057,1.8184-1.9385,.4404-.6484,.7461-1.2822,.9082-1.8828,.1738-.6426,.2383-1.376,.1914-2.1816-.0459-.7725-.2461-1.7148-.6143-2.8828Z"/></g><g><path class="cls-3" d="M931.7635,733.9098c-1.1086,4.0132-.7728,8.2944,1.0067,12.8448,1.2606,3.2235,2.9661,6.0126,5.1171,8.3683,2.1509,2.3557,4.4641,4.115,6.9412,5.2773,2.476,1.1633,4.9746,1.9626,7.4951,2.3975,2.5193,.436,4.9954,.4785,7.4272,.1279,2.1288-.2854,4.0264-.29,5.6921-.0129,1.6661,.2782,2.938,.7366,3.817,1.3762,.8783,.6401,1.5238,1.2075,1.9364,1.7023,.4113,.4948,.7109,.9796,.896,1.4529,.1667,.4264,.2617,.9506,.2856,1.5686,.0232,.6198-.0679,1.3661-.2725,2.2377-.2056,.8735-.8005,1.7617-1.7855,2.6658-.9858,.9043-2.317,1.6567-3.994,2.2588-1.5173,.5935-3.2056,1.1306-5.0664,1.6125-1.8608,.4817-3.3856,.8463-4.5732,1.0916-1.188,.2468-2.3503,.4553-3.4849,.6254-.4639,.0721-.8158,.2919-1.0544,.6578-.2391,.3678-.2993,.7732-.1794,1.218l4.0714,14.3926c.1479,.3787,.3958,.6646,.7445,.8564,.3479,.1919,.6968,.2458,1.0481,.1641,2.7354-.6882,5.7432-1.5903,9.0227-2.7094l4.5322,11.5892c.1482,.3787,.4033,.6477,.7664,.8069,.3616,.1581,.7329,.1641,1.1127,.0156l17.2058-6.729c.3785-.1479,.6473-.4043,.8068-.7664,.1578-.3627,.1638-.7339,.0157-1.1125l-5.0883-13.011c4.1547-3.2107,6.7026-6.7891,7.646-10.7366,.9419-3.948,.4404-8.4105-1.5059-13.3873-1.2605-3.2229-2.9504-6.005-5.0676-8.3466-2.1179-2.3406-4.4204-4.1044-6.906-5.2917-2.4858-1.1858-4.9957-1.9806-7.5303-2.3831-2.5349-.4023-5.0039-.4612-7.406-.1775-2.1292,.2869-4.0256,.2908-5.6923,.0127-1.6656-.2771-2.9498-.7316-3.8527-1.3621-.9023-.631-1.5603-1.1935-1.9716-1.6885-.4125-.4941-.7014-.9551-.8683-1.3818-.1851-.4731-.2854-1.0078-.2994-1.6039-.015-.5952,.0885-1.3463,.3077-2.2518,.2196-.9058,.8219-1.8096,1.8074-2.7151,.9851-.9041,2.2928-1.6472,3.9229-2.231,3.9045-1.4719,8.4546-2.6226,13.6503-3.4532,.4165-.0524,.7391-.2748,.9691-.6656,.2297-.3895,.2942-.7837,.1938-1.1824l-4.0713-14.3925c-.1016-.3969-.3381-.6871-.7094-.8702-.3723-.1823-.7338-.2314-1.0834-.1501-3.1157,.8369-6.2422,1.7854-9.3785,2.8484l-4.5323-11.5891c-.1481-.3787-.42-.6555-.8157-.8286-.3955-.1731-.7834-.1852-1.1621-.0371l-17.2058,6.729c-.3798,.1484-.6443,.4155-.793,.8015-.1499,.3865-.1498,.7698-.0017,1.1484l5.2274,13.3665c-3.7679,3.2231-6.2057,6.8403-7.3136,10.8523Z"/><path class="cls-3" d="M930.3167,733.5106c-1.1904,4.3125-.8359,8.9521,1.0566,13.79,1.3213,3.3799,3.1406,6.3516,5.4062,8.834,2.2764,2.4922,4.7705,4.3848,7.4111,5.623,2.5869,1.2158,5.2383,2.0635,7.877,2.5186,2.6641,.459,5.3193,.5068,7.8828,.1357,1.9727-.2627,3.7383-.2695,5.2451-.0195,1.4277,.2383,2.498,.6113,3.1807,1.1084,.9648,.7041,1.4404,1.1787,1.666,1.4482,.3086,.3721,.5283,.7217,.6533,1.043,.0713,.1826,.1611,.5176,.1836,1.0752,.0176,.4834-.0615,1.1035-.2334,1.8389-.1328,.5645-.5967,1.2227-1.3408,1.9043-.832,.7646-2.0049,1.4219-3.5254,1.9678-1.4531,.5684-3.1006,1.0918-4.8975,1.5566-1.833,.4756-3.3467,.8369-4.502,1.0752-1.1582,.2412-2.3027,.4473-3.4092,.6123-.8877,.1387-1.6064,.5947-2.082,1.3223-.4727,.7275-.6006,1.5654-.3652,2.4434l4.0723,14.3936c.0127,.0469,.0283,.0918,.0459,.1367,.2744,.7031,.7637,1.2646,1.418,1.626,.6719,.3682,1.4033,.4766,2.1367,.3037,2.3857-.5996,4.998-1.3682,7.7803-2.2871l4.0127,10.2578c.293,.751,.833,1.3164,1.5625,1.6367,.3799,.165,.7734,.248,1.1699,.248,.3643,0,.7305-.0703,1.0908-.2109l17.2021-6.7285c.7471-.29,1.3125-.8281,1.6406-1.5674,.3145-.7275,.3271-1.5059,.0352-2.2559l-4.6865-11.9834c3.8994-3.2373,6.3555-6.8896,7.3066-10.8691,1.0098-4.2344,.4824-9.04-1.5684-14.2812v-.001c-1.3193-3.374-3.1201-6.3369-5.3516-8.8066-2.2412-2.4756-4.7217-4.3721-7.3721-5.6377-2.6064-1.2441-5.2783-2.0889-7.9414-2.5117-2.6592-.4219-5.2881-.4854-7.8418-.1816-1.9717,.2646-3.7354,.2705-5.2471,.0186-1.4336-.2383-2.5234-.6123-3.2383-1.1113-.9854-.6885-1.4561-1.1514-1.6787-1.4199-.3809-.4561-.5498-.7783-.624-.9678-.1201-.3076-.1865-.6758-.1963-1.0947-.0078-.3145,.0312-.8936,.2656-1.8613,.1465-.6055,.6064-1.2666,1.3633-1.9629,.832-.7627,1.9814-1.4102,3.4385-1.9326,3.792-1.4297,8.2871-2.5654,13.3096-3.3682,.8721-.1104,1.6084-.6045,2.0742-1.3926,.4297-.7305,.5518-1.5293,.3438-2.3525l-4.0615-14.3564c-.2119-.8252-.7295-1.4629-1.5059-1.8467-.6777-.3301-1.4004-.4199-2.1299-.25-2.6992,.7256-5.4209,1.5391-8.1104,2.4229l-4.0137-10.2617c-.293-.749-.8496-1.3213-1.6123-1.6562-.7617-.333-1.5615-.3535-2.3086-.0586l-17.2051,6.7275c-.7744,.3027-1.3438,.876-1.6475,1.6582-.2842,.7354-.2832,1.5088,.002,2.2354l4.8457,12.3916c-3.5322,3.2334-5.8789,6.8906-6.9824,10.8818Zm41.8867-7.1123h0Zm-31.7295-3.8867l-5.2832-13.373,17.2402-6.7148,4.5332,11.5889c.292,.7471,1.1191,1.1309,1.8779,.875,3.0684-1.04,6.1934-1.9893,9.2227-2.8076,0,0,.0117,.001,.0352,.0098l4.0498,14.293s-.0059,.0117-.0137,.0264c-5.2432,.8418-9.9111,2.0254-13.8525,3.5117-1.8115,.6494-3.3027,1.5029-4.4326,2.5381-1.2031,1.1074-1.96,2.2734-2.25,3.4678-.2529,1.0469-.3672,1.9111-.3496,2.6406,.0195,.7695,.1553,1.4805,.4033,2.1143,.2285,.585,.5928,1.1719,1.1104,1.793,.5,.6025,1.2412,1.2432,2.2676,1.96,1.1006,.7686,2.5615,1.2959,4.4639,1.6113,1.8076,.3008,3.873,.3008,6.1152-.002,2.2559-.2656,4.6084-.21,6.9951,.1689,2.3789,.3779,4.7734,1.1367,7.1191,2.2559,2.2959,1.0967,4.4629,2.7598,6.4395,4.9434,1.9873,2.1982,3.5967,4.8516,4.7842,7.8867,1.8223,4.6621,2.3086,8.8652,1.4434,12.4932-.8574,3.5869-3.248,6.918-7.1045,9.8984-.5273,.4072-.7227,1.1123-.4795,1.7324l5.1152,12.9473-17.1406,6.7568-4.5332-11.5898c-.2305-.5898-.7949-.9531-1.3965-.9531-.1611,0-.3242,.0254-.4844,.0801-3.2168,1.0986-6.2129,1.998-8.8613,2.6523-.0225-.0127-.0371-.0205-.0527-.0469l-4.0322-14.2812c1.1543-.1729,2.3545-.3887,3.5654-.6406,1.2012-.2471,2.7646-.6201,4.6465-1.1084,1.9102-.4941,3.6729-1.0557,5.1982-1.6523,1.8574-.667,3.3721-1.5303,4.5-2.5654,1.2051-1.1055,1.957-2.2578,2.2334-3.4287,.2363-1.0117,.3379-1.873,.3105-2.6396-.0312-.7979-.1592-1.4707-.3877-2.0537-.2412-.6182-.624-1.2471-1.1426-1.8701-.4961-.5938-1.2168-1.2324-2.2041-1.9531-1.0791-.7852-2.5352-1.3223-4.4541-1.6426-1.8027-.3008-3.8682-.2979-6.1514,.0078-2.2637,.3252-4.6055,.2852-6.959-.1221-2.375-.4092-4.7676-1.1748-7.1133-2.2773-2.2832-1.0713-4.4609-2.7295-6.4707-4.9307-2.0166-2.208-3.6406-4.8672-4.8271-7.9023-1.6514-4.2217-1.9736-8.2256-.958-11.8994,1.0215-3.7002,3.3242-7.1016,6.8428-10.1123,.4854-.415,.6553-1.0918,.4219-1.6855Z"/></g><path class="cls-3" d="M267.1756,404.5418c-12.9536-.9433-58.3808,5.3438-110.248,124.0791l-1.8814,4.3038c-18.9311,43.2783-44.8578,102.5498-61.6504,198.2637-.3339,1.9033,.9385,3.7178,2.8423,4.0518,.2047,.0361,.4082,.0537,.6089,.0537,1.668,0,3.1455-1.1973,3.4434-2.8965,16.6474-94.8867,42.3799-153.7139,61.1689-196.6671l1.8833-4.3066c30.0693-68.836,57.3682-97.7129,74.9745-109.8174,18.6372-12.8135,30.3902-9.7998,30.4678-9.7803,.9145,.2735,1.9014,.1631,2.7319-.3086,.8301-.4707,1.4322-1.2607,1.666-2.1865,15.4307-61.0815,32.3311-113.7617,43.7915-147.1992,9.4063-27.4448,15.8296-43.9087,15.8936-44.0718,.3945-1.0098,.2993-2.145-.2578-3.0747-.5576-.9297-1.5142-1.5488-2.5908-1.6758-2.8233-.3345-5.5772-.7881-8.1846-1.3495-14.5132-3.1221-26.1255-9.769-31.062-17.7803-2.3071-3.7441-2.9898-7.5156-2.0293-11.2099,1.2798-4.918,4.7056-8.5801,9.9082-10.5913,10.9233-4.2202,27.0747-.7295,42.1509,9.1167,1.6191,1.0561,3.7881,.602,4.8442-1.0166,1.0571-1.6182,.6021-3.7871-1.0161-4.8443-16.9292-11.0556-35.5137-14.8061-48.5029-9.7846-7.2867,2.8164-12.315,8.2705-14.1587,15.3579-1.439,5.5341-.4556,11.2895,2.8442,16.6445,6.0064,9.7466,18.9634,17.3833,35.5488,20.9517,1.4341,.3086,2.9068,.5869,4.4078,.833-2.4756,6.5449-7.6913,20.6015-14.4175,40.2256-11.3106,33.0014-27.8994,84.6718-43.1768,144.6796Z"/><path class="cls-3" d="M310.5291,192.1375c9.7354,0,18.021,5.3033,19.2046,6.9234,.6831,.9565,1.7589,1.4663,2.8511,1.4663,.7041,0,1.415-.2119,2.0312-.6523,1.5732-1.1236,1.9375-3.3096,.8139-4.8824-2.5366-3.5512-13.0073-9.855-24.9014-9.855-.0517,0-.1049,.0005-.1567,.0005-1.9331,.0093-3.4927,1.5835-3.4839,3.5161,.0088,1.9278,1.5742,3.4839,3.4995,3.4839,.0518,.0005,.0948-.0005,.1416-.0005Z"/><path class="cls-3" d="M487.2689,257.8636c-.9121,.4439-1.5869,1.2617-1.8491,2.2417-.2911,1.0869-29.2159,109.813-39.4322,208.0811-1.8593,17.8886,31.4395,80.3476,35.2427,87.4101,.6323,1.1748,1.8384,1.8418,3.0845,1.8418,.56,0,1.1284-.1347,1.6562-.4189,1.7022-.917,2.3389-3.0391,1.4224-4.7412-10.0498-18.666-35.8296-70.0313-34.4429-83.3672,9.0698-87.2461,32.9916-182.8648,38.2158-203.1079,6.7427,2.8154,21.646,8.9448,36.7627,14.5395,40.125,14.8506,45.7427,13.022,48.2979,9.6148,1.4121-1.8828,.9277-4.3335,.7685-5.1392-3.4926-17.6754-68.6665-114.6816-119.0869-144.708-1.6621-.9878-3.8095-.4434-4.7983,1.2163-.9888,1.6611-.4443,3.8091,1.2163,4.7984,21.0591,12.5405,49.0503,40.7451,76.7959,77.3808,24.1416,31.8765,37.0332,55.2075,38.8569,61.8809-9.0879,.1347-47.2182-13.6983-79.8056-27.5952-.9336-.398-1.9932-.3712-2.9048,.0721Z"/><path class="cls-3" d="M278.5741,368.243c16.3925,17.4478,44.7275,34.6895,77.7392,47.3036,31.187,11.918,62.5791,18.3086,89.4796,18.3086,2.9438,0,5.8364-.0762,8.666-.2303,1.9302-.1055,3.4097-1.7559,3.3042-3.6856-.105-1.9297-1.7549-3.3975-3.685-3.3047-60.4561,3.2921-139.8257-30.6401-170.4024-63.1846-1.3237-1.4091-3.5395-1.477-4.9472-.1543-1.4087,1.3238-1.4781,3.5386-.1543,4.9473Z"/><path class="cls-3" d="M460.2547,222.3358c.3408,0,.6875-.0503,1.0303-.1558,9.5874-2.9492,23.3984,.0425,23.5342,.0714,1.8847,.4219,3.7568-.7695,4.1758-2.6572,.4194-1.8867-.7701-3.7564-2.6573-4.1758-.6371-.1411-15.7378-3.4282-27.1113,.0713-1.8477,.5684-2.8843,2.5269-2.3159,4.3745,.4629,1.5049,1.8476,2.4717,3.3442,2.4717Z"/><path class="cls-3" d="M405.8695,250.0858c.5746,1.3149,1.8597,2.0991,3.209,2.0991,.4677,0,.9432-.0947,1.3998-.2939,1.771-.774,2.5792-2.8374,1.8051-4.6089-5.7783-13.2202-14.4975-20.5733-26.6928-28.1524-1.6441-1.0215-3.8008-.5161-4.8204,1.125-1.0205,1.6421-.5166,3.8003,1.125,4.8203,13.2208,8.2164,19.4942,14.7608,23.9742,25.0108Z"/><g><path class="cls-3" d="M313.6633,260.997c9.545-27.849,15.945-44.2121,15.945-44.2121-2.9462-.3483-5.7828-.8161-8.51-1.4033-13.9942,8.1018-27.9088,13.4467-37.2349,8.6393-11.6054-5.9619-16.582,34.9855,29.7999,36.9761Z"/><path class="cls-3" d="M273.93,241.327c2.2949,6.5532,10.7451,21.9292,39.5836,23.1665,.0503,.0024,.1006,.0034,.1509,.0034,1.4892,0,2.8237-.9458,3.31-2.3652,9.4063-27.4443,15.8296-43.9087,15.8936-44.0718,.3945-1.0098,.2993-2.145-.2578-3.0747-.5576-.9297-1.5142-1.5483-2.5908-1.6758-2.8233-.3345-5.5772-.7881-8.1846-1.3495-.8486-.1812-1.7368-.0425-2.4897,.3931-15.7764,9.1338-27.1739,12.0132-33.8824,8.5547-3.0669-1.5747-6.3896-1.2159-8.8896,.9589-4.2671,3.7164-5.354,11.7188-2.6431,19.4605Zm7.2407-14.1816c.1324-.1158,.2496-.2173,.4527-.2173,.1504,0,.3486,.0561,.6362,.2036,9.02,4.6509,21.5684,2.0923,39.4286-8.0537,1.0112,.2011,2.0396,.3877,3.0816,.5586-2.3687,6.2612-7.2452,19.3984-13.5518,37.706-22.4585-1.771-28.9238-13.31-30.6812-18.3291-1.9814-5.6582-.9052-10.5278,.6338-11.8681Z"/></g><g><path class="cls-3" d="M348.5914,202.8321c5.1054,3.0633,20.8302-9.8048,23.0766-14.1943,15.7248,0,58.2023-18.4806,60.0727-45.5202,0,0,28.7999-4.2944,47.142,25.2016,15.1121,24.302,48.5385,34.2506,59.2233,10.4151,7.9645-17.767-22.3166-3.6912-25.7315-14.091-4.4928-13.6827-3.0633-41.0479-31.8581-51.4631-28.7948-10.4151-53.7094,10.0068-53.7094,10.0068-15.1122-19.4008-65.9625-19.4008-86.1801,46.5617-3.256,10.6229,5.1054,15.7248,7.9645,17.9712,2.859,2.2464-5.1055,12.0489,0,15.1122Z"/><path class="cls-3" d="M346.7904,205.8329c1.0703,.6425,2.313,.9638,3.7148,.9638,1.0132,0,2.1099-.1679,3.2847-.5039,6.6279-1.8965,16.0439-9.4658,19.772-14.2241,17.7998-1.2412,56.7437-19.023,61.3042-45.6592,7.1083-.145,27.2446,1.5659,41.0444,23.7578,10.0317,16.1333,27.833,26.666,43.291,25.627,10.0366-.6782,17.8843-6.2285,22.0981-15.6284,.7466-1.6656,3.0191-6.7344,.4253-10.668-2.7968-4.2422-9.0312-4.1377-15.0586-4.041-4.3427,.0718-10.2846,.1694-10.9668-1.9053-.8535-2.5991-1.5156-5.9263-2.2167-9.4492-2.9615-14.8794-7.0171-35.2583-31.7759-44.2139-25.0196-9.0493-46.9077,3.4473-54.4014,8.5889-8.1729-8.1758-21.7124-11.7798-35.5596-9.2266-11.5473,2.127-39.9707,12.1807-54.4653,59.4722l3.3462,1.0259-3.3462-1.0259c-3.6982,12.0659,5.0376,18.6611,8.376,21.1631-.1602,.7539-.5484,1.9184-.8277,2.7578-1.247,3.7446-3.3339,10.0122,1.9615,13.189Zm3.5981-5.9717h0Zm-6.4155-29.0864c9.415-30.7173,27.2895-50.6329,49.041-54.6403,12.481-2.2978,24.9526,1.3994,31.0317,9.2031,.5787,.7427,1.4341,1.2193,2.3697,1.3252,.9365,.107,1.8764-.1709,2.6059-.7656,.2349-.1914,23.7866-19.019,50.3047-9.4258,21.0449,7.6123,24.5083,25.0147,27.2916,38.9976,.7437,3.7358,1.4457,7.2646,2.4316,10.2661,2.2896,6.9736,10.8476,6.832,17.7319,6.7207,2.7231-.0454,8.395-.1372,9.0996,.8945,.0967,.1631,.2153,1.3106-.9688,3.9522-3.1494,7.0259-8.7451,11.0049-16.1821,11.5073-12.7915,.8711-28.289-8.5317-36.875-22.3389-19.3335-31.0903-49.3628-27.0039-50.6304-26.8154-1.6245,.2422-2.8623,1.582-2.9755,3.2202-1.6578,23.9707-41.0205,42.2622-56.5811,42.2622-1.314,0-2.5172,.7359-3.1157,1.9058-2.0142,3.9355-14.9194,13.4282-18.186,12.7554-.2588-.8506,.6582-3.6035,1.1044-4.9439,1.0962-3.2928,2.461-7.3911-.7168-9.8871-.2524-.1987-.5449-.418-.8667-.6592-4.1401-3.103-8.0073-6.7041-5.914-13.5341Z"/></g><path class="cls-3" d="M278.0687,432.0604c20.2954,36.3545,40.7866,54.5967,54.812,48.79,4.2876-1.7744,11.2812-5.6748,19.3789-10.1904,12.1167-6.7578,34.667-19.3281,39.1016-18.0166,3.2114,1.4824,9.6816,16.3701,13.5468,25.2647,5.0655,11.6552,8.3291,18.9344,11.4693,21.6259,1.4033,1.2032,3.1211,1.8252,5.0117,1.8252,.2983,0,.6011-.0146,.9072-.0459,7.7998-.7939,17.0493-12.2588,18.8242-14.5498,1.1841-1.5273,.9053-3.7256-.6225-4.9101-1.5283-1.1836-3.7266-.9063-4.9107,.623-3.5449,4.5742-10.4462,11.5107-14,11.8721-.4531,.0508-.5678-.0557-.6543-.1289-2.0771-1.7803-6.2509-11.3848-9.6044-19.1016-7.0933-16.3203-11.7789-26.4053-17.0347-28.8301-5.9839-2.7656-18.2979,3.1202-45.4434,18.2578-7.5781,4.2266-14.7353,8.2178-18.6465,9.836-9.7968,4.0644-28.7265-14.751-46.0229-45.7334-.9424-1.6875-3.0732-2.294-4.7622-1.3496-1.688,.9414-2.292,3.0742-1.3501,4.7617Z"/><path class="cls-3" d="M370.6292,493.8915c3.2036,2.5644,14.0015,4.8154,20.8741,4.8154,1.8706,0,3.4511-.167,4.5073-.5391,4.168-1.4717,12.8457-11.5273,16.3828-15.7832,1.2358-1.4863,1.0322-3.6933-.4541-4.9286-1.4868-1.2373-3.6943-1.0342-4.9287,.4541-4.9497,5.9541-11.499,12.8672-13.3262,13.6553-2.833,.9355-16.4517-1.3545-18.6821-3.1397-2.2363-1.7881-5.44-14.415-8.5381-26.6259l-.4375-1.7227c-.4756-1.874-2.3828-3.0049-4.2534-2.5313-1.8736,.4756-3.0069,2.3809-2.5308,4.254l.4365,1.7216c4.7705,18.8018,7.0445,27.2461,10.9502,30.3702Z"/><path class="cls-3" d="M399.6756,609.2362c.0576,0,.1157-.001,.1738-.0039,1.9307-.0947,3.4195-1.7363,3.3248-3.667-.1612-3.3008-3.9649-81.1875-4.834-110.8008-.0562-1.9326-1.6631-3.4902-3.6011-3.3955-1.9321,.0566-3.4526,1.6689-3.396,3.6006,.8711,29.6806,4.6782,107.6338,4.8398,110.9375,.0914,1.873,1.6382,3.3291,3.4927,3.3291Z"/><path class="cls-3" d="M344.7611,652.5819c1.8115,0,3.3452-1.3965,3.4858-3.2324,6.3062-82.3067,27.7129-156.4756,27.9286-157.2149,.5405-1.8564-.5254-3.7988-2.3813-4.3398-1.8545-.5371-3.7989,.5254-4.3394,2.3808-.2173,.7461-21.8237,75.5811-28.1875,158.6387-.1478,1.9277,1.2949,3.6094,3.2222,3.7578,.0913,.0068,.1816,.0098,.2715,.0098Z"/><path class="cls-3" d="M633.6644,623.8964c-1.3213,.4238-2.2588,1.5127-2.4028,2.8926-.0444,.2979-5.5474,30.6914-103.5562,108.4922-1.5137,1.2021-1.7666,3.4033-.5649,4.917,.6909,.8711,1.7123,1.3242,2.7435,1.3242,.7622,0,1.5303-.248,2.1738-.7588,87.4073-69.3848,102.8843-102.1533,105.5933-110.8057,3.7329-1.2324,12.5669-4.209,21.4131-7.6338,23.0796-8.9365,25.665-12.7861,26.2769-15.6934,2.3076-10.96-7.8452-47.4131-11.0117-58.3242-6.1748-21.2774-15.457-48.3154-21.2935-54.4932-1.5205-1.6093-3.1543-2.2988-4.8472-2.0371-2.7739,.4209-8.3022,2.6406-17.835,6.5283-15.9218,6.4932-39.9825,16.3204-49.6812,15.0118-38.9043-5.1817-52.6821,6.2861-63.7534,15.5039-2.4824,2.0664-4.8272,4.0195-7.3086,5.6757-3.6646,2.4473-9.562,6.0284-16.3906,10.1758-20.021,12.1592-47.441,28.8125-60.8536,41.963-13.7168,13.4473-22.2568,14.4082-34.0766,15.7373-2.7627,.3115-5.6192,.6328-8.7569,1.1289-15.3335,2.4268-16.9785,15.9346-18.1792,25.7988-.8706,7.1484-1.538,10.5342-3.8877,10.6895-16.7016,1.1025-37.2358,8.7715-42.8535,23.0029-5.0879,12.8896-10.3784,23.8936-23.6425,27.999-16.6578,5.1553-25.6031,15.3662-37.2178,33.6191-1.0381,1.6309-.5571,3.7939,1.0737,4.832,1.6323,1.0371,3.7944,.5576,4.8315-1.0742,12.3632-19.4277,20.163-26.5986,33.3823-30.6895,16.1968-5.0137,22.7544-18.6152,28.0835-32.1162,4.2998-10.8916,21.769-17.5957,36.8037-18.5889,8.3935-.5537,9.4468-9.2002,10.3755-16.8281,1.333-10.9512,2.9116-18.2412,12.3242-19.7305,2.9824-.4717,5.7598-.7842,8.4458-1.0869,12.2104-1.373,22.7554-2.5596,38.1943-17.6953,12.8365-12.585,40.9702-29.6709,59.5869-40.9776,6.8975-4.1894,12.8545-7.8076,16.6436-10.3369,2.7895-1.8623,5.2725-3.9297,7.9009-6.1191,10.5415-8.7774,22.4868-18.7256,58.3496-13.9434,11.5454,1.5322,35.6479-8.291,53.249-15.4697,6.3765-2.6006,12.4434-5.0742,15.2529-5.8613,2.8896,3.4082,10.1694,20.0244,18.873,49.6748,7.8755,26.8311,12.5312,49.8408,11.417,56.334-2.7051,3.6953-25.2461,12.6689-44.8755,18.9629Z"/><path class="cls-3" d="M634.7347,630.7303c.4448,0,.8975-.0859,1.3345-.2656,1.7866-.7383,2.6367-2.7852,1.8989-4.5713-27.542-66.6875-38.8164-111.5977-38.9272-112.043-.4659-1.875-2.3643-3.0185-4.2398-2.5537-1.876,.4649-3.0195,2.3633-2.5542,4.2393,.1118,.4502,11.4922,45.8164,39.2515,113.0293,.5571,1.3496,1.8613,2.165,3.2363,2.165Z"/><path class="cls-3" d="M850.5665,521.8411c-3.5,4.65-9.5,7.41-15.9299,7.78-.5,.04-1.01,.06-1.52,.06-2.5701,0-5.1801-.38-7.71-1.18,0-.01-.01,0-.01,0-.4701-.15-.9301-.31-1.3901-.49-13.5599-5.16-18.99-7.33-19.0399-7.35-1.79-.72-2.67-2.75-1.9501-4.55,.72-1.79,2.76-2.66,4.55-1.95,.05,.02,5.4399,2.17,18.9399,7.31,.4701,.18,.9401,.34,1.42,.47,.12,.03,.2401,.07,.36,.11,6.3701,1.69,13.4301-.09,16.6901-4.42,3.2999-4.39,2.23-10.66-3.03-17.67-5.34-7.12-16.09-13.83-28.41-19.45-2.1-.96-4.24-1.89-6.4099-2.78-13.5601-5.58-28.16-9.81-39.1301-11.88-2.6199-.5-5.0299-.87-7.1699-1.1-2.22-.26-4.15-.36-5.72-.31-17.16,.54-44.95,12.27-100.76,38.38-1.75,.82-3.8401,.06-4.66-1.69-.8199-1.75-.0599-3.83,1.6901-4.65,56.71-26.53,85.1199-38.46,103.51-39.04,2.3199-.08,5.34,.14,8.8799,.64,2.1901,.3,4.5801,.71,7.1201,1.21,11.28,2.23,25.5699,6.39,39.02,11.94,2.1699,.89,4.3099,1.8199,6.4099,2.79,13.29,6.07,25.05,13.5,31.23,21.74,10.21,13.6,5.51,22.77,3.02,26.08Z"/><path class="cls-3" d="M795.8382,545.7606c-1.626-1.0469-3.791-.5772-4.8379,1.0469-1.0469,1.625-.5781,3.791,1.0469,4.8379,10.54,6.789,18.7051,9.039,24.8984,9.039,9.3682,0,14.2256-5.1494,15.9658-7.5322,6.5771-9.0059,4.8789-23.544-3.5615-30.502-1.4922-1.2285-3.6973-1.0166-4.9277,.4747-1.2295,1.4921-1.0166,3.6982,.4746,4.9277,5.5693,4.5898,6.7393,14.9775,2.3613,20.9717-5.3584,7.3349-16.8105,6.1445-31.4199-3.2637Z"/><path class="cls-3" d="M778.8334,575.2635c-1.7842-.7303-3.832,.124-4.5654,1.9131-.7324,1.7891,.124,3.833,1.9131,4.5654,7.3105,2.9932,13.708,4.2305,19.165,4.2305,9.6846,0,16.4053-3.8965,20.0127-8.7891,4.8838-6.6269,4.3984-15.3291-1.2373-22.1699-1.2275-1.4902-3.4336-1.7041-4.9268-.4756-1.4922,1.2286-1.7051,3.4346-.4756,4.9268,3.582,4.3486,3.9668,9.5459,1.0049,13.5654-3.8887,5.2745-14.3115,9.0235-30.8906,2.2334Z"/><path class="cls-3" d="M801.9066,582.2611c0,1.05-.03,2.0701-.1001,3.0701-.5,7.1799-2.88,12.9099-7.09,17.0699-7.6901,7.6-20.17,8.89-31.7999,8.89-.76,0-1.52-.01-2.27-.01-1.9401-.03-3.9701-.14-6.0901-.3301-2.36-.21-4.8101-.52-7.34-.8999-11.88-1.8101-25.35-5.38-37.38-9.0701-2.29-.7-4.53-1.4099-6.6899-2.11-10.5801-3.41-19.42-6.67-24.0901-8.4401-1.8-.6799-2.71-2.7-2.03-4.5099,.6901-1.8101,2.71-2.7201,4.52-2.03,4.6801,1.77,13.6201,5.0699,24.26,8.49,2.17,.7101,4.41,1.41,6.7,2.11,12.3701,3.78,26.1501,7.39,37.9102,8.96,2.5798,.3501,5.0698,.6001,7.4199,.73,.99,.05,1.96,.0901,2.8999,.1001,15.1001,.1899,24.0701-1.9299,29.0601-6.86,2.79-2.76,4.42-6.53,4.9301-11.4601,.12-1.1699,.1801-2.3899,.1801-3.6899,0-.96,.3899-1.8401,1.0199-2.47,.52-.52,1.1801-.8701,1.9301-.99,.0601-.01,.1299-.01,.1899-.02,.1201-.01,.24-.02,.3601-.02,1.9299,0,3.5,1.5601,3.5,3.49Z"/><path class="cls-3" d="M1184.4955,733.8876c.1182,0,.2373-.0059,.3584-.0176,33.6836-3.4268,124.9424-4.9932,135.4561-3.416,1.9326,.2881,3.6943-1.0312,3.9805-2.9414,.2871-1.9121-1.0303-3.6943-2.9414-3.9805-12.2188-1.834-104.4824,.0449-137.2041,3.373-1.9229,.1963-3.3232,1.9131-3.1279,3.8369,.1836,1.8027,1.7041,3.1455,3.4785,3.1455Z"/><path class="cls-3" d="M1282.0619,762.3934c24.9424,.6748,45.4365,1.2305,54.5918,1.2305,1.6357,0,2.9102-.0186,3.7832-.0557,1.9307-.084,3.4287-1.7178,3.3447-3.6494s-1.7344-3.416-3.6494-3.3447c-5.5049,.2393-29.7783-.417-57.8809-1.1787-33.8584-.917-75.9951-2.0576-101.4814-2.0576-1.9326,0-3.5,1.5674-3.5,3.5s1.5674,3.5,3.5,3.5c25.3916,0,67.4766,1.1396,101.292,2.0557Z"/><path class="cls-3" d="M1215.2181,794.6532c25.0156,0,56.0361-1.2578,72.8398-1.9385,5.2734-.2139,9.084-.3682,10.0146-.3682,1.9326,0,3.5-1.5674,3.5-3.5s-1.5674-3.5-3.5-3.5c-1.0723,0-4.5449,.1406-10.2979,.374-24.1475,.9785-88.291,3.5771-104.9902,.3896-1.8965-.3691-3.7305,.8828-4.0938,2.7812s.8818,3.7314,2.7812,4.0938c6.4658,1.2354,19.0703,1.668,33.7461,1.668Z"/><path class="cls-3" d="M1314.097,54.8309c15.9814,0,35.7666-.4883,55.0771-.9648,20.6836-.5093,40.2207-.9888,51.3848-.7383,.0264,.0005,.0537,.001,.0811,.001,1.8955,0,3.4541-1.5152,3.4971-3.4205,.0439-1.9326-1.4873-3.5346-3.4199-3.5786-11.3281-.2568-30.9473,.2261-51.7148,.7388-25.5957,.6304-54.6035,1.3462-71.5605,.707-1.9795-.0796-3.5566,1.4346-3.6289,3.3658-.0732,1.9316,1.4336,3.5566,3.3652,3.6295,4.8691,.1835,10.5947,.2602,16.9189,.2602Z"/><path class="cls-3" d="M1310.0658,88.3651c21.1045-.2891,60.4971-1.7329,66.4414-2.3277,1.9229-.1918,3.3262-1.9072,3.1338-3.8305-.1934-1.9229-1.8857-3.335-3.8311-3.1343-5.6924,.5689-45.3506,2.0122-65.8398,2.2935-1.9326,.0263-3.4785,1.6147-3.4521,3.5473,.0264,1.9165,1.5879,3.4522,3.499,3.4522,.0166,0,.0322,0,.0488-.0005Z"/><path class="cls-3" d="M1310.1546,118.0238c15.2852-.5967,35.4932-.7818,56.8887-.9776,34.6318-.3169,70.4443-.6445,83.9053-2.8877,1.9072-.3178,3.1953-2.1211,2.877-4.0278-.3174-1.9067-2.1201-3.1948-4.0273-2.8774-12.9219,2.1538-48.4561,2.479-82.8193,2.7934-21.4482,.1964-41.707,.3819-57.0977,.982-1.9316,.0756-3.4355,1.7026-3.3604,3.6337,.0732,1.8853,1.625,3.3638,3.4951,3.3638,.0459,0,.0918-.001,.1387-.0024Z"/><path class="cls-3" d="M1359.1117,159.2245c34.0098,0,73.3965-2.8999,78.2529-4.4341,1.8438-.5821,2.8662-2.5484,2.2842-4.3916-.583-1.8443-2.5508-2.8662-4.3916-2.2832-5.29,1.6704-78.7324,6.6855-111.0605,2.4843-1.9219-.2534-3.6729,1.1026-3.9219,3.0196s1.1025,3.6728,3.0195,3.9219c9.3428,1.2148,22.1455,1.683,35.8174,1.683Z"/><path class="cls-3" d="M961.638,601.3241c3.3984,0,7.6729-.1836,13.0811-.6152,10.2559-.8193,19.9902-2.2002,20.0879-2.2139,1.5039-.2148,2.6982-1.375,2.9551-2.873,13.0049-75.7949,10.0908-205.4775,10.0596-206.7788-.0361-1.5068-1.0332-2.8218-2.4746-3.2632-1.0518-.3222-26.084-7.8686-53.0918-6.3095-1.7461,.1005-3.1494,1.4741-3.2881,3.2168-.0732,.9306-7.3389,94.4316-2.4561,212.6875,.0576,1.3926,.7168,2.6826,1.8564,3.6299,1.5664,1.3037,4.5117,2.5195,13.2705,2.5195Zm-8.1328-6.4385h0Zm2.2148-208.7627c19.9248-.6235,38.6445,3.7549,45.1553,5.4766,.334,18.4453,1.8281,130.8593-9.5879,200.3154-15.7334,2.1025-33.3408,3.1992-37.832,1.7559-4.2783-105.254,1.0732-190.542,2.2646-207.5479Z"/><path class="cls-3" d="M1055.2542,598.8798c14.5342,0,28.3994-.5674,29.2705-.6035,1.7939-.0752,3.2402-1.4941,3.3486-3.2861,6.9707-115.6436,2.7285-230.874,2.6846-232.0244-.0645-1.7105-1.3564-3.1226-3.0547-3.3389-1.4297-.1826-35.1592-4.4097-48.5146,.1602-1.3291,.4545-2.2578,1.6601-2.3584,3.061-5.9746,83.3179-6.0439,230.4546-6.0439,231.9312,0,1.833,1.4141,3.3555,3.2412,3.4902,6.1797,.458,13.8916,.6104,21.4268,.6104Zm-11.8154-233.0698c9.9873-2.2085,30.0312-.7124,40.2266,.412,.6055,18.6455,3.4863,121.3297-2.5918,225.1763-7.915,.2705-28.9795,.8633-43.4824,.0947,.0469-22.0186,.5508-149.2441,5.8477-225.6831Z"/><path class="cls-3" d="M1264.5316,610.6415h.0371c1.7393,0,3.2178-1.2793,3.4639-3.0049,13.5928-95.1494,15.5205-247.7486,15.5391-249.2788,.0156-1.377-.7773-2.6358-2.0264-3.2154-.8857-.4121-22.0068-10.0425-46.5039-6.2158-1.5381,.2402-2.7324,1.4668-2.9316,3.0108-12.1133,93.9736-18.8662,250.8369-18.9336,252.4101-.0664,1.5801,.9346,3.0098,2.4434,3.4863,7.3291,2.3145,44.6777,2.7637,48.9121,2.8076Zm-25.8184-255.15c17.1338-1.9707,32.4326,3.0743,37.8252,5.1534-.2988,19.5185-2.7764,154.6567-15.0078,242.9585-13.7715-.1992-33.4707-.8389-41.2295-1.9365,.9863-21.9268,7.4648-159.4717,18.4121-246.1754Z"/><g><path class="cls-1" d="M1196.6952,301.1303s-40.6846-10.097-57.3149-5.9394c-19.5999,125.6176-19.5999,297.5624-19.5999,297.5624,13.9575,5.6423,51.3755,2.6213,51.3755,2.6213,5.0485-27.3722,25.5393-294.2443,25.5393-294.2443Z"/><path class="cls-1" d="M1149.5921,597.6952c11.2139,0,20.9043-.7627,21.6846-.8252,.6758-.0547,1.2314-.5557,1.3545-1.2227,5.0049-27.1387,24.7227-283.5024,25.5586-294.4023,.0566-.73-.4229-1.3941-1.1338-1.5708-1.6768-.416-41.2441-10.1387-58.04-5.9385-.584,.146-1.0244,.6284-1.1182,1.2236-19.3926,124.2954-19.6172,296.0728-19.6172,297.7935,0,.6113,.3711,1.1611,.9375,1.3906,6.9834,2.8232,19.4072,3.5518,30.374,3.5518Zm-8.8857-301.2676c14.9678-3.0733,47.6436,4.2715,54.3945,5.8633-1.5264,19.8037-20.125,260.3681-25.2236,291.6738-6.2305,.4326-35.8867,2.2041-48.5947-2.249,.0479-14.5088,1.0039-176.3594,19.4238-295.2881Z"/></g><path class="cls-3" d="M1092.4261,213.5453c13.6064,5.4355,28.208,8.2016,42.6553,8.2016,8.0312,0,16.0176-.8553,23.7539-2.5825,22.8359-5.0972,41.7139-17.082,54.5938-34.6606,4.1533-5.6747,7.6475-11.9229,10.3848-18.5694,4.3711-10.6011,6.8994-22.3984,7.5166-35.0644,.082-1.6963-1.0645-3.2076-2.7207-3.5835-27.2852-6.1973-85.9209-10.0611-97.3027-10.7676-13.4561-23.3926-32.6523-101.083-32.8496-101.8833-.25-1.0161-.9414-1.8672-1.8848-2.3198-.9443-.4532-2.041-.4585-2.9893-.0181-26.5645,12.354-57.8867,40.9492-67.9775,76.9858-7.7666,27.7354-2.3398,55.8033,16.1309,83.4244,12.2969,18.3813,29.8252,32.5029,50.6895,40.8374Zm-60.0801-122.3746c9.0146-32.1889,36.1523-58.1191,60.3691-70.6484,4.3828,17.314,21.1709,81.6133,33.585,101.2485,.6025,.9532,1.627,1.5577,2.7529,1.6241,.6631,.039,64.626,3.854,95.1035,10.0927-.8018,10.7398-3.0898,20.7447-6.8145,29.7798-2.5234,6.1275-5.7402,11.8814-9.5605,17.1006-23.5547,32.1479-70.9736,43.3696-112.7578,26.6768-19.5469-7.8081-35.9619-21.0274-47.4688-38.229-17.2822-25.8438-22.3994-51.9673-15.209-77.6451Z"/><path class="cls-3" d="M1216.0355,166.2733c-2.2959,5.0083-5.0645,9.7378-8.2539,14.0947-23.0107,31.4043-68.7959,42.8373-109.8525,27.7901,9.9258-35.8726,27.6104-72.8833,32.9043-83.5899l3.8265,3.574,1.9403-8.5446-5.8029-2.8404c-1.7129-.8384-3.7783-.1529-4.6504,1.54-.2402,.4658-24.168,47.1299-35.8057,91.1026-.4521,1.7104,.4424,3.4892,2.085,4.1459,13.6064,5.4351,28.208,8.2012,42.6553,8.2012,8.0312,0,16.0176-.8553,23.7549-2.5825,22.835-5.0972,41.7129-17.082,54.5928-34.6606,4.1533-5.6747,7.6475-11.9229,10.3857-18.5704,.7031-1.7065-.04-3.6655-1.6973-4.4765l-1.4776-.7233"/><g><path class="cls-1" d="M1114.013,6.5775c2.1968,27.1719,24.603,96.1479,24.603,96.1479,0,0,85.1738,7.6978,99.2327,7.6256,0-78.7983-61.0103-124.9287-123.8357-103.7735Z"/><path class="cls-1" d="M1138.4818,104.2196c3.4639,.313,84.6152,7.6318,99.167,7.6318,.0713,0,.1406,0,.208-.0005,.8252-.0044,1.4922-.6748,1.4922-1.5,0-39.8911-15.7295-74.0703-43.1562-93.7744-23.6406-16.9863-53.7705-21.1475-82.6582-11.4204-.6533,.2197-1.0723,.856-1.0166,1.5425,2.1855,27.0361,23.7549,93.667,24.6719,96.4902,.1855,.5713,.6934,.9766,1.292,1.0308Zm-22.8691-96.5908c27.6211-8.9355,56.2881-4.8111,78.8301,11.3842,26.2861,18.8848,41.5068,51.5611,41.8984,89.8223-16.4639-.3594-87.3584-6.6851-96.6016-7.5146-2.6416-8.2344-21.6182-68.0176-24.127-93.692Z"/></g><path class="cls-3" d="M1209.013,185.5531c.5068,.2593,1.0518,.3838,1.5898,.3838,1.0859,0,2.1475-.5059,2.8262-1.4327,10.8662-14.8408,16.8896-32.8857,17.9014-53.6342,.082-1.6963-1.0645-3.2076-2.7207-3.5835-29.6504-6.7344-96.3223-10.7134-99.1465-10.8799-1.3926-.082-2.7314,.6904-3.3506,1.959-.6191,1.2695-.415,2.7866,.5176,3.8471,.3398,.3863,34.5273,38.8946,82.3828,63.3404Zm15.1436-52.0655c-1.2617,16.9883-6.1826,31.9097-14.6523,44.4331-33.7559-17.8125-60.1885-42.4482-71.5547-53.9458,18.7588,1.2911,62.5645,4.6734,86.207,9.5127Z"/></svg>