<?xml version="1.0" encoding="UTF-8"?><svg id="Capa_1" xmlns="http://www.w3.org/2000/svg" viewBox="0 0 356.0768 727.3829"><defs><style>.cls-1{fill:#021f17;}</style></defs><path class="cls-1" d="M320.2263,642.1982c-9.9856,14.8649-22.9884,25.3163-38.7849,32.2237-3.1419,1.3739-4.1448,3.6826-5.2778,6.4065-5.66,13.6068-12.6288,26.3641-24.155,36.0478-4.8709,4.0922-10.2607,7.3196-16.3552,9.1967-14.3578,4.4224-25.2608-2.5831-26.9611-17.5371-.7632-6.7121-.7992-13.5258,.7474-20.1698,.8349-3.5869,.3313-5.1216-3.8662-5.5969-6.6546-.7533-14.1792-5.0405-19.519-3.0233-5.2993,2.0019-7.9124,10.3628-12.4767,15.2064-12.7822,13.5644-26.5064,25.8194-46.3876,27.5902-19.1022,1.7011-30.5511-8.8244-30.0998-28.046,.4231-18.0216,2.7363-35.8853,5.2692-53.706,.517-3.6376,.5689-7.0054-.2435-10.6315-2.3651-10.5572-3.7618-21.2647-3.0458-32.1283,.1825-2.7692-.2405-3.5998-3.5108-3.2797-14.0847,1.3787-21.9742-5.8781-22.3764-20.1398-.3223-11.4277,4.1011-21.4936,9.2253-31.3345,5.3019-10.1822,12.2144-19.3251,19.1962-29.0096-18.9898-3.9163-36.9172-9.3161-53.1327-19.3183-15.8627-9.7845-28.1271-22.525-32.233-41.3264-3.4588-15.8379-1.6304-30.8918,9.0597-43.9034,4.691-5.7097,3.2155-12.3278,3.3996-18.8334-2.2163-.0351-2.1933,1.9999-3.0796,3.0571-4.7305,5.6425-12.0836,6.1577-15.9673-.1122-8.1402-13.1417-13.3545-27.3493-6.4302-42.718,7.7207-17.1365,18.2021-32.501,31.5087-45.9254,9.8009-9.8876,20.7645-11.6996,33.2276-5.9635,1.018,.4685,2.2288,.6985,3.0462,1.3955,10.6492,9.081,22.1146,8.3798,34.8039,4.5685,8.0178-2.4081,16.9088-1.9088,26.116-2.7806-4.3458-11.2863-8.5991-22.5242-12.9913-33.7076-25.1834-64.1225-50.1765-128.3221-75.8924-192.2305-3.1575-7.847-2.5033-13.9858,.674-20.8128C58.0547,24.842,83.4865,8.1865,115.8206,3.0179c54.0299-8.6368,105.3758,1.3827,152.7548,28.5412,28.2264,16.1799,46.7495,40.446,51.5961,73.5625,.8092,5.5289,.3707,11.2323,.6843,16.8452,.162,2.8995-1.7065,4.3822-3.4168,6.1918-55.0428,58.2377-110.053,116.5063-165.057,174.7805-.1284,.136-.0959,.4239-.2175,1.0426,7.6371,2.4886,14.2781,4.392,21.211-3.3364,7.5724-8.4414,17.7572-9.5919,28.4737-4.7497,20.6879,9.3477,39.7764,21.1589,55.444,37.6541,19.2123,20.2272,18.0711,33.3045-3.6498,51.4815,14.2182,13.5169,27.7031,27.6575,39.412,43.4188,39.25,52.8343,52.7658,111.7663,42.0445,176.4871-.5445,3.2872,6.809,13.0325,11.2112,14.9344,2.4612,1.0633,4.9527,2.1326,7.2278,3.5295,2.3885,1.4666,3.132,3.9043,2.0562,6.4791-1.0892,2.6072-3.6697,4.1226-6.0354,2.8767-4.2465-2.2365-3.9382,.5487-4.8562,3.1592-4.484,12.7511-15.0961,15.6233-24.4772,6.2821ZM178.4185,310.4049c1.4479,2.0589,3.6608,2.1627,5.4831,2.9525,3.8063,1.6498,7.4074,3.7302,5.3124,8.4031-1.945,4.3382-5.7317,3.0674-9.303,1.5191-10.9865-4.7631-22.468-7.9115-34.3815-8.974-24.3692-2.1734-48.1084-.3723-69.7206,12.721-25.591,15.5039-35.3968,39.5075-36.4184,68.1315-.2503,7.0133,.0622,14.2774-4.9155,19.8562-14.3534,16.0867-11.1697,42.7677,3.9743,58.3312,16.597,17.0566,37.9727,24.0474,60.2077,29.6019,7.3116,1.8265,13.5203,1.8269,18.4638-4.7983,1.1674-1.5645,3.1053-2.5714,4.7381-3.7674,3.1361-2.297,6.3188-2.8156,8.7506,.7969,2.3256,3.4547,.1614,5.6982-2.5383,7.8774-18.0357,14.5586-30.7584,33.1636-40.4269,53.9718-2.6444,5.6911-4.5737,11.7479-3.7711,18.2387,.5412,4.3769,1.4043,9.1878,6.8206,9.3266,5.1869,.1329,9.7492-1.0791,11.3082-7.9489,3.0793-13.5698,9.0474-25.8974,19.9861-35.1219,4.761-4.0148,10.3897-7.808,16.4294-3.7488,6.4858,4.3591,3.7657,10.8647,1.362,16.4923-5.5334,12.9551-14.7856,23.006-25.8578,31.401-2.7718,2.1015-4.0026,4.1789-4.2121,7.7021-.7671,12.8976,.1781,25.57,3.7412,38.0077,.6417,2.2397,.5052,4.4106,.1132,6.6624-3.2058,18.4159-5.0836,36.9926-6.089,55.6381-.7492,13.8937,6.9266,20.824,20.6148,18.1409,21.1645-4.1485,34.6735-18.7556,46.2875-35.5872,.9811-1.4219,.4959-2.9366,.3828-4.524-.4325-6.0708,2.5016-8.0065,8.3444-5.8025,4.19,1.5806,8.3092,3.5364,12.6427,4.5166,19.1108,4.3225,38.5048,4.7313,57.6901,1.3812,31.6459-5.5257,55.0802-22.069,66.7011-53.0759,.5885-1.5703,2.2512-3.3661,.933-4.9137-1.6167-1.8981-4.1626-1.4417-6.3408-.858-3.3101,.887-6.1199,2.7099-8.6808,5.0124-2.516,2.2621-5.4127,2.4656-7.7983-.0203-2.5053-2.6106-1.6358-5.1868,.7122-7.6908,5.2634-5.613,12.0953-9.0971,19.2594-7.8653,6.8565,1.1788,7.2907-1.8586,7.9268-6.6294,3.5737-26.8015,2.5359-53.4172-3.3878-79.7855-10.8019-48.0828-37.8435-86.2941-72.7361-119.8399-4.6212-4.4428-8.3515-5.3835-13.8393-2.4392-2.906,1.5591-6.3384,2.2321-9.6033,3.0119-23.4882,5.6102-34.5512-1.7482-38.4285-25.4526-.2175-1.3295-.6018-2.6321-.8143-3.9622-2.1831-13.6662,5.1591-19.7727,18.1842-15.0836,2.1025,.757,4.1416,1.7273,6.1334,2.7484,10.6602,5.4653,20.2385,12.5647,29.5637,19.991,2.6461,2.1073,4.4039,2.5993,7.4556,.3757,13.7865-10.0457,15.0643-19.3906,3.4193-31.9387-14.7348-15.8774-32.6366-27.3328-52.0149-36.7826-8.4568-4.124-15.5007-3.6937-21.6632,3.8008ZM309.8791,114.4745c.5699-4.208,.0642-7.7349-.6219-11.2766-5.305-27.3839-21.0249-47.795-44.4631-61.488C218.3557,14.5796,168.0333,4.7269,114.9156,13.9337c-26.3745,4.5714-47.491,18.5499-60.2472,43.214-1.9319,3.7352-2.033,5.2401,3.0026,5.3735,24.6775,.6538,48.7156,4.7635,71.4881,14.7128,6.5153,2.8465,13.2209,3.9251,20.2787,4.1631,23.0267,.7765,45.7239,3.6862,67.1314,12.8263,12.229,5.2213,24.9761,6.8184,38.0783,7.0158,4.7125,.071,9.4312,.5049,14.1234,.9993,14.2445,1.5008,27.0765,7.8718,41.1082,12.2361Zm-166.4067,167.0659c.9276,.1297,1.8551,.2594,2.7827,.3891,5.7589-12.5343,11.5319-25.0623,17.2741-37.6043,17.5421-38.3149,35.0851-76.6294,52.57-114.9704,.8736-1.9156,3.3949-4.1049-.4982-5.9445-21.4203-10.122-43.5993-16.4431-67.6377-14.6712-5.0003,.3686-5.6062,2.6333-5.4719,6.866,.499,15.7284,.8902,31.4663,.9397,47.2018,.1247,39.5775,.0412,79.1556,.0412,118.7335ZM53.9745,74.5969c26.7562,68.1182,52.9921,134.9116,79.589,202.6242,0-23.1113,.1689-44.9509-.0401-66.7869-.3039-31.7466-1.0103-63.4898-1.2056-95.2366-.0307-4.9947-1.9718-7.8547-5.7578-10.4648-21.6169-14.9031-46.198-22.561-72.5855-30.1359Zm105.9466,203.1325c.2828,.2904,.5655,.5809,.8483,.8712,47.4912-50.3358,94.9823-100.6716,142.521-151.0578-.8957-.7452-1.1864-1.1829-1.5581-1.2683-22.9663-5.2771-45.9586-4.6276-68.9716-.2928-2.9435,.5545-4.456,2.2216-5.6779,4.9878-4.9847,11.2851-10.3274,22.4113-15.4613,33.6312-17.2512,37.7014-34.4695,75.4179-51.7004,113.1286Zm-85.4459,37.6874c-2.3922-3.1069-5.5381-3.9165-8.2614-5.2423-12.1061-5.8939-16.1193-5.3149-25.6767,4.2933-10.5555,10.6117-18.2098,23.2884-25.5958,36.2296-7.1782,12.5771-3.2684,23.8376,2.4111,36.6991,14.3216-28.786,28.2281-56.3525,57.1227-71.9797Zm123.1429,45.3139c.1231,7.6002,1.561,13.8393,4.0076,19.9032,1.8918,4.689,5.4051,7.0827,10.3228,7.1921,7.5285,.1675,14.719-1.3712,22.4784-4.8511-11.8656-8.744-22.5118-17.5586-36.8088-22.2443Z"/><path class="cls-1" d="M108.7045,445.1096c3.3842-.7404,5.9401-.9026,4.9829-4.6426-.7595-2.9674-.1123-5.4746,3.0349-6.548,3.3703-1.1494,5.5343,.5816,7.1073,3.4369,1.4389,2.612,3.3143,4.7727,6.1998,5.9324,3.1806,1.2783,3.604,3.911,2.6138,6.7006-1.1133,3.1364-4.1096,4.0372-6.6382,2.8138-3.8926-1.8831-6.5912-.1854-9.969,1.2547-12.26,5.2269-25.2362,8.4732-38.4652,8.9101-24.6894,.8154-41.4295-23.0332-33.3829-46.4405,1.8666-5.43,5.2813-8.8362,11.1156-9.2927,13.8978-1.0874,27.7815-2.3415,41.7281-.2877,9.3264,1.3734,12.5686,4.1369,14.14,13.3654,1.3845,8.1304,.8042,16.1187-2.4671,24.7977Zm-55.7754-16.6596c.4274,9.1462,3.9067,17.2488,12.8626,21.6173,9.6298,4.6972,19.6951,4.036,27.9585-2.5695,7.615-6.0873,8.535-15.237,7.1432-24.663-.5803-3.93-2.5548-5.1909-6.1337-5.6059-10.7796-1.25-21.5516-1.0128-32.3096-.0215-8.2054,.7562-9.5612,2.4631-9.521,11.2426Z"/><path class="cls-1" d="M314.4781,551.2573c.2168,3.9576-.0876,7.8248-4.9191,8.1337-4.7177,.3016-5.6069-3.6845-6.0046-7.412-1.6714-15.6636-4.9005-30.9961-9.8789-45.9353-4.1956-12.5902-9.2995-24.7703-17.4272-35.4364-2.299-3.0172-3.4315-6.3187,.0739-8.8097,3.3389-2.3725,6.2591-.6528,8.5355,2.4866,13.3103,18.3559,20.1893,39.358,25.0167,61.1505,1.8893,8.529,3.0895,17.2106,4.6036,25.8227Z"/><path class="cls-1" d="M69.0565,388.0717c-.6476,3.7395-2.3939,8.0235-7.6467,7.664-5.461-.3739-7.2284-4.6852-6.9603-9.7722,.2438-4.6284,2.6111-7.7758,7.2466-8.3115,3.9775-.4597,7.6451,4.6326,7.3605,10.4197Z"/><path class="cls-1" d="M125.9535,387.0036c-.4945,4.4837-2.2088,8.3095-7.3709,8.8718-4.1461,.4517-7.53-4.2065-7.3596-9.5045,.1589-4.9406,2.5847-8.7582,7.505-8.5928,4.9037,.1649,6.9685,4.2815,7.2256,9.2254Z"/></svg>