<?xml version="1.0" encoding="UTF-8"?><svg id="Online_Loan" xmlns="http://www.w3.org/2000/svg" viewBox="0 0 1481.1623 864.8345"><defs><style>.cls-1{fill:#072019;}.cls-2{fill:#fff6e7;}.cls-3{fill:#00986d;}</style></defs><path class="cls-2" d="M920.0548,753.9934c-6.3774-14.1189-11.2781-31.0925-14.1997-51.4182-14.4598-100.6699,49.17-180.5199,68.73-235.0299-1.5901-.57-3.1898-1.2-4.7799-1.9101-20.6799-9.1999-23.1-21.6099-7-28.2099-3.8999-1.8-7.2001-3.78-9.4601-5.83-8.8601-8.04-6.5801-20.66,4.8501-24.62-19.27-14.49-15.9502-27.5-4.2899-32.89-23.9103-12.69-19.4901-38.44,28.49-43.2701,1.5499-.1599,3.0897-.2899,4.6299-.4099-1.45-3.7101-3.84-7.68-7.6801-12.8-9.8601-13.14-25.2799-43.98-13.6499-48.53,3.6699-1.4401,5.5698-.3801,7.5698,1.84h.0101l7.51-3.89c17.6801-7.7701,68.83-7.3,79.33,10.59v.0099c4.97,2.02,3.3401,19.2401-6.2098,33.41-5.3601,7.95-7.5801,16.25-8.3601,23.1599,12.4398,2.5501,24.39,6.1001,35.8501,10.31-.7311-56.6832-2.7455-122.6432-4.7415-179.0944-281.615,136.0794-385.4014,91.246-602.9307-31.5873C134.613-57.6664-182.2768,395.7335,123.8031,672.6235c8.66,7.84,17.5501,15.3099,26.65,22.4301,46.45-125.6901,118.29-204.52,133.68-234.89,3.98-7.8401,13.89-93.33,9.07-145.5-13.99,6.0899-41.55,11.9499-55.03-2.69-17.9399-19.4901,7.41-46.5501,30.78-41.26,.04,.01,.0801,.0199,.12,.0299,.24,.06,.49,.12,.73,.18,7.4301,2.01,12.82,8.34,15.47,14.1001,3.57,7.76,14.99,14.5399,17.5-1.25,2.5-15.7101,9.4601-17.5,12.85-20,3.4-2.5,6.6101-18.0301,0-23.56,9.2901,2.5,23.39-4.2901,22.14-19.8201,8.57,7.1401,29.4601,5.8901,36.14-10.29,8.3901,8.3601,17.66,8.45,24.8201,5.01,53.8599,28.2,107.3999,59.8001,107.0999,64.06-.33,4.63-65.19,31.9101-65.19,31.34s-3.64,143.3301-1.6499,150.9501c33.8799,36.2,78.87,94.81,115.2699,248.31,.0401,.1699,.08,.33,.11,.5,.14,.58,.28,1.1799,.4201,1.76,5.1599,21.08,17.7399,39.4498,38.6399-.65,0,0-.0099,.2899-.0099,.8099,16.6499-32.0399,32.6599-57.1299,40.17-55.6399,0,0,6.08-29.52,16.0298-61.0601,5.6902-18.07,12.6603-36.8,20.4802-51.0299,31.98-58.18,66.3699-81.1501,114.8599-94.81,54.8401-15.4601,66.8301,11.9599-10.8599,49.13,26.4301-6.3601,61.8099-8.7101,70.5599,1.06,13.1001,14.62-33.7001,23.69-56.24,26.8999,37.98-2.0799,71.1001-.5899,66.8501,11.94-3.4401,10.1601-51.5901,14.9801-69.74,16.44l.21,2.7801c15.5599,0,51.35,1.18,51.2999,12.07-.0701,13.61-55.47,12.55-55.47,12.55-16.1101,33.25-50.71,37.1499-52.0699,37.3199-1.3601,.1699-5.26,11.02-6.4,16.4601v.01c6.89,2.1,11.1099,2.96,11.1099,2.96,0,0-6.0901,17-9.8799,29.89-3.79,12.88-5.1201,22.4299,2.27,31.3298,10.58,12.73-2.6901,61.3501-19.2201,107.4701,77.744-11.361,150.7192-30.696,212.6818-53.9701Z"/><path class="cls-1" d="M1351.4213,788.4058c-9.9355,0-23.8545-3.961-43.9268-12.2403-65.0683-26.8408-155.3886-58.915-156.2939-59.2353-1.8213-.6465-2.7744-2.6465-2.1289-4.4688,.6465-1.8213,2.6484-2.7724,4.4687-2.1289,.9063,.3213,91.3936,32.4541,156.6241,59.3623,27.1103,11.1836,42.4961,14.1924,49.8857,9.7559,7.0371-4.2227,8.25-16.501,9.9307-33.4951,.3818-3.8711,.7783-7.874,1.2754-12.1485,12.0068-103.1679,25.2343-435.5234,18.4306-518.2421-3.1758-38.6192-7.207-59.2432-21.5283-72.0005-14.3115-12.7495-39.2842-18.5474-84.6191-29.0733l-22.7901-5.3125c-77.2256-18.0498-133.0205-31.0913-149.0019-18.415-3.125,2.479-4.5811,5.9033-4.5811,10.7763v252.1856c0,1.9331-1.5674,3.5-3.5,3.5s-3.5-1.5669-3.5-3.5V101.54c0-6.9838,2.4326-12.4545,7.2315-16.2607,18.6298-14.7788,72.8603-2.1025,154.9453,17.083l22.7802,5.3101c46.4561,10.7861,72.0459,16.728,87.6915,30.6655,16.0986,14.3408,20.5166,36.1436,23.8486,76.6533,6.8262,82.9903-6.4199,416.2251-18.4541,519.6245-.4903,4.2149-.8828,8.1875-1.2627,12.0284-1.8809,19.0273-3.2402,32.7744-13.2949,38.8085-3.2539,1.9532-7.2403,2.9532-12.2305,2.9532Z"/><path class="cls-1" d="M1398.7563,864.8345c-5.6192,0-11.7481-.4912-18.4424-1.4649-47.3438-6.8867-244.0899-94.8828-252.4424-98.625-1.7637-.791-2.5527-2.8613-1.7627-4.6259,.79-1.7637,2.8613-2.5537,4.626-1.7627,2.0361,.9131,204.2021,91.3388,250.5869,98.0859,46.8506,6.8174,57.6504-12.8926,66.8984-39.3672,4.9824-14.2656,14.627-173.4013,20.6377-340.5517,7.3262-203.7037,6.9668-347.5245-.9609-384.7207-4.5684-21.4317-42.8955-41.7784-110.8379-58.8404-53.4824-13.4306-115.9981-22.1611-151.4502-24.5893-63.3389-4.3365-104.0107,1.7651-120.8926,18.1377-6.3867,6.1933-9.3203,13.7358-8.9687,23.0586,.2422,6.4043,.5683,14.6894,.955,24.499,2.4463,62.0996,7,177.6909,8.1963,270.3979,.0245,1.9331-1.5224,3.5201-3.455,3.545-.0147,.0004-.0303,.0004-.0459,.0004-1.9121,0-3.4737-1.5376-3.4991-3.455-1.1943-92.6143-5.7461-208.1455-8.1914-270.2129-.3867-9.814-.7129-18.1031-.955-24.5108-.4249-11.2612,3.3066-20.7988,11.0908-28.3476,18.6279-18.0645,59.9228-24.6387,126.2441-20.0957,50.2764,3.4433,256.1104,30.0957,268.6553,88.9541,11.5908,54.3784,4.6377,288.3579,1.1113,386.4316-5.4687,152.041-15.2217,325.9922-21.0254,342.6084-4.7988,13.7363-10.8701,27.6299-22.7051,36.208-8.5625,6.2061-19.3916,9.2432-33.3671,9.2432Z"/><path class="cls-3" d="M1079.9252,498.6753c-7.76-15.73-14.63-33.57-19.64-55.08-12.97-10.38-20.33-26.44-22.63-50.3501,0,0-14.8799,.7901-28.6299-.8099v.01c17.7899,10.58,16.1399,29.03-1.8902,31.72l.3101,1.97c4.9399,1.91,6.8101,14.96-2.23,18.51,21.57,20.89-3.55,32.4699-30.63,22.9-19.5599,54.5099-83.19,134.36-68.7301,235.03,14.4701,100.6699,77.4401,119.2,128.3601,115.1499,31.1599-2.48,69.8001-22.76,95.09-56.1799,10.4701-13.8301,18.65-29.91,23.0699-47.91,2.3601-9.59,3.6502-19.73,3.6502-30.37,0-92.89-45.2101-122.0201-76.1001-184.59Z"/><path class="cls-1" d="M134.6103,747.1226c-.3169,0-.6382-.043-.958-.1338-1.8594-.5283-2.939-2.4639-2.4107-4.3233,33.2178-117.0097,91.4771-199.3701,126.2861-248.5781,10.8272-15.3057,19.3789-27.3955,23.4908-35.5049,3.1367-6.1855,13.0605-85.3398,9.0859-138.9419-15.0283,5.3658-40.8096,9.5782-54.501-5.2895-8.5967-9.336-9.2802-21.7818-1.7837-32.481,7.8999-11.2763,24.9268-19.6533,40.9253-12.9712,1.7837,.7452,2.6255,2.795,1.8804,4.5786-.7456,1.7833-2.7954,2.6236-4.5786,1.8804-12.6182-5.27-26.1611,1.4893-32.4942,10.5288-2.6821,3.8282-7.934,13.8028,1.2002,23.7222,11.607,12.6045,36.8897,8.0078,51.0533,1.8433,1.0297-.4478,2.2114-.3741,3.1782,.1967,.9663,.5718,1.6001,1.5723,1.7031,2.6905,4.7212,51.0478-4.6777,138.0459-9.4258,147.4091-4.3437,8.5674-13.0263,20.8418-24.019,36.3819-34.5503,48.8418-92.3765,130.5898-125.2676,246.4472-.437,1.5401-1.8393,2.545-3.3647,2.545Z"/><path class="cls-1" d="M249.0268,301.6358c-1.3882,0-2.7017-.8316-3.2495-2.1988-.7193-1.7944,.1523-3.832,1.9462-4.5508,13.2505-5.311,21.3028-5.311,25.1724-5.311,1.9331,0,3.5,1.5669,3.5,3.5s-1.5669,3.5-3.5,3.5c-3.6943,0-10.5713,0-22.5679,4.8081-.4267,.1714-.8676,.2525-1.3012,.2525Z"/><path class="cls-1" d="M362.0005,281.8683h0c-2.348,0-4.2515-1.9035-4.2515-4.2515v-10.8765c0-2.348,1.9035-4.2515,4.2515-4.2515h0c2.3481,0,4.2515,1.9035,4.2515,4.2515v10.8765c0,2.348-1.9034,4.2515-4.2515,4.2515Z"/><path class="cls-1" d="M398.2622,269.1634h0c-2.348,0-4.2515-1.9035-4.2515-4.2516v-10.8764c0-2.348,1.9035-4.2515,4.2515-4.2515h0c2.3481,0,4.2515,1.9035,4.2515,4.2515v10.8764c0,2.3481-1.9034,4.2516-4.2515,4.2516Z"/><path class="cls-1" d="M363.3485,327.0376c-.0244,0-.0483,0-.0727-.001-17.0869-.3491-29.835-11.4096-33.2686-28.8657-.373-1.897,.8619-3.7368,2.7583-4.1099,1.8951-.3725,3.7369,.8619,4.1099,2.7583,2.8047,14.2569,12.727,22.9366,26.543,23.2188,1.9326,.0395,3.4673,1.6387,3.4282,3.5708-.0391,1.9082-1.5986,3.4287-3.4981,3.4287Z"/><path class="cls-1" d="M563.0751,753.2534c-1.6274,0-3.085-1.1406-3.4248-2.7968-35.9341-174.9405-82.4561-243.0508-123.2251-286.6036-.3984-.4257-.6841-.9443-.8315-1.5078-.3726-1.4277-1.3619-5.2197-.0342-79.2641,.3437-19.1577,.7514-37.8321,1.0332-50.1245,.1553-6.7813,.2905-12.4131,.3867-16.3501,.0659-2.6763,.1089-4.4297,.1875-5.6206-.021-.1539-.0317-.3106-.0317-.4698h.0669c.1577-1.8296,.4506-2.0732,1.1953-2.6928,.4858-.4039,1.06-.6602,1.6596-.7603,5.7456-1.8477,51.3247-21.5869,61.1324-28.1787-9.876-8.6104-62.4522-39.4639-118.4063-68.0767-1.7207-.8799-2.4023-2.9887-1.5224-4.7099,.8793-1.7207,2.9882-2.4024,4.7099-1.5225,27.8613,14.2476,58.8403,31.1704,82.8687,45.269,40.8794,23.9869,40.667,26.9566,40.4799,29.5772-.1845,2.5845-.3593,5.0259-34.3085,20.354-.2637,.1191-22.0484,9.9448-30.9439,13.208-.4956,18.7476-3.1855,134.2974-1.8071,146.8618,41.2622,44.2969,88.1733,113.5821,124.247,289.2032,.3892,1.8935-.8305,3.7431-2.7241,4.1328-.2373,.0488-.4746,.0722-.7075,.0722Zm-60.4404-472.8779v0Z"/><path class="cls-1" d="M384.706,517.0386c-8.4058,0-22.0386-4.1309-37.4942-11.4502-14.6743-6.9492-37.9165-20.0039-65.3066-42.7295-1.4878-1.2344-1.6929-3.4404-.4585-4.9277,1.2339-1.4893,3.4399-1.6934,4.9282-.459,48.8286,40.5127,89.4058,54.1455,100.2647,52.4375,8.5161-1.336,34.9287-31.7432,49.5771-50.5957,1.1856-1.5264,3.3838-1.8028,4.9111-.6162,1.5264,1.1855,1.8023,3.3847,.6163,4.9111-6.6109,8.5088-40.2852,51.0615-54.0196,53.2168-.9116,.1426-1.9209,.2129-3.0185,.2129Z"/><circle class="cls-1" cx="409.9799" cy="568.2865" r="6.9179"/><path class="cls-1" d="M411.2247,643.0803c0,2.8488,2.8966,5.1582,6.4698,5.1582s6.4698-2.3094,6.4698-5.1582-2.8966-5.1581-6.4698-5.1581-6.4698,2.3094-6.4698,5.1581Z"/><path class="cls-1" d="M419.1787,721.4265c-2.4671,1.4244-3.0188,5.0876-1.2322,8.1821,1.7866,3.0945,5.2349,4.4483,7.702,3.024,2.4671-1.4244,3.0188-5.0877,1.2322-8.1821-1.7866-3.0945-5.2349-4.4484-7.702-3.024Z"/><path class="cls-1" d="M315.4892,552.9038c-1.7119,0-3.3643-.289-4.9527-.8681-11.0864-4.0391-16.6875-20.9571-23.7788-42.376-1.8589-5.6143-3.7807-11.4199-5.9096-17.3115-.6568-1.8184,.2846-3.8243,2.1025-4.4815,1.8193-.6543,3.8247,.2852,4.4814,2.1025,2.1602,5.9805,4.0977,11.8321,5.9712,17.4903,6.2388,18.8447,11.627,35.1201,19.5298,37.999,2.8013,1.0225,6.145,.2949,10.2212-2.2168,12.9302-7.9678,28.5215-21.8291,28.6773-21.9678,1.4433-1.2861,3.6557-1.1582,4.9418,.2832,1.2862,1.4424,1.1597,3.6543-.2827,4.9414-.6552,.584-16.2016,14.4063-29.6635,22.7022-4.001,2.4658-7.7964,3.7031-11.3379,3.7031Z"/><path class="cls-1" d="M452.0746,535.2349c-5.8032,0-16.5762-3.1123-38.9346-16.1114-1.6709-.9707-2.2382-3.1132-1.2666-4.7841,.9722-1.6709,3.1138-2.2393,4.7852-1.2666,29.0054,16.8623,36.0562,15.3613,37.1763,14.8877,.2549-.1075,.3525-.1778,.4443-.5459,2.2691-9.0772,5.3618-37.5899,5.3926-37.877,.208-1.9219,1.9399-3.3066,3.8555-3.1035,1.9218,.207,3.3115,1.9336,3.1044,3.8555-.1289,1.1904-3.1762,29.2802-5.5615,38.8222-.6201,2.4805-2.1802,4.3125-4.5122,5.2979-1.0874,.459-2.4936,.8252-4.4834,.8252Z"/><path class="cls-1" d="M406.2162,753.2525c-.061,0-.1225-.002-.1841-.0049-1.9306-.0996-3.414-1.7461-3.3139-3.6768,.5581-10.7744,.7944-40.4853-4.7412-48.4687-6.4102-9.2432-10.3946-24.2774-2.3526-38.7539,6.9556-12.5186,2.4112-26.6338-2.9511-38.7891-6.46-14.6416-5.7662-52.4277-2.9634-82.9063,.1767-1.9248,1.8799-3.3378,3.8056-3.165,1.9253,.1768,3.3418,1.8809,3.1651,3.8057-3.4214,37.2021-2.4805,68.3847,2.3969,79.4394,6.0572,13.7305,11.1104,29.8155,2.6661,45.0156-6.482,11.667-3.2246,23.8526,1.9853,31.3653,7.8882,11.374,6.1983,48.6113,5.9795,52.8203-.0967,1.8682-1.6426,3.3184-3.4922,3.3184Z"/><path class="cls-1" d="M586.1459,730.5308c-.458,0-.9233-.0908-1.3706-.2813-1.7783-.7578-2.6055-2.8135-1.8477-4.5918,6.7588-15.8574,16.4957-33.956,26.0459-48.4131,11.5513-17.4853,18.0313-22.539,21.7046-23.8515,2.8604-13.2813,16.835-75.1074,36.3511-110.6182,34.2881-62.3887,71.5601-83.6953,116.9741-96.4922,26.2325-7.3896,44.1944-5.7099,48.041,4.5,4.8311,12.8174-16.2656,31.9434-56.4335,51.1641-1.7452,.834-3.8331,.0947-4.668-1.6465-.834-1.7441-.0967-3.834,1.6465-4.668,42.8144-20.4863,55.0957-36.5693,52.9052-42.3808-1.5-3.9785-13.5752-7.5596-39.5927-.2305-43.7198,12.3184-79.6226,32.8701-112.7378,93.125-20.9727,38.1621-36.0005,110.3936-36.1499,111.1191-.3755,1.8223-2.1104,3.0186-3.9326,2.7579-1.4776,.2539-7.5977,4.6865-19.1197,22.3798-9.0425,13.8858-18.2368,31.0821-24.5947,45.9991-.5669,1.331-1.8608,2.1289-3.2212,2.1289Z"/><path class="cls-1" d="M705.2128,691.5659c-.2729,0-.5498-.0322-.8267-.0996-49.9765-12.0996-72.2031-31.4717-73.1245-32.29-1.4453-1.2842-1.5761-3.4961-.2925-4.9414,1.2823-1.4444,3.4922-1.5782,4.938-.2949,.3013,.2636,22.1241,19.1005,70.1265,30.7236,1.8784,.4541,3.0327,2.3467,2.5781,4.2246-.3882,1.6025-1.8208,2.6777-3.3989,2.6777Z"/><path class="cls-1" d="M725.8402,753.2534c-.3017,0-.6084-.039-.914-.122-1.8662-.5039-2.9707-2.4248-2.4668-4.2911,8.6582-32.0742,6.2168-38.289,1.1557-46.5127-7.1528-11.624-6.3173-21.6865-2.6508-34.1533,2.7114-9.2197,6.6269-20.6259,8.6411-26.3857-12.3135-3.1123-50.9605-14.6895-82.3696-43.7236-1.4195-1.3125-1.5064-3.5264-.1944-4.9463,1.3115-1.42,3.5259-1.5069,4.9463-.1944,35.6118,32.9199,82.4502,42.8213,82.9189,42.918,.9937,.2031,1.8511,.8291,2.3482,1.7129,.4976,.8848,.5874,1.9414,.2451,2.8965-.0605,.1689-6.103,17.0586-9.8198,29.6972-3.7832,12.8633-3.3047,20.0577,1.897,28.5108,7.1337,11.5928,8.082,20.7334-.3599,52.0049-.4214,1.5605-1.834,2.5888-3.377,2.5888Z"/><path class="cls-1" d="M723.1015,639.8091c-.2378,0-.479-.0244-.7207-.0752-1.8921-.3965-3.1045-2.251-2.7085-4.1436,.5888-2.8115,1.8716-7.0214,3.2676-10.7255,2.3427-6.2159,3.7729-8.2002,6.1201-8.4942,3.561-.4346,34.665-5.0547,49.3593-35.3701,.5957-1.2295,1.8399-2.0283,3.2159-1.9727,16.4248,.3008,44.8232-1.4775,51.0918-7.5976,.8037-.7861,.8066-1.2852,.8076-1.4727,.001-.1787,.0039-.6504-.7598-1.3935-6.415-6.2383-36.5254-7.6397-53.9932-7.0684-1.9101,.044-3.5498-1.4512-3.6132-3.3828-.0635-1.9316,1.4502-3.5498,3.3828-3.6133,4.9287-.165,48.4717-1.2939,59.1035,9.0469,2.3955,2.3291,2.8887,4.792,2.8799,6.4473-.0088,1.6484-.5215,4.1054-2.919,6.4453-9.4336,9.209-44.0351,9.6855-53.9052,9.6133-15.4424,29.4912-45.0816,35.9121-52.4219,37.0722-1.2652,2.4043-3.814,9.3614-4.7647,13.9014-.3457,1.6494-1.8007,2.7832-3.4223,2.7832Z"/><path class="cls-1" d="M778.0102,567.0308c-.2881,0-.5801-.0362-.8721-.1104-1.8721-.4804-3.001-2.3867-2.5215-4.2597,1.4092-5.4991,.9912-32.293-4.8867-52.251-.5459-1.8545,.5146-3.8008,2.3682-4.3467,1.8496-.542,3.7998,.5137,4.3466,2.3682,5.961,20.2392,6.7891,48.8017,4.9532,55.9677-.4053,1.5811-1.8282,2.6319-3.3877,2.6319Z"/><path class="cls-1" d="M776.933,531.5142c-.2695,0-.4717-.0117-.6015-.0362-1.4737-.2763-2.6309-1.4726-2.8428-2.957-.2735-1.9141,1.0576-3.6865,2.9707-3.959,.2724-.039,.541-.0449,.8008-.0224,2.0859-.1114,17.0381-1.7637,32.9619-5.2325,27.7402-6.0449,32.2763-11.9345,33.0058-13.5957,.211-.4814,.6524-1.4853-1.1796-3.5302-8.0577-8.9932-50.1788-5.8418-77.7286,2.9453-1.8398,.5898-3.8105-.4278-4.3974-2.2705-.5879-1.8409,.4287-3.8106,2.2705-4.3975,23.9814-7.6514,72.9189-14.5098,85.0683-.9473,4.6153,5.1504,3.1768,9.6973,1.9082,11.9483-1.3916,2.4717-5.6289,9.9931-39.2636,17.0732-13.0567,2.749-29.2823,4.9815-32.9727,4.9815Zm3.4844-3.9893v0Zm-.001-.0049s0,.001,.001,.002c-.001-.001-.001-.002-.001-.002Zm-.001-.0068c0,.0019,.001,.0029,.001,.0039,0-.001-.001-.002-.001-.0039Zm-.0009-.0049c.0009,.001,.0009,.002,.0009,.0039,0-.0019,0-.0029-.0009-.0039Zm-.0977-.4531c.042,.1465,.0752,.2969,.0977,.4521-.0235-.1562-.0567-.3066-.0977-.4521Zm-2.7246-2.4707c.3252,.0605,.6377,.167,.9287,.3125-.3018-.1543-.6172-.2598-.9287-.3125Z"/><path class="cls-1" d="M778.6635,559.1235c-1.836,0-3.3779-1.4306-3.4902-3.2871-.1182-1.9297,1.3515-3.5888,3.2802-3.706,.1797-.0117,18.1944-1.125,36.461-3.7442,34.6748-4.9707,36.958-10.5859,37.038-10.8232,.375-1.1055,.1084-1.5908-.1972-1.9922-1.9268-2.54-11.9453-8.1406-63.2041-5.3301-1.9483,.0879-3.5811-1.374-3.6865-3.3037-.1055-1.9297,1.373-3.5801,3.3037-3.6865,54.2353-2.9717,65.4463,3.1924,69.1631,8.0879,1.8642,2.456,2.2968,5.3857,1.25,8.4726-1.5577,4.5957-7.8204,10.5118-42.712,15.5098-18.5459,2.6572-36.8086,3.7852-36.9902,3.7959-.0723,.0049-.1445,.0068-.2158,.0068Z"/><path class="cls-1" d="M723.101,609.8726c-1.1133,0-2.208-.5293-2.8867-1.5166-1.0952-1.5928-.6924-3.7715,.9004-4.8672,12.9233-8.8887,20.4043-19.1006,22.2353-30.3516,2.4219-14.8847-5.3174-28.957-12.2363-38.1406-.6123-.8125-.8399-1.8516-.625-2.8457,.2148-.9942,.852-1.8467,1.7446-2.334,11.061-6.0361,28.3179-18.8975,27.5366-27.7158-.0849-.9551-.914-1.7783-2.4668-2.4453-8.4638-3.6446-31.2041,.0361-51.8823,16.417-1.5156,1.2011-3.7168,.9463-4.917-.5694-1.2002-1.5156-.9448-3.7168,.5703-4.917,21.5962-17.1084,47.437-22.3349,58.9956-17.3613,3.9834,1.7139,6.3536,4.6465,6.6729,8.2588,1.2041,13.5947-19.1367,27.335-27.7305,32.5039,7.0254,10.2207,13.7871,24.6621,11.2471,40.2734-2.1494,13.208-10.6206,24.9825-25.1777,34.9952-.606,.417-1.2964,.6162-1.9805,.6162Z"/><path class="cls-1" d="M984.477,384.6255c-.0323,0-.0635-.0005-.0957-.0015-30.9346-.8296-47.6202-14.8662-48.1143-28.3032-.4316-11.7432,11.3682-25.5249,45.7773-28.9878,1.5704-.1621,3.1387-.2949,4.7081-.417,1.9169-.1528,3.6123,1.2896,3.7617,3.2173,.1504,1.9268-1.2901,3.6109-3.2168,3.7612-1.5108,.1182-3.0225,.2452-4.543,.4024-29.6318,2.9819-39.792,13.5893-39.4912,21.7671,.3643,9.9258,14.9648,20.8559,41.3057,21.563,1.9326,.0517,3.457,1.6601,3.4052,3.5922-.0507,1.9004-1.6084,3.4063-3.497,3.4063Z"/><path class="cls-1" d="M1270.5668,414.0083c-23.3184,0-44.5498-2.2412-63.4902-6.7183-26.5996-6.2871-41.2705-15.3012-47.5362-19.1503-.4707-.2896-.8945-.5494-1.2705-.7759-33.7851-20.3169-70.374-40.8941-113.4287-49.7403-1.8935-.3886-3.1133-2.2392-2.7246-4.1328,.3897-1.8935,2.2432-3.1118,4.1328-2.7236,44.1367,9.0684,81.3242,29.9688,115.6299,50.5986,.3936,.2373,.835,.5078,1.3262,.8101,37.2295,22.8735,91.5068,30.0185,161.3232,21.2368,1.8975-.2358,3.668,1.1172,3.9092,3.0357,.2412,1.9179-1.1182,3.6684-3.0361,3.9096-19.3506,2.4341-37.6602,3.6504-54.835,3.6504Z"/><path class="cls-3" d="M987.0253,330.4053c2.2999,5.82,2.2999,11,1.99,18.98l-2.27,.51c17.6499,7.79,43.4299,3.92,43.4299,3.92,6.24-1.58,11.9-2.71,15.9199-3.42v-.01s-1.5998-6.8301-.5499-16.19c.78-6.91,3-15.21,8.36-23.16,9.55-14.1701,14.582-26.2099,10.0111-38.479-7.2748-19.5272-73.3363-30.7789-101.0514-1.7747-7.6336,7.9886-2.904,25.4315,16.4802,46.8237,4.2975,4.7426,6.2301,9.09,7.6802,12.8Z"/><path class="cls-1" d="M1002.477,427.957c-8.5205,.0005-19.2715-2.7114-31.9688-9.2954-24.7373-12.8271-29.7256-24.5796-29.5547-32.1801,.1485-6.5928,4.333-12.2706,11.4805-15.5772,1.7529-.8091,3.834-.0474,4.6465,1.707,.8115,1.7544,.0469,3.8345-1.7071,4.6465-2.7216,1.2588-7.3037,4.1514-7.4218,9.3814-.083,3.6977,2.2617,13.6137,25.7793,25.8086,23.7216,12.2993,39.0215,9.8076,43.2002,2.29,2.8066-5.0488,.3769-13.2949-9.6993-19.2856-1.6611-.9878-2.207-3.1358-1.2197-4.7969,.9893-1.6616,3.1348-2.208,4.7979-1.2197,13.9121,8.2724,16.6875,20.7011,12.2392,28.7036-3.2617,5.8662-10.292,9.8169-20.5722,9.8178Z"/><path class="cls-1" d="M998.1205,449.1206c-15.5322,.001-38.4697-7.081-47.125-14.9346-5.1689-4.6904-7.4961-11.1684-6.2246-17.3286,1.2705-6.1504,5.7774-10.9702,12.3662-13.2236,1.8301-.6279,3.8194,.3501,4.4444,2.1787,.6259,1.8291-.3497,3.8189-2.1788,4.4443-4.1855,1.4317-7.0195,4.3536-7.7763,8.0166-.7774,3.7642,.708,7.6749,4.0732,10.7286,8.1153,7.3647,31.9531,14.1596,45.5235,12.9946,4.8466-.417,6.5634-3.8516,7.1503-6.6592,.8409-4.019-.498-7.4658-1.3115-7.9082-1.8857-.4263-3.0312-2.2876-2.6045-4.1728,.4248-1.8858,2.335-3.0577,4.2227-2.6299,5.0635,1.1445,7.3096,7.6484,6.9111,13.4814-.5703,8.3574-5.9746,14.1914-13.7666,14.8633-1.1758,.1006-2.414,.1494-3.7041,.1494Z"/><path class="cls-1" d="M993.31,474.398c-7.7491,0-16.5293-1.8252-24.9278-5.5616-12.747-5.6728-19.707-12.9111-19.5957-20.3838,.0508-3.4062,1.7676-9.79,12.6963-14.2675,1.7881-.7354,3.833,.122,4.5655,1.9111,.7333,1.7891-.1221,3.833-1.9112,4.5654-5.3418,2.1895-8.3076,4.9932-8.3515,7.8955-.0498,3.3672,3.9804,8.7832,15.4423,13.8829,16.9903,7.5595,33.5,5.915,37.6914-.2891,2.3457-3.4736,.1075-8.9385-6.1435-14.9922-1.3877-1.3447-1.4238-3.5605-.0781-4.9482,1.3457-1.3897,3.5595-1.4248,4.9482-.0791,12.2256,11.8398,9.6797,20.08,7.0742,23.9375-3.7138,5.498-11.7617,8.3291-21.4101,8.3291Z"/><path class="cls-1" d="M1103.6703,462.3374c-.1299,0-.2617-.0068-.3945-.0215-43.1367-4.8427-63.8633-24.4756-68.7451-65.4311-11.8018,.393-42.7364,.3603-50.1055-10.2891-1.4512-2.0967-2.7461-5.5869-.6777-10.3081,9.5879-21.8779,62.1084-29.5674,68.0654-30.3721,1.9258-.2578,3.6777,1.0845,3.9365,2.9991,.2598,1.9155-1.083,3.6782-2.999,3.9375-15.1064,2.0454-55.7998,10.748-62.5908,26.2451-.8242,1.8794-.4512,2.8315,.0215,3.5156,4.4365,6.4126,30.3242,8.0366,47.2939,7.1406,1.8682-.103,3.4893,1.2945,3.669,3.1602,3.874,40.29,21.5126,57.7988,62.913,62.4453,1.9209,.2158,3.3028,1.9482,3.0879,3.8691-.2011,1.7881-1.7158,3.1094-3.4746,3.1094Z"/><path class="cls-1" d="M1285.4584,516.4282c-57.6768,.001-107.4766-23.0595-125.6582-31.4785-2.8603-1.3252-5.8135-2.6914-6.8096-3.0156-1.6201,.2139-6.999,2.4668-11.7646,4.4629-14.9717,6.2695-40.041,16.7627-61.4619,15.7744-1.9307-.0889-3.4239-1.7266-3.335-3.6572,.0889-1.9307,1.7344-3.4385,3.6572-3.335,19.8672,.918,44.0088-9.1963,58.4356-15.2392,9.0117-3.7754,12.7637-5.2969,15.3076-4.9776,1.3799,.1699,3.2402,1.0088,8.9121,3.6358,20.8828,9.6699,84.4297,39.0957,152.4805,28.5986,1.916-.2988,3.6972,1.0146,3.9922,2.9258,.2949,1.9101-1.0147,3.6972-2.9258,3.9922-10.4317,1.6093-20.752,2.3134-30.8301,2.3134Z"/><path class="cls-1" d="M1015.1713,358.2949c-10.3398,0-23.8096-1.3642-33.8545-7.2441-1.668-.9766-2.2285-3.1206-1.2519-4.7886,.9775-1.6675,3.1191-2.2275,4.789-1.2524,16.1992,9.4829,44.5127,5.3882,44.7988,5.3452,1.9102-.2798,3.6924,1.0317,3.9795,2.9424,.2862,1.9111-1.0293,3.6928-2.9404,3.98-.5693,.0859-6.9766,1.0175-15.5205,1.0175Z"/><path class="cls-1" d="M1017.057,292.29c-3.3281,0-6.9033-.1621-10.7558-.52-12.2051-1.1347-21.3252-4.3916-27.8799-9.9575-1.4736-1.251-1.6533-3.46-.4023-4.9336,1.2509-1.4726,3.4589-1.6538,4.9335-.4023,5.4219,4.604,13.2715,7.3266,23.9971,8.3237,21.4326,1.9893,33.4561-2.5098,41.5381-6.6528,1.7207-.8824,3.8291-.2022,4.7109,1.5175,.8819,1.7198,.2032,3.8292-1.5175,4.711-7.4453,3.8179-17.8838,7.914-34.6241,7.914Z"/><g><path class="cls-1" d="M1060.4518,674.6271c0,6.539-1.417,11.8476-4.25,15.9277-2.835,4.0781-7.333,7.0205-13.499,8.8272v17.0957c0,.497-.1719,.9179-.5137,1.2607-.3428,.3418-.7637,.5137-1.2607,.5137h-22.6075c-.499,0-.9189-.1719-1.2607-.5137-.3428-.3428-.5137-.7637-.5137-1.2607v-15.2276c-4.2353-.1865-8.0654-.499-11.4902-.9336-.4365-.0634-.8096-.2802-1.1211-.6543-.3125-.373-.4668-.8095-.4668-1.3076l1.7744-18.2158c.0615-.5605,.3115-.9961,.7481-1.3086,.4345-.3105,.9336-.4043,1.4941-.2803,1.3691,.3125,2.7861,.5928,4.251,.8409,1.4619,.25,3.3623,.5146,5.6982,.7939,2.335,.2803,4.4981,.4209,6.4922,.4209,2.1787,.0615,4.0313-.2031,5.5586-.7939,1.5254-.5909,2.5996-1.3389,3.2227-2.2422,.622-.9024,1.0576-1.7119,1.3076-2.4287,.248-.7149,.374-1.3545,.374-1.9151,0-.6221-.126-1.3076-.374-2.0547-.25-.748-.7325-1.6816-1.4483-2.8027-.7168-1.1211-1.9609-2.21-3.7363-3.2695-1.7744-1.0586-3.9395-1.8995-6.4922-2.5225-2.9277-.6846-5.7305-1.8359-8.4072-3.4561-2.6787-1.6191-5.1699-3.6435-7.4736-6.0722-2.3047-2.4287-4.1573-5.4649-5.5586-9.1084-1.4014-3.6426-2.1016-7.5811-2.1016-11.8164,0-5.9795,1.5254-11.0078,4.5771-15.0869,3.0508-4.0782,7.4415-7.1143,13.1719-9.1084v-17.5625c0-.4971,.1709-.9336,.5137-1.3077,.3418-.373,.7617-.5605,1.2607-.5605h22.6075c.497,0,.9336,.1875,1.3076,.5605,.374,.3741,.5605,.8106,.5605,1.3077v15.2275c4.0479,.1865,8.0332,.499,11.9571,.9336,.4345,.0635,.8251,.2803,1.1679,.6543,.3418,.373,.4815,.8096,.4199,1.3076l-1.7744,18.2158c-.0634,.5-.3125,.92-.748,1.2618-.4356,.3427-.9033,.4521-1.4004,.3271-6.291-1.3691-11.9893-2.0859-17.0957-2.1494-2.1182-.0606-3.9395,.2031-5.4649,.7949-1.5263,.5918-2.6152,1.3545-3.2695,2.2881-.6533,.9346-1.1064,1.7441-1.3545,2.4287-.249,.6865-.373,1.3398-.373,1.9619,0,.5606,.124,1.2149,.373,1.9619,.2481,.7471,.7471,1.6817,1.4951,2.8028,.7471,1.1201,2.0079,2.2109,3.7832,3.2695,1.7745,1.0596,3.9375,1.9004,6.4922,2.5215,2.8643,.748,5.6514,1.915,8.3604,3.5039,2.7099,1.5879,5.2158,3.6123,7.5205,6.0713,2.3027,2.4609,4.1406,5.497,5.5117,9.1084,1.3691,3.6123,2.0547,7.5361,2.0547,11.7705Z"/><path class="cls-1" d="M1040.9281,721.7525h-22.6074c-1.417,0-2.7432-.5469-3.7353-1.5391-.9922-.9922-1.5391-2.3184-1.5391-3.7354v-11.9091c-3.0205-.1905-5.8447-.4522-8.4307-.7803-1.3603-.1963-2.5039-.8457-3.3701-1.8858-.833-.9951-1.2773-2.2246-1.2773-3.5478,0-.1133,.0058-.2266,.0166-.3389l1.7744-18.2158c.1738-1.5859,.9512-2.9258,2.1943-3.8154,1.2403-.8867,2.7608-1.1934,4.2871-.8516,1.3213,.3008,2.6866,.5713,4.0791,.8067,1.4014,.2402,3.2598,.498,5.5303,.7695,2.1904,.2637,4.2344,.3965,6.0762,.3965,1.7939,.0488,3.2109-.1387,4.2959-.5586,1.2187-.4717,1.5498-.8867,1.6045-.9649,.5478-.7959,.7832-1.3056,.8838-1.5937,.1738-.501,.1787-.7373,.1787-.7627,0-.1358-.0254-.4385-.1953-.9522-.087-.2588-.3457-.8759-1.0772-2.0214-.2334-.3663-.8818-1.1348-2.5801-2.1475-1.4648-.874-3.3252-1.5908-5.5283-2.1279-3.2422-.7579-6.4121-2.0606-9.3896-3.8623-2.9317-1.7725-5.6914-4.0127-8.2002-6.6582-2.6104-2.75-4.7256-6.2032-6.2862-10.2598-1.5498-4.0274-2.3349-8.4258-2.3349-13.0733,0-6.7236,1.7744-12.5048,5.2744-17.1835,3.0244-4.043,7.2139-7.2032,12.4746-9.417v-15.1573c0-1.3789,.4961-2.6494,1.4336-3.6718,1.0019-1.0938,2.3662-1.6963,3.8408-1.6963h22.6074c1.4141,0,2.7559,.5615,3.7793,1.582,1.0254,1.0264,1.5889,2.3691,1.5889,3.7861v11.9141c2.9697,.1885,5.9326,.4463,8.8428,.7686,.04,.0039,.08,.0097,.1201,.0156,1.2353,.1797,2.3574,.7861,3.2422,1.7529,1.0342,1.1279,1.501,2.585,1.3135,4.1006l-1.7647,18.126c-.0029,.0341-.0068,.0683-.0117,.1015-.1807,1.4229-.8926,2.6592-2.0586,3.5742-1.2705,1-2.8125,1.3487-4.3457,.9854-6.0186-1.3076-11.5205-2.001-16.3555-2.0605-1.7031-.0479-3.0771,.1396-4.1553,.5576-1.1709,.4541-1.5566,.875-1.6689,1.0342-.624,.8935-.8506,1.3935-.9297,1.6123-.1074,.2959-.164,.5615-.164,.7695,0,.0459,.0097,.3027,.1933,.8555,.0684,.205,.3086,.8007,1.0859,1.9668,.2559,.3828,.9415,1.1777,2.6641,2.206,1.4688,.877,3.3281,1.5918,5.5274,2.126,3.2226,.8418,6.3339,2.1445,9.3037,3.8867,2.9834,1.7471,5.7773,4.001,8.3037,6.6963,2.6074,2.7871,4.7031,6.2383,6.2304,10.2598,1.5147,3.997,2.2823,8.374,2.2823,13.0127,0,7.2343-1.6407,13.2646-4.875,17.9238-2.8789,4.1416-7.2022,7.2832-12.8741,9.3633v14.5634c0,1.4141-.5449,2.7393-1.5351,3.7325-1,.997-2.3252,1.542-3.7393,1.542Zm-20.8818-7h19.1562v-15.3702c0-1.5537,1.0245-2.9218,2.5157-3.3584,5.3496-1.5673,9.2549-4.0791,11.6093-7.4668,2.4043-3.4619,3.6241-8.1494,3.6241-13.9296,0-3.7881-.6153-7.3311-1.8272-10.5303-1.2011-3.1631-2.8144-5.8408-4.7949-7.9571-2.0645-2.2031-4.3311-4.0351-6.7344-5.4433-2.417-1.417-4.9316-2.4727-7.4756-3.1367-2.8232-.6866-5.333-1.668-7.4013-2.9034-2.2461-1.3388-3.8496-2.7568-4.9014-4.332-.9316-1.3965-1.5547-2.5879-1.9043-3.6426-.3711-1.1113-.5517-2.1152-.5517-3.0644,0-1.0274,.1962-2.0889,.583-3.1553,.3535-.9775,.9345-2.0381,1.7763-3.2402,1.0586-1.5108,2.6973-2.7031,4.8721-3.5469,1.9531-.7568,4.2559-1.1006,6.8301-1.0303,4.7441,.0586,10.0801,.6748,15.8447,1.8321l1.4268-14.6485c-3.3174-.3359-6.6924-.584-10.0586-.7392-1.8682-.086-3.3389-1.626-3.3389-3.4961v-13.5957h-19.25v15.9306c0,1.4893-.9424,2.8164-2.3496,3.3057-5.0332,1.751-8.9082,4.4092-11.5195,7.8994-2.6104,3.4893-3.8799,7.7383-3.8799,12.9902,0,3.7852,.6289,7.3379,1.8681,10.5596,1.2295,3.1973,2.8545,5.874,4.8311,7.9561,2.0781,2.1914,4.3476,4.0371,6.7451,5.4863,2.3486,1.4219,4.8359,2.4453,7.3936,3.043,2.915,.7109,5.4228,1.6924,7.4882,2.9248,2.2696,1.3545,3.8692,2.79,4.8926,4.3896,.8799,1.3789,1.4746,2.5488,1.8184,3.5791,.3691,1.1104,.5547,2.1729,.5547,3.1641,0,.9599-.1856,1.9619-.5674,3.0625-.3594,1.0293-.9248,2.0967-1.7324,3.2676-1.0274,1.4892-2.6563,2.6738-4.8409,3.5195-1.957,.7578-4.2812,1.0996-6.9209,1.0293h-.0283c-2.0146,0-4.3291-.1504-6.7822-.4453-2.3848-.2852-4.3604-.5606-5.8711-.8184-.8779-.1494-1.749-.3105-2.6035-.4834l-1.4297,14.6797c2.8897,.3213,6.1191,.5635,9.5879,.7158,1.8711,.083,3.3457,1.6241,3.3457,3.4971v13.502Zm32.8115-106.6026c-.0029,.0205-.0049,.042-.0068,.0635l.0068-.0635Z"/></g><path class="cls-1" d="M861.4145,288.4063c-.5118,0-1.0313-.1128-1.5235-.3511-1.7392-.8428-2.4658-2.9365-1.623-4.6758,.3789-.7832,38.0752-78.6045,50.5664-105.5083,.8144-1.7539,2.8974-2.5146,4.6484-1.7002,1.7539,.814,2.5147,2.895,1.7012,4.6484-12.5156,26.9556-50.2373,104.8287-50.6172,105.6119-.6045,1.248-1.8525,1.9751-3.1523,1.9751Z"/><path class="cls-1" d="M901.893,277.9317c-1.4268,0-2.8604-.2037-4.2735-.6294-4.4248-1.3335-7.9443-4.5835-9.9101-9.1514-1.876-4.3579-2.1035-9.4307-.6406-14.2827,3.0859-10.2383,12.8466-16.3819,21.7431-13.6992,4.4239,1.3335,7.9434,4.5835,9.9092,9.1508,1.876,4.3584,2.1035,9.4307,.6406,14.2827-2.5957,8.6124-9.9111,14.3292-17.4687,14.3292Zm2.5967-31.399c-4.5254,0-9.0342,3.7666-10.7198,9.356-.9873,3.2763-.8564,6.6479,.3692,9.4946,1.1347,2.6372,3.0888,4.4898,5.5,5.2168,5.2099,1.5698,11.0488-2.4756,13.0215-9.0181,.9873-3.2763,.8564-6.6479-.3692-9.4946-1.1348-2.6367-3.0879-4.4892-5.499-5.2163-.7588-.2285-1.5313-.3384-2.3027-.3384Z"/><path class="cls-1" d="M860.7826,228.3003c-2.623,0-5.2099-.6416-7.5566-1.9961-4.002-2.3105-6.6836-6.2793-7.5527-11.1758-.8292-4.6718,.1093-9.6616,2.6435-14.0503,5.3477-9.2612,16.251-13.0088,24.3018-8.3618,8.0527,4.6494,10.2548,15.9658,4.9091,25.2261-3.789,6.5615-10.3681,10.3574-16.7451,10.3579Zm4.2178-30.6001c-3.9209,0-8.124,2.5532-10.6211,6.8779h0c-1.7109,2.9634-2.3555,6.2759-1.8135,9.3272,.501,2.8266,1.9785,5.0771,4.1602,6.3364,4.708,2.7207,11.3223,.1182,14.7392-5.7993,3.4161-5.9175,2.3633-12.9443-2.3466-15.6636-1.2676-.7324-2.6739-1.0786-4.1182-1.0786Zm-13.6523,5.1279h0Z"/><path class="cls-1" d="M821.8666,285.605h-.0283c-1.9326-.0151-3.4873-1.5942-3.4727-3.5274,.0098-1.1733,.2432-28.8413,1.8282-38.1264,.3252-1.9048,2.1318-3.1802,4.039-2.8613,1.9053,.3251,3.1865,2.1337,2.8613,4.039-1.4902,8.731-1.7265,36.7217-1.7285,37.0034-.0156,1.9234-1.5791,3.4727-3.499,3.4727Z"/><path class="cls-1" d="M809.6361,260.71c-1.7978,0-3.3271-1.3765-3.4834-3.2012-.165-1.9258,1.2627-3.6211,3.1885-3.7861,7.8994-.6783,26.5283-.0386,27.3164-.0108,1.9317,.0674,3.4434,1.6885,3.376,3.6201-.0674,1.9317-1.6406,3.439-3.6201,3.376-.1885-.0068-18.9951-.6523-26.4746-.0107-.1016,.0088-.2031,.0127-.3028,.0127Z"/><path class="cls-1" d="M1402.2455,837.3159c-.1133,0-.2275-.0049-.3428-.0166-1.9238-.1865-3.332-1.8984-3.1445-3.8222,30.2539-311.0323,31.958-696.8145,15.666-727.3628-6.4502-12.0938-56.1318-30.4375-129.6562-47.8731-66.9492-15.876-137.2705-27.2187-171.0088-27.584-1.9326-.021-3.4824-1.6049-3.4619-3.538,.0205-1.92,1.584-3.462,3.499-3.462,.0127,0,.0264,0,.0391,.0005,34.1972,.3701,105.1513,11.7906,172.5478,27.7725,45.6651,10.8291,123.8252,31.9048,134.2168,51.3901,10.5264,19.7364,12.2236,150.2227,10.3018,265.7573-2.6358,158.4883-11.8125,328.1846-25.1768,465.5772-.1758,1.8086-1.6992,3.1611-3.4795,3.1611Z"/><g><path class="cls-1" d="M373.9041,210.1059c24.3581,24.2488,56.0886-21.0859,22.0658-20.3091,22.1433-31.9569-24.6597-49.571-33.9694-26.4059-6.5557-13.6638-33.5355-9.0456-29.8896,6.7533-17.7434-17.2573-49.5843,1.2153-44.237,25.5214-32.084-6.8057-59.3068,34.7577-26.0075,45.9385-9.6197,5.2142-10.4799,25.0887,7.2065,29.1364,7.8127,1.788,13.4636,8.3311,16.2042,14.286,3.5708,7.7589,14.9848,14.5419,17.4972-1.2498,2.4996-15.7118,9.4627-17.4972,12.855-19.9968s6.6061-18.0328,0-23.5677c9.2843,2.4996,23.3891-4.285,22.1393-19.8182,8.5701,7.1417,29.4596,5.8919,36.1355-10.2881Z"/><path class="cls-1" d="M295.6029,296.8525c-5.685,.0005-11.1001-5.1367-13.5053-10.3627-2.2823-4.9595-7.1079-10.8047-13.8057-12.3374-9.1768-2.1001-15.3506-8.4371-16.5142-16.9507-.7319-5.3531,.7017-10.6792,3.6475-14.5332-11.6348-6.1192-13.6958-16.5576-11.3975-24.9776,3.9327-14.4072,20.7388-27.6889,39.7793-26.1499-.518-11.0967,5.5162-21.5478,16.2579-27.5268,9.5932-5.3389,20.2607-5.4449,28.7851-.6509,1.3521-4.5791,5.0669-8.2944,10.5908-10.23,7.2632-2.5454,16.48-1.5029,22.1997,3.916,3.543-4.519,8.899-7.2475,15.3433-7.6787,10.2436-.686,20.7256,4.7031,25.4907,13.1055,2.4497,4.3208,5.2456,12.7934-.5488,24.1909,8.3945,1.356,11.0893,6.0381,11.9507,9.0586,2.0342,7.1343-2.9629,16.3657-11.624,21.4717-8.9947,5.3037-18.9219,4.6587-27.2886-1.5591-3.6489,5.7285-9.3491,9.7466-16.4453,11.501-6.0528,1.497-12.3765,1.1167-17.4932-.8775-.8413,5.106-3.3262,9.5342-7.27,12.8159-3.3413,2.7808-7.5347,4.5137-11.7398,5,.7066,2.2745,1.0308,4.8931,.941,7.7676-.1675,5.3648-1.8819,12.2696-5.251,14.7525-.6245,.4599-1.2774,.8584-1.9683,1.2802-3.3994,2.0757-7.6308,4.6592-9.5063,16.4488-1.5782,9.9194-6.545,12.0517-9.3658,12.4399-.4213,.0581-.8427,.0859-1.2622,.0859Zm-14.6816-98.4145c-14.313,0-27.1411,10.1074-30.1406,21.0962-2.3633,8.6572,1.9697,15.3169,12.2002,18.7519,1.3203,.4434,2.2524,1.628,2.3725,3.0162,.1201,1.3877-.5942,2.7148-1.8188,3.3789-3.4546,1.872-5.482,6.7392-4.8213,11.5727,.7646,5.5928,4.8252,9.6294,11.1401,11.0752,11.544,2.6411,17.1577,13.0933,18.6031,16.2339,1.7783,3.8638,5.4604,6.5332,7.4545,6.269,1.5083-.2075,2.7818-2.6767,3.4068-6.6049,2.3833-14.981,8.8867-18.9512,12.772-21.3238,.5815-.3549,1.0835-.6616,1.4633-.9414,.7598-.7295,2.5762-5.3193,2.4073-10.7119-.1075-3.4394-1.0235-6.0517-2.5787-7.355-1.2592-1.0547-1.6152-2.8427-.8564-4.2993,.7588-1.4565,2.4316-2.186,4.0137-1.7632,4.0556,1.0938,9.1738-.1684,12.7387-3.1352,2.587-2.1529,5.5542-6.1592,5.002-13.0225-.1128-1.4043,.6274-2.7397,1.8779-3.3882,1.2515-.6489,2.7696-.4824,3.8516,.4185,3.7046,3.0884,10.625,4.1733,16.8291,2.6387,3.7661-.9312,10.5708-3.6729,13.8306-11.5728,.4458-1.0801,1.4008-1.8667,2.5463-2.0967,1.147-.228,2.3306,.1275,3.1582,.9512,9.5123,9.4687,18.7808,5.6309,22.3238,3.542,6.3003-3.7149,9.4546-9.9912,8.4472-13.5225-.8281-2.9062-4.8842-4.4941-11.0947-4.3491-1.311,.0391-2.5376-.6807-3.1621-1.8398-.6235-1.1592-.5444-2.5703,.2051-3.6524,5.6474-8.1504,6.7856-15.7143,3.2925-21.8745-3.4322-6.0532-11.3999-10.0864-18.9336-9.5742-3.3975,.227-9.5,1.6133-12.2036,8.3413-.5176,1.2876-1.7466,2.1479-3.1333,2.1929-1.399,.0488-2.6695-.7329-3.2701-1.9839-2.8291-5.8985-11.0737-7.2744-17.0888-5.166-2.3516,.8242-7.667,3.4111-6.2349,9.6176,.3491,1.5127-.3398,3.0748-1.6924,3.8365-1.3515,.7632-3.0454,.542-4.1582-.5406-8.2558-8.0297-19.2749-6.3779-26.2007-2.5224-7.2456,4.0332-14.7822,12.9433-12.1772,24.7832,.2554,1.1616-.0967,2.3735-.9341,3.2173-.8379,.8442-2.0464,1.205-3.2104,.9585-2.0894-.4434-4.1739-.6514-6.2266-.6514Z"/></g></svg>