<?xml version="1.0" encoding="UTF-8"?><svg id="Electronic_Banking" xmlns="http://www.w3.org/2000/svg" viewBox="0 0 1744.9736 1071.2326"><defs><style>.cls-1{fill:#faa819;}.cls-2{fill:#072019;}.cls-3{fill:#fff6e7;}</style></defs><path class="cls-1" d="M231.3886,599.7676s-41.3004,6.2872-47.6876-6.0873c-5.0542-9.8086,18.1619-27.404,37.5458-36.3239-7.7647-80.068-87.866-112.1263-103.7841-107.6497-57.1073,16.0625-126.7114,61.1285-116.4474,70.0484,10.2529,8.9199,96.3638,47.4988,98.1522,124.5897,1.7884,77.08-26.7708,147.1283-15.6181,158.7254,6.1095,6.3538,36.7904-32.1916,78.0796-64.25,11.8413-9.1865,23.0273-18.8062,32.7248-29.1591,18.1286-19.2838,31.1363-41.0893,33.7578-67.2713l1.9995-.3333c-2.9214-17.3176-.1444-39.6674,1.2775-42.2889Z"/><g><path class="cls-3" d="M1196.2479,586.6155c19.0616-.1889,12.8077,30.3698,12.8077,30.3698,41.0004-23.6383,92.1094-40.0229,154.3821-39.1898,84.2473,1.1167,150.3164,36.5992,195.4954,84.6237,108.1039-100.2583,154.3794-213.3876,70.1638-320.8152-108.2429-138.0806-257.9795-20.4532-428.353-28.351-1.6062,129.882-4.2332,260.4498-4.496,273.3625Z"/><path class="cls-3" d="M221.247,557.354c5.09-2.34,9.92-4.1,13.9-4.94,22.1-4.7,55.69,68.85,51.99,108.48l.28,8.63s9.88,18.86,21.06,43.79c5.66,12.62,11.66,26.79,16.86,40.86,4.48,12.0601,8.21,24.24,11.46,35.5601l15.54-29.6201c41.45-80.3899,60.19-85.2999,64.34-110.0899,.65-3.94,1.32-20.78,1.94-42.84,1.57-55.19,2.82-143.04,2.82-143.04,0,0-71.01-8.11-71.97-12.87-.85-4.27,43.41-47.16,90.69-81.4-37.66-15.86-33.83-49.4-20-64.44,49.31-53.63,137.04,58.31,137.04,58.31,0,0,13.78-18.72,26.87-10.8,9.59,5.81-3.67,41.82-14.54,60.61,24.88-5.27,49.86,.38,46.11,19.85-4.66,24.07-63.33,38-63.33,38,0,0-5.8,55.95-8.1,122.34-.59,17.09-.94,34.87-.91,52.57,0,5.6,.05,11.18,.14,16.74,.07,4.28,80.17,60.63,126.7,182.51l.4506,1.1984c.7393-59.8479,3.4201-141.6968,5.2073-253.082,1.8694-116.1665-7.7903-362.5899-3.4792-489.0055-214.6729-11.374-431.6232,83.6212-489.3186,236.9292-15.57,41.37-24.97,80.87-28.95,118.43,28.28,15.1,62.28,46.56,67.2,97.32Z"/></g><path class="cls-1" d="M1423.2884,374.4086c41.8389-7.7349,81.0354,33.4857,64.9623,78.6914-16.0732,45.2058-83.589,41.3277-103.8057,7.7018-21.4102-35.611-1.0046-79.0263,38.8434-86.3932Z"/><path class="cls-2" d="M449.5041,433.2069h0c-2.6083,0-4.7227-2.1144-4.7227-4.7227v-12.0818c0-2.6082,2.1144-4.7226,4.7227-4.7226h0c2.6082,0,4.7226,2.1144,4.7226,4.7226v12.0818c0,2.6083-2.1144,4.7227-4.7226,4.7227Z"/><path class="cls-2" d="M478.2319,435.6946h0c-2.6083,0-4.7227-2.1144-4.7227-4.7227v-12.0818c0-2.6082,2.1144-4.7226,4.7227-4.7226h0c2.6083,0,4.7227,2.1144,4.7227,4.7226v12.0818c0,2.6083-2.1144,4.7227-4.7227,4.7227Z"/><path class="cls-2" d="M1147.8574,732.688h0c-2.6082,0-4.7227-2.1144-4.7227-4.7227v-12.0817c0-2.6083,2.1145-4.7227,4.7227-4.7227h0c2.6083,0,4.7227,2.1144,4.7227,4.7227v12.0817c0,2.6083-2.1144,4.7227-4.7227,4.7227Z"/><path class="cls-2" d="M1193.4399,749.9822h0c-2.6082,0-4.7226-2.1144-4.7226-4.7227v-12.0817c0-2.6083,2.1144-4.7227,4.7226-4.7227h0c2.6083,0,4.7227,2.1144,4.7227,4.7227v12.0817c0,2.6083-2.1144,4.7227-4.7227,4.7227Z"/><path class="cls-2" d="M824.6009,676.2497l.6889,9.6578h-12.8775l.6899-9.6578-8.163,5.6344-5.8638-10.4639,9.6584-4.8284-9.7734-4.8294,5.9788-10.2328,8.163,5.4033-.6899-9.6579h12.8775l-.6889,9.6579,8.163-5.4033,5.9783,10.2328-9.7728,4.8294,9.6578,4.8284-5.8633,10.4639-8.163-5.6344Z"/><path class="cls-2" d="M907.9125,676.2497l.6889,9.6578h-12.8775l.6899-9.6578-8.163,5.6344-5.8638-10.4639,9.6584-4.8284-9.7734-4.8294,5.9788-10.2328,8.163,5.4033-.6899-9.6579h12.8775l-.6889,9.6579,8.163-5.4033,5.9783,10.2328-9.7728,4.8294,9.6578,4.8284-5.8633,10.4639-8.163-5.6344Z"/><path class="cls-2" d="M993.4458,676.2497l.6888,9.6578h-12.8775l.6899-9.6578-8.163,5.6344-5.8633-10.4639,9.6579-4.8284-9.7728-4.8294,5.9782-10.2328,8.163,5.4033-.6899-9.6579h12.8775l-.6888,9.6579,8.163-5.4033,5.9782,10.2328-9.7728,4.8294,9.6579,4.8284-5.8633,10.4639-8.163-5.6344Z"/><g><path class="cls-2" d="M972.8033,351.4496c0,5.7023-1.2361,10.3319-3.7064,13.8894-2.4717,3.5562-6.3946,6.1221-11.7713,7.6981v14.9074c0,.4338-.1502,.8005-.448,1.0997-.2991,.2977-.6658,.448-1.0996,.448h-19.7139c-.4351,0-.8018-.1503-1.0996-.448-.2991-.2992-.448-.6659-.448-1.0997v-13.2784c-3.694-.1627-7.0337-.4351-10.0194-.8142-.3809-.0552-.7067-.2445-.9778-.5703-.272-.3262-.4072-.7067-.4072-1.1405l1.5477-15.8855c.0538-.4884,.2711-.868,.6516-1.1405,.3795-.2711,.8147-.3524,1.3036-.244,1.1936,.272,2.4297,.5165,3.7062,.733,1.2756,.2177,2.9326,.448,4.9691,.6924,2.0365,.2445,3.9229,.3667,5.6616,.3667,1.9006,.0534,3.5157-.1769,4.8469-.6925,1.3303-.5155,2.2668-1.1671,2.8104-1.9552,.5422-.7867,.9227-1.4929,1.1405-2.1178,.2164-.6236,.3258-1.1814,.3258-1.6699,0-.5423-.1094-1.1405-.3258-1.7921-.2178-.652-.6387-1.4667-1.2627-2.4441-.625-.9774-1.7108-1.9272-3.2584-2.8513-1.5477-.9227-3.4353-1.6556-5.6616-2.1992-2.5531-.5969-4.9972-1.6014-7.3315-3.0139-2.3357-1.4116-4.5082-3.1771-6.5166-5.2954-2.0098-2.1179-3.625-4.7651-4.8469-7.9422-1.222-3.177-1.8329-6.6114-1.8329-10.3049,0-5.2136,1.3302-9.5987,3.9917-13.1562,2.6601-3.5562,6.4886-6.2034,11.4857-7.9422v-15.315c0-.4338,.1489-.8147,.448-1.1405,.2978-.3258,.6645-.4884,1.0996-.4884h19.7139c.4338,0,.8147,.1626,1.1405,.4884s.4885,.7067,.4885,1.1405v13.2785c3.5299,.1626,7.0056,.4351,10.4271,.8142,.3792,.0551,.7192,.2445,1.0183,.5703,.2978,.3262,.42,.7067,.3667,1.1405l-1.5476,15.8852c-.0552,.4351-.2725,.8018-.6521,1.0996-.3804,.2991-.7876,.3947-1.2218,.2849-5.4861-1.1938-10.4552-1.8187-14.9074-1.8734-1.8468-.0533-3.4353,.1769-4.7656,.6925-1.3312,.5169-2.281,1.1809-2.8512,1.9956-.5698,.8147-.9645,1.521-1.181,2.1184-.2178,.5978-.3258,1.168-.3258,1.7103,0,.4889,.108,1.0591,.3258,1.7107,.2165,.6516,.6516,1.4663,1.3032,2.4441,.652,.9774,1.7516,1.9281,3.2993,2.8508,1.548,.9241,3.4344,1.6575,5.6616,2.1997,2.4974,.6516,4.9282,1.6699,7.291,3.0548,2.3623,1.385,4.5478,3.1504,6.5572,5.295,2.0086,2.1458,3.6113,4.7935,4.8065,7.9426,1.1938,3.1499,1.7921,6.5714,1.7921,10.264Z"/><path class="cls-2" d="M955.7784,390.9923h-19.7139c-.833,0-1.5801-.3071-2.1602-.8877-.58-.5791-.8877-1.3266-.8877-2.1601v-11.8496c-3.1552-.1675-6.0791-.4209-8.7089-.7554-.7744-.1118-1.4375-.4912-1.9424-1.1006-.4912-.5879-.7529-1.3149-.7529-2.0977,0-.0483,.0019-.0971,.0068-.1455l1.5478-15.8857c.1026-.9321,.5411-1.6914,1.2705-2.2144,.7286-.521,1.5967-.6909,2.502-.4887,1.1719,.2671,2.3916,.5078,3.6328,.7182,1.2285,.21,2.875,.4395,4.8965,.6822,1.9668,.2363,3.8125,.3559,5.4834,.3559,1.7353,.0528,3.1689-.1509,4.3047-.5913,1.0381-.4023,1.751-.876,2.1181-1.4082,.4639-.6738,.7862-1.2661,.959-1.7598,.1573-.4555,.2412-.8632,.2412-1.1762,0-.377-.0839-.8213-.249-1.3203-.1211-.3628-.4121-1.0264-1.1025-2.108-.4951-.7734-1.4248-1.5717-2.7647-2.371-1.4101-.8414-3.1757-1.5245-5.247-2.0303-2.6807-.626-5.294-1.6997-7.753-3.1875-2.4375-1.4727-4.7353-3.3389-6.8291-5.5464-2.1357-2.251-3.8711-5.0898-5.1582-8.436-1.2822-3.3355-1.9326-6.9834-1.9326-10.8433,0-5.521,1.4434-10.2495,4.29-14.0547,2.6465-3.5386,6.4073-6.2573,11.1875-8.0923v-14.2666c0-.8105,.292-1.5561,.8448-2.1567,.5801-.6348,1.3437-.9722,2.2031-.9722h19.7139c.834,0,1.5947,.3208,2.2011,.9282,.6065,.6055,.9278,1.3672,.9278,2.2007v11.8521c3.0537,.167,6.1054,.4189,9.0918,.75,.7705,.1113,1.4306,.4712,1.959,1.0469,.5996,.6562,.8574,1.4643,.749,2.3388l-1.542,15.8462c-.1113,.8721-.5313,1.5942-1.2197,2.1348-.7432,.5825-1.6387,.7798-2.5157,.5586-5.3154-1.1558-10.2295-1.7744-14.5576-1.8277-1.6631-.0493-3.0713,.1514-4.2051,.5909-1.0429,.4047-1.7714,.8955-2.165,1.4575-.4932,.7055-.8291,1.3003-.998,1.7675-.1582,.4332-.2374,.836-.2374,1.2012,0,.2237,.043,.6197,.2491,1.2349,.1191,.3594,.4101,1.0098,1.1279,2.0884,.5244,.7851,1.4736,1.5908,2.8203,2.3935,1.4131,.8447,3.1787,1.5274,5.2471,2.0308,2.6426,.6889,5.2226,1.7695,7.6953,3.2178,2.4746,1.4516,4.7939,3.3232,6.8936,5.5634,2.1357,2.2837,3.8564,5.1216,5.1132,8.437,1.2549,3.3081,1.8907,6.9405,1.8907,10.7959,0,5.9859-1.337,10.9468-3.9747,14.7447-2.4902,3.583-6.3564,6.2524-11.5039,7.9472v13.8028c0,.8305-.3056,1.5766-.8837,2.1577-.5889,.5845-1.334,.8901-2.1631,.8901Zm-31.1641-18.8012c.0068,.0644,.0273,.0942,.0566,.1289,2.9581,.4174,6.2872,.6879,9.9122,.8476,.8017,.0352,1.4335,.6958,1.4335,1.4985v13.2784l19.7618,.0478,.0468-14.9551c0-.666,.4395-1.2519,1.0782-1.4394,5.0136-1.4697,8.7021-3.8633,10.9619-7.1148,2.2812-3.2856,3.4385-7.6709,3.4385-13.0332,0-3.4907-.5704-6.7651-1.6954-9.7324-1.1181-2.9477-2.6318-5.4541-4.499-7.4497-1.9013-2.0293-3.9951-3.7207-6.2207-5.0259-2.2334-1.309-4.5586-2.2837-6.9111-2.8969-2.336-.5684-4.3799-1.3658-6.0518-2.3633-1.7558-1.0474-2.9922-2.1289-3.7773-3.3057-.7373-1.1059-1.2207-2.0234-1.4795-2.8056-.2705-.8082-.4024-1.5235-.4024-2.1822,0-.7168,.1407-1.4648,.417-2.2241,.2608-.7217,.7061-1.5298,1.3614-2.4648,.7402-1.0581,1.9306-1.9102,3.5371-2.5342,1.5097-.585,3.2998-.8526,5.3515-.7935,4.4991,.0552,9.6084,.6958,15.1622,1.9029,.0839-.0679,.0859-.0899,.0878-.105l1.542-15.8399c-.0195-.0263-.0761-.0766-.1074-.081-3.3389-.3692-6.8144-.6407-10.2803-.8003-.8007-.0371-1.4306-.6968-1.4306-1.4986v-13.2783l-.1084-.1279-19.7344-.001c-.0449,.0576-.0479,.0781-.0479,.1289v15.315c0,.6381-.4042,1.207-1.0068,1.4165-4.6865,1.6308-8.3135,4.1289-10.7783,7.4243-2.4502,3.2749-3.6924,7.3989-3.6924,12.2578,0,3.4902,.583,6.7759,1.7334,9.7661,1.1445,2.978,2.6699,5.4839,4.5342,7.4487,1.9092,2.0122,3.9961,3.7095,6.2041,5.044,2.1894,1.3247,4.5098,2.2788,6.8975,2.8369,2.3769,.5801,4.4199,1.377,6.0888,2.3711,1.7676,1.0561,2.9951,2.1455,3.7539,3.332,.6973,1.0918,1.1621,1.9995,1.4219,2.7769,.2676,.8076,.4023,1.5693,.4023,2.2671,0,.6611-.1337,1.3681-.4072,2.1606-.2656,.7608-.6982,1.5703-1.3232,2.478-.7158,1.0372-1.8946,1.879-3.5039,2.503-1.5108,.5849-3.3418,.854-5.4307,.7934h-.0117c-1.7461,0-3.707-.1269-5.7871-.3769-2.0996-.2525-3.749-.4824-5.043-.7031-1.2939-.2193-2.5684-.4712-3.7861-.7491l-.1201,.0196-1.5479,15.8379Z"/></g><g><path class="cls-2" d="M1444.9711,445.3903c-1.0989,3.1422-2.6722,5.455-4.7191,6.9392-2.0473,1.4833-4.7034,2.1412-7.9699,1.9735l-2.873,8.2145c-.0836,.239-.237,.4121-.4588,.5196-.2222,.1064-.4532,.1185-.6922,.0349l-10.8631-3.7992c-.2398-.0839-.4129-.2373-.5196-.4588-.1072-.2225-.1185-.4532-.0349-.6923l2.559-7.3169c-2.0042-.8015-3.792-1.5953-5.3642-2.3796-.1992-.1038-.3423-.2709-.4289-.5027-.087-.2321-.0881-.4678-.0045-.7069l3.9142-8.4552c.1238-.2588,.3167-.426,.5789-.5029,.2614-.0762,.5168-.0372,.7653,.1168,.6053,.3799,1.2393,.7529,1.901,1.1181,.661,.3659,1.5296,.8121,2.6047,1.3393,1.0751,.5271,2.091,.958,3.0491,1.2931,1.037,.3957,1.9714,.5801,2.8043,.5525,.8324-.0277,1.474-.2063,1.9254-.5358,.4504-.329,.7962-.6448,1.0366-.9472,.2395-.3019,.4072-.5882,.5014-.8574,.1045-.2988,.1595-.6495,.1658-1.0502,.0057-.4013-.0693-.9314-.2248-1.5902-.156-.659-.5713-1.3917-1.246-2.1991-.6749-.8067-1.5739-1.5744-2.6959-2.3029-1.2918-.821-2.445-1.8455-3.4591-3.0737-1.015-1.228-1.8719-2.6195-2.5703-4.1738-.6994-1.5544-1.0792-3.3244-1.1402-5.3106-.0611-1.9861,.2641-3.9963,.9759-6.0316,1.0048-2.8729,2.5829-5.0329,4.7351-6.4803,2.1511-1.4469,4.7709-2.1678,7.8596-2.1629l2.9515-8.4391c.0836-.239,.239-.4202,.4666-.5421,.2269-.1221,.4603-.1411,.7001-.0573l10.8631,3.7993c.239,.0836,.4175,.2466,.5343,.4889,.1167,.2423,.133,.4836,.0494,.7226l-2.5591,7.3169c1.9138,.77,3.7766,1.5899,5.5889,2.4582,.1983,.1035,.3491,.2733,.4512,.5105,.1012,.2372,.0952,.4704-.0178,.6991l-3.9141,8.4551c-.1143,.2292-.3047,.3893-.5712,.4803-.2673,.0915-.5101,.0657-.7282-.0785-2.793-1.7151-5.4107-3.0171-7.8535-3.9053-1.0074-.3853-1.9271-.5645-2.7595-.5368-.8331,.0283-1.4845,.2111-1.9557,.5502-.471,.3391-.8246,.6522-1.059,.9397-.2352,.2874-.4046,.5808-.5091,.8796-.0942,.2694-.1446,.6045-.1502,1.0055-.0063,.4008,.0765,.9335,.2471,1.5979,.1709,.6643,.5936,1.4001,1.2686,2.2068,.675,.8075,1.5731,1.5751,2.6958,2.3032,1.2506,.8403,2.3939,1.8699,3.4289,3.0884,1.0349,1.2184,1.8989,2.6124,2.5929,4.1814,.6932,1.5695,1.0661,3.3374,1.1178,5.303,.0508,1.9658-.2789,3.9664-.9906,6.0012Z"/><path class="cls-2" d="M1428.5694,464.6281c-.2686,0-.5391-.0469-.8057-.1402l-10.8642-3.7993c-.6153-.2148-1.0909-.6367-1.3741-1.2192-.2832-.5928-.3164-1.2276-.0996-1.8443l2.0879-5.9712c-1.5107-.6318-2.9013-1.2641-4.1484-1.8862-.5528-.2886-.9463-.7402-1.1631-1.3188-.21-.5581-.2158-1.1548-.0176-1.7251,.0166-.0469,.0352-.0933,.0557-.1387l3.914-8.4551c.3145-.6553,.8497-1.1147,1.5166-1.3115,.668-.1943,1.3711-.0952,1.9776,.2793,.5918,.3711,1.2012,.73,1.8379,1.081,.6289,.3492,1.459,.7759,2.54,1.3062,1.0166,.498,1.9863,.9102,2.8838,1.2236,.8848,.3369,1.6152,.4883,2.2607,.4698,.709-.024,.9981-.1817,1.0899-.2486,.4238-.31,.6406-.5351,.7471-.6684,.1816-.2305,.2412-.3692,.2587-.418,.0352-.1006,.0772-.2817,.0821-.582,.0019-.1514-.0186-.5166-.1846-1.2207-.0693-.292-.2881-.8052-.9375-1.5816-.5742-.6865-1.3691-1.3618-2.3613-2.0063-1.4053-.8926-2.6875-2.0313-3.7988-3.3765-1.0967-1.3271-2.0332-2.8462-2.7823-4.5146-.7773-1.7266-1.2041-3.7051-1.2705-5.8794-.0674-2.1607,.2891-4.3721,1.0586-6.5728,1.1094-3.1724,2.8975-5.6045,5.3145-7.2295,2.1338-1.4365,4.6943-2.2392,7.622-2.3916l2.6094-7.4609c.21-.5977,.6162-1.0708,1.1758-1.3697,.5889-.3173,1.2666-.371,1.8994-.1518l10.8662,3.8003c.6182,.2168,1.0977,.6489,1.3897,1.2515,.292,.6103,.33,1.2563,.1132,1.8735l-2.0878,5.9722c1.4755,.6191,2.9336,1.2734,4.3515,1.9531,.5488,.2856,.9414,.7163,1.1797,1.2676,.2744,.642,.2568,1.3349-.0478,1.956l-3.8995,8.4238c-.3105,.6241-.8046,1.0494-1.4462,1.2691-.7139,.2427-1.4366,.1548-2.042-.2466-2.6524-1.6279-5.2032-2.8975-7.5391-3.7466-.8389-.3208-1.5762-.4643-2.1973-.4472-.5117,.017-.9121,.1123-1.1289,.268-.4775,.3438-.6885,.5674-.7724,.6704-.1241,.1509-.209,.2935-.2559,.4268-.0176,.0513-.0615,.2109-.0664,.5327-.002,.1484,.0205,.502,.2002,1.2041,.0781,.3027,.3096,.8306,.9658,1.6167,.5762,.6885,1.3711,1.3633,2.3623,2.0068,1.3799,.9268,2.6367,2.0577,3.7559,3.3755,1.1211,1.3199,2.0703,2.8487,2.8213,4.5454,.7695,1.7432,1.1884,3.7183,1.2451,5.8706,.0556,2.1407-.3057,4.3394-1.0742,6.5362-1.1963,3.4204-2.9639,5.9975-5.2539,7.6582-2.0752,1.5029-4.6934,2.269-7.795,2.2837l-2.5127,7.185c-.2177,.6182-.6396,1.0923-1.2207,1.3745-.3339,.1602-.6836,.2403-1.0351,.2408Zm-10.1162-6.5743l9.7373,3.4053,2.6758-7.6513c.2197-.629,.8212-1.044,1.4931-1.003,2.9121,.1524,5.2598-.4194,7.0127-1.6899,1.7852-1.2945,3.1924-3.3872,4.1826-6.2197v-.0005c.6485-1.8521,.9532-3.6914,.9082-5.4668-.0468-1.7588-.3798-3.3526-.9912-4.7359-.6338-1.4316-1.4287-2.7158-2.3642-3.8159-.9405-1.1079-1.9912-2.0547-3.1221-2.8144-1.2227-.793-2.2422-1.668-3.0098-2.5865-.8281-.9897-1.3418-1.9043-1.5713-2.7954-.206-.8056-.3017-1.457-.2939-1.9931,.0088-.5655,.085-1.0489,.2334-1.4766,.1641-.4683,.4209-.9175,.7656-1.3374,.3174-.3897,.7578-.7852,1.3438-1.207,.7138-.5137,1.6494-.7935,2.7812-.8311,1.0303-.0322,2.1543,.1787,3.3457,.6348,2.335,.8486,4.8721,2.0884,7.5313,3.6811l3.3965-7.3379c-1.5977-.7524-3.2813-1.4873-4.9786-2.1704-.7441-.2993-1.121-1.1299-.8564-1.8867l2.3779-6.7988-9.7822-3.4209-2.7695,7.9209c-.211,.602-.7783,1.0049-1.416,1.0049h-.0303c-2.7588,0-5.1104,.6416-6.9912,1.9077-1.8946,1.2734-3.2539,3.1474-4.1573,5.7304-.6474,1.8516-.9482,3.6988-.8925,5.4903,.0547,1.7798,.3935,3.375,1.0088,4.7417,.6396,1.4238,1.4326,2.7134,2.3584,3.8335,.9111,1.1025,1.956,2.0322,3.1074,2.7632,1.2558,.8154,2.2754,1.6899,3.042,2.6064,.834,.998,1.3427,1.9185,1.5556,2.8154,.1856,.7896,.2725,1.4297,.2647,1.9585-.0098,.5655-.0938,1.0767-.25,1.5235-.1494,.4292-.3926,.8525-.7412,1.2934-.3272,.4126-.7617,.813-1.3282,1.2271-.6972,.5092-1.6259,.7861-2.7597,.8237-1.0342,.0366-2.1719-.186-3.3897-.6504-.9697-.3384-2.0508-.7969-3.1738-1.3476-1.127-.5528-2.001-1.002-2.6719-1.3746-.4902-.2705-.9677-.5459-1.4297-.8256l-3.4023,7.3501c1.3994,.6796,3.0019,1.3828,4.7549,2.0839,.7451,.2979,1.123,1.1299,.8584,1.8877l-2.3623,6.7539Zm31.2041-37.5722c.0078,.0053,.0166,.0102,.0254,.0156-.0088-.0054-.0166-.0107-.0254-.0156Zm3.0927-8.1934c-.0029,.0059-.0048,.0117-.0078,.0176l.0078-.0176Z"/></g><path class="cls-2" d="M352.3277,763.6173c-.5401,0-1.0884-.126-1.6016-.3906-1.7178-.8857-2.3921-2.9971-1.5063-4.7148,21.8418-42.3506,37.5215-64.0186,47.8974-78.3575,9.1983-12.7119,14.2652-19.7138,16.1026-30.7099,1.7534-10.4922,3.7944-121.9234,4.6728-182.1905-5.9126-.7036-19.2822-2.3408-32.5888-4.2924-10.4478-1.5323-18.8282-2.958-24.9073-4.2378-10.5322-2.2173-13.7524-3.7339-14.3579-6.7598-.4072-2.0371,.0562-4.4106,9.8096-14.6704,6.1743-6.4951,14.9487-14.895,24.707-23.6519,24.0801-21.6084,51.1284-42.8266,74.21-58.2143,1.6089-1.0728,3.7817-.6367,4.8535,.9707,1.0723,1.6084,.6377,3.7812-.9707,4.8535-47.9512,31.9673-96.3765,77.5439-104.6411,88.6978,8.5801,2.8569,39.5937,7.497,67.8281,10.7187,1.7871,.2041,3.1284,1.729,3.1025,3.5278-.1005,7.0386-2.4965,172.5386-4.8134,186.4029-2.1084,12.6152-7.8399,20.5361-17.336,33.6591-10.2529,14.169-25.7465,35.5801-47.3466,77.4629-.6216,1.2051-1.8457,1.8965-3.1138,1.8965Z"/><path class="cls-2" d="M670.1372,849.0558c-1.4092,0-2.7378-.8574-3.2706-2.2529-37.4834-98.1807-96-152.6426-118.0288-173.1455-7.3344-6.8262-8.8608-8.2461-8.8989-10.542-1.5063-90.5498,8.7793-191.0743,8.8833-192.0786,.1533-1.4795,1.2256-2.7007,2.6724-3.045,15.7109-3.7353,57.2417-17.3496,60.6963-35.2519,.9902-5.1323-.3428-9.0738-4.0752-12.0488-9.9917-7.9649-34.396-7.2642-54.3994,1.561-1.7696,.7807-3.8345-.021-4.6148-1.7896-.7803-1.7685,.021-3.8344,1.7896-4.6147,22.5175-9.9331,49.5693-10.2109,61.5879-.6304,5.7958,4.6201,8.0732,11.1377,6.5849,18.8487-2.1597,11.1928-14.0932,21.4809-35.4692,30.5781-11.8496,5.0434-23.208,8.268-28.0513,9.5425-1.5459,15.8173-9.9131,105.8535-8.6201,187.9091,1.0127,1.1602,3.7773,3.7334,6.6836,6.4375,22.3545,20.8057,81.7358,76.0723,119.7998,175.7735,.6894,1.8056-.2158,3.8281-2.0215,4.5176-.4106,.1572-.833,.2314-1.248,.2314Z"/><path class="cls-2" d="M557.1998,447.4762c-1.1431,0-2.2632-.5591-2.9341-1.5874-1.0567-1.6186-.6011-3.7871,1.0176-4.8437,8.9394-5.836,23.7797-10.19,29.2011-9.5347,1.919,.2329,3.2862,1.977,3.0532,3.896-.2319,1.9189-1.9736,3.2881-3.896,3.0532-2.8232-.3364-16.1616,2.9834-24.5322,8.4468-.5903,.3852-1.2539,.5698-1.9096,.5698Z"/><g><path class="cls-2" d="M420.1608,305.4337c-20.1629,21.929-19.0764,83.1442,100.7809,71.6264,0,0-12.7785,47.8709,38.8726,47.8709,7.9185,0,37.3393-64.0678,24.2486-71.9863s-26.8663,10.7979-26.8663,10.7979c0,0-87.7251-111.9388-137.0358-58.3089Z"/><path class="cls-2" d="M559.8145,428.4308c-16.748,0-28.9551-4.8369-36.2827-14.377-8.5908-11.185-7.9688-25.6811-6.8999-33.0947-74.9072,6.1812-98.3111-17.1494-105.6084-31.8208-8.6358-17.3608-2.6524-36.0527,6.5605-46.0737h0c10.0557-10.9356,22.3667-16.19,36.6011-15.6353,43.1401,1.6993,91.189,56.4619,103.0732,70.8286,5.23-5.6181,16.7979-15.457,28.6163-8.3081,5.852,3.5401,6.58,12.8487,2.2265,28.4571-2.8061,10.0595-7.6738,22.1347-13.021,32.3003-9.3227,17.7236-13.4873,17.7236-15.2656,17.7236Zm-.5659-6.9048h0Zm-38.3067-47.9658c1.023,0,2.0015,.4487,2.67,1.2378,.7412,.8745,1.0068,2.0571,.7114,3.165-.0493,.1861-4.9263,19.2554,4.7832,31.857,5.8838,7.6357,16.0854,11.541,30.3242,11.6098,5.5068-3.1992,23.4024-39.0029,24.4033-58.164,.2022-3.8663-.3896-6.605-1.5825-7.3267-10.1894-6.1616-22.1196,9.7217-22.2392,9.8823-.6499,.878-1.6739,1.4038-2.7662,1.419-1.1079,0-2.1303-.479-2.8042-1.3384-.5463-.6968-55.1591-69.6968-100.5385-71.4785-12.253-.4693-22.4463,3.8955-31.166,13.3794h0c-7.6441,8.3134-12.6089,23.8188-5.4468,38.2177,5.7309,11.5215,23.083,28.9815,75.4697,28.9839,8.3608,0,17.605-.4443,27.8462-1.4282,.1123-.0107,.2241-.0161,.3354-.0161Z"/></g><path class="cls-2" d="M464.2867,476.2926c-1.7461,0-3.2564-1.3047-3.4702-3.0815-.2315-1.919,1.1367-3.6621,3.0556-3.8936,21.5283-2.5962,23.2017-18.8877,23.2017-23.8188,0-1.9331,1.5669-3.5,3.5-3.5s3.5,1.5669,3.5,3.5c0,12.56-7.6905,28.1548-29.3638,30.768-.1421,.0176-.2837,.0259-.4233,.0259Z"/><path class="cls-2" d="M455.2339,621.3263c-14.9453,0-26.1738-4.1133-38.5239-11.1973-1.6767-.9619-2.2563-3.1005-1.2949-4.7773,.9619-1.6768,3.1011-2.2559,4.7773-1.2949,26.5606,15.2334,48.0454,15.3965,122.9107-13.6446,1.8042-.7021,3.8291,.1944,4.5288,1.9971,.6992,1.8018-.1953,3.8301-1.9976,4.5283-44.206,17.1494-70.5737,24.3887-90.4004,24.3887Z"/><path class="cls-2" d="M450.7813,675.6134c-13.1411,0-24.0757-1.9463-31.5147-5.7598-1.7202-.8808-2.4003-2.9902-1.5185-4.7109,.8818-1.7197,2.9927-2.4023,4.7109-1.5176,10.5323,5.3975,30.5142,6.4756,53.4541,2.8809,24.2744-3.8018,48.1675-12.2529,65.5528-23.1846,1.6367-1.0293,3.7973-.5361,4.8261,1.0996,1.0288,1.6368,.5367,3.7969-1.0996,4.8262-18.1606,11.4199-43.0171,20.2305-68.1963,24.1748-9.3618,1.4668-18.1997,2.1914-26.2148,2.1914Z"/><path class="cls-2" d="M456.628,675.4601c-1.877,0-3.4297-1.4873-3.4961-3.3779-.4278-12.2549-1.0186-26.0225-1.7085-39.8145-.0967-1.9307,1.3901-3.5742,3.3208-3.6709,1.9394-.0801,3.5737,1.3906,3.6704,3.3213,.6914,13.8262,1.2842,27.6309,1.7134,39.9199,.0674,1.9317-1.4439,3.5528-3.376,3.6201-.0415,.001-.083,.002-.124,.002Z"/><path class="cls-2" d="M479.8238,662.6447c-1.8272,0-3.3657-1.418-3.4888-3.2676-.0107-.1582-1.0688-16.002-2.1128-29.5733-.1484-1.9277,1.294-3.6103,3.2212-3.7578,1.9238-.1552,3.6108,1.294,3.7583,3.2207,1.0469,13.6075,2.1069,29.4864,2.1177,29.6455,.1284,1.9288-1.3306,3.5957-3.2593,3.7247-.0791,.0048-.1582,.0078-.2363,.0078Z"/><path class="cls-2" d="M508.857,649.7843c-1.4824,0-2.8418-.9482-3.3257-2.4014-.1519-.457-.2046-.9228-.1699-1.374-.0537-2.1758-1.022-18.5849-2.3072-38.4414-.125-1.9287,1.3374-3.5937,3.2666-3.7187,1.9136-.1221,3.5938,1.3379,3.7188,3.2675,.6279,9.6973,1.2437,19.5752,1.6899,27.1016,.2139,3.6065,.3833,6.5762,.4922,8.6465,.2124,4.0391,.3296,6.2637-2.6938,6.8545-.2246,.0439-.4492,.0654-.6709,.0654Z"/><path class="cls-2" d="M528.1944,645.8927h-.0337c-1.9326-.0185-3.4849-1.5996-3.4668-3.5332,.0015-.1426,.1328-14.4297,0-27.8691-.019-1.9326,1.5327-3.5147,3.4653-3.5342h.0352c1.917,0,3.4805,1.5439,3.4995,3.4658,.1333,13.5078,.001,27.8604,0,28.0039-.0181,1.9209-1.582,3.4668-3.4995,3.4668Z"/><path class="cls-2" d="M287.4214,673.0236c-.1484,0-.2978-.0088-.4492-.0283-1.917-.2452-3.2724-1.9991-3.0268-3.9161,5.3418-41.7138-16.5328-90.4951-34.5674-107.1045-5.124-4.7187-9.9195-6.9013-13.503-6.1347-15.3696,3.2685-43.0742,20.29-48.5517,31.8457-.8799,1.8574-1.0513,3.333-.5083,4.3857,3.602,6.9864,27.9302,6.6836,44.0522,4.2383,1.3155-.2031,2.6299,.3633,3.3921,1.4522,.7471,1.0664,.8394,2.457,.2456,3.6103-1.6635,4.0938-5.875,44.1143,5.0987,55.3242,1.352,1.3809,1.3286,3.5967-.0528,4.9492-1.3808,1.3526-3.5976,1.3282-4.9492-.0527-11.333-11.5762-10.1475-43.9307-7.7983-57.6826-12.627,1.4658-40.1211,3.1797-46.21-8.6318-1.0972-2.127-1.917-5.6924,.4048-10.5909,6.9565-14.6767,37.7607-32.3642,53.4209-35.6953,5.9512-1.2646,12.7627,1.4434,19.7012,7.834,21.6865,19.9727,42.1206,71.3506,36.7685,113.1416-.2261,1.7666-1.7324,3.0557-3.4673,3.0557Zm-52.934-71.6182c-.0074,.0137-.0142,.0274-.0215,.04,.0068-.0126,.0141-.0253,.0215-.04Z"/><path class="cls-2" d="M391.6133,941.9074c-.7666,0-1.5385-.251-2.1841-.7666-5.5864-4.4698-12.3388-20.042-10.2045-34.2725,1.0044-6.6963-1.6094-8.5147-5.2276-11.0313-5.583-3.8847-10.1162-8.375-4.3413-20.5029,7.1231-14.958-3.1558-22.6504-15.3242-28.7334-6-3.001-9.6279-15.2988-16.6206-40.6074-4.2754-15.4717-9.1206-33.0088-15.6455-50.6055-12.0825-32.5859-28.5611-66.1269-35.0044-78.8818-11.0142,15.8252-26.563,28.0752-44.3423,34.8203-17.6812,6.71-36.2725,7.2949-49.73,1.5664-1.7783-.7578-2.6064-2.8135-1.8491-4.5918,.7568-1.7793,2.8115-2.6064,4.5913-1.8496,24.5396,10.4473,67.0034-2.8926,88.6982-38.7363,.6543-1.0811,1.8628-1.7168,3.1026-1.6856,1.2627,.0391,2.4062,.7559,2.9922,1.875,.2256,.4297,22.6958,43.4922,38.105,85.0498,6.6289,17.878,11.7299,36.3399,15.8291,51.1748,4.4643,16.1573,9.5244,34.4707,13.0039,36.21,7.3134,3.6572,29.5713,14.7842,18.5141,38.0049-3.6992,7.7685-2.0254,8.9336,2.0186,11.7471,3.9033,2.7148,9.8022,6.8183,8.1528,17.8164-1.77,11.7988,4.0308,24.8681,7.6548,27.7666,1.5093,1.208,1.7539,3.4101,.5464,4.9199-.6909,.8642-1.7085,1.3135-2.7354,1.3135Z"/><path class="cls-2" d="M215.792,860.4318c-1.8383,0-3.3803-1.4346-3.4902-3.293-.0181-.3008-1.8179-30.2627-5.5684-52.8008-2.4531-14.7441,1.4834-27.4961,11.7007-37.9013,.0049-.0049,.0098-.0098,.0147-.0147,.4297-4.2109-.0366-24.0937-6.1651-52.3682-.4096-1.8886,.7901-3.7519,2.6792-4.1621,1.8848-.4072,3.752,.7901,4.1617,2.6797,3.7114,17.1221,5.2675,30.749,5.9199,39.1651,1.2217,15.7666-.0518,17.6767-.4702,18.3046-.2764,.4151-.6035,.7481-1.1455,1.2999-8.5616,8.7197-11.8555,19.4345-9.7901,31.8486,3.812,22.9082,5.6328,53.2324,5.6509,53.5361,.1138,1.9287-1.3579,3.586-3.2876,3.7002-.0703,.0039-.1401,.0059-.21,.0059Z"/><path class="cls-2" d="M230.543,774.34c-4.7197,0-8.1538-1.4971-10.8608-3.3545-1.5943-1.0928-1.9995-3.2715-.9063-4.8662,1.0943-1.5928,3.2735-2,4.8662-.9053,12.3199,8.4473,40.7745-10.3271,82.2891-54.3037,1.3271-1.4053,3.5425-1.4697,4.9478-.1426,1.4052,1.3272,1.4692,3.542,.142,4.9473-44.4965,47.1357-67.4082,58.625-80.478,58.625Z"/><path class="cls-2" d="M284.0005,741.2619c-1.4853,0-2.8637-.9532-3.3359-2.4444-.0498-.1572-5.0176-15.8457-8.4751-26.4629-.5981-1.8379,.4063-3.8135,2.2446-4.4121,1.8389-.5996,3.813,.4072,4.4117,2.2442,3.4663,10.6455,8.4428,26.3603,8.4926,26.5175,.5835,1.8428-.4375,3.8096-2.2802,4.3936-.3516,.1113-.7076,.1641-1.0577,.1641Z"/><path class="cls-2" d="M268.1954,755.0167c-1.545,0-2.959-1.0312-3.3785-2.5937-.0639-.2373-6.4375-23.9063-11.7812-36.5371-.7534-1.7793,.0791-3.834,1.8594-4.5869,1.7807-.753,3.834,.0791,4.5869,1.8603,5.5332,13.0781,11.8305,36.461,12.0957,37.4492,.501,1.8672-.6065,3.7871-2.4732,4.2881-.3042,.0811-.6093,.1201-.9091,.1201Z"/><path class="cls-2" d="M243.2505,755.0167c-1.5273,0-2.9316-1.0078-3.3667-2.5507-.2065-.7325-5.0805-18.0752-7.0903-30.6377-.3052-1.9082,.9946-3.7032,2.9033-4.0088,1.9092-.3096,3.7031,.9941,4.0088,2.9033,1.9458,12.1641,6.8657,29.667,6.9155,29.8428,.5249,1.8603-.5581,3.7939-2.4184,4.3183-.3174,.0899-.6377,.1328-.9522,.1328Z"/><path class="cls-2" d="M720.6865,1005.7472c-15.8902,0-26.4444-3.4971-34.1231-11.2783-22.7368-23.0401-21.29-84.335-17.4248-248.1514,1.0391-44.039,2.2173-93.9551,3.1612-152.6992,.8149-50.7129-.5679-126.123-2.0313-205.9609-3.0312-165.337-6.166-336.3028,7.9668-360.5308C693.9052,.2653,735.083,1.1071,825.3023,2.9533c34.2783,.7011,76.9419,1.5756,127.5151,1.021,36.3838-.3975,67.6719-1.4756,95.2774-2.4273,106.4765-3.6699,150.5566-5.1899,155.5068,48.438,5.792,62.7505-3.458,517.3794-3.8545,536.7026-.039,1.9073-1.5986,3.4278-3.498,3.4278-.0244,0-.0479,0-.0733-.001-1.9326-.0391-3.4668-1.6387-3.4267-3.5713,.0967-4.7275,9.6377-473.5571,3.8818-535.9145-4.3437-47.0479-43.541-45.6978-148.2949-42.086-27.6436,.9531-58.9756,2.0327-95.4424,2.4317-50.6855,.5546-93.4077-.3199-127.7344-1.0225-84.7466-1.7358-127.2817-2.6045-140.8769,20.7021-5.6988,9.7686-8.8887,52.334-9.481,126.5147-.5337,66.7505,.9912,149.9248,2.4658,230.3603,1.4649,79.8999,2.8487,155.3687,2.0318,206.2027-.9444,58.7695-2.1226,108.6992-3.1621,152.751-3.7071,157.1123-5.2417,222.1435,15.4091,243.0693,6.5069,6.5928,15.5318,9.3223,30.2207,9.1894,76.5909-.7939,406.1993-6.6728,409.5196-6.7314,.0215-.001,.0429-.001,.0635-.001,1.9043,0,3.4638,1.5264,3.498,3.4375,.0352,1.9326-1.5039,3.5274-3.4365,3.5615-3.3203,.0596-332.9551,5.9385-409.5723,6.7334-.3862,.004-.772,.0059-1.1523,.0059Z"/><path class="cls-2" d="M825.8423,910.1173c-45.9731,0-85.3989-.8359-100.1206-3.3496-32.8481-5.6084-29.1689-72.2099-24.0766-164.3906,2.1674-39.2334,4.624-83.7012,4.2964-127.8945-.2203-29.7159-.8692-69.2334-1.5567-111.0718-3.4536-210.2241-5.206-386.0625,8.3906-408.4571,15.4019-25.3671,65.3794-23.7504,141.024-21.3081,24.6743,.7974,52.6401,1.7012,82.3881,1.7012,28.5489,0,56.6124-1.3061,83.751-2.5688,42.2842-1.9678,78.8047-3.6675,106.2735,.0009,20.0595,2.6792,46.9121,9.2608,48.5107,35.3746,3.1348,51.1889,.0537,485.9365,.0225,490.3222-.0137,1.9238-1.5782,3.4746-3.4991,3.4746h-.0263c-1.9326-.0136-3.4883-1.5918-3.4746-3.5254,.0312-4.3828,3.1103-438.8911-.0088-489.8437-2.1778-35.5728-66.2969-32.5889-147.4717-28.811-27.2197,1.2666-55.3662,2.5766-84.0772,2.5766-29.8613,0-57.8876-.9057-82.6142-1.7046-70.5557-2.2803-121.5347-3.9277-134.8145,17.9444-13.6543,22.4897-9.8755,252.5039-7.375,404.7094,.7178,43.6719,1.3374,81.3877,1.5577,111.1338,.3291,44.4131-2.1343,88.9971-4.3072,128.333-4.5219,81.8555-8.4267,152.5479,18.2652,157.1045,42.3955,7.2383,304.5293,.0254,307.1718-.0488,1.9405-.0352,3.543,1.4687,3.5967,3.4014,.0537,1.9326-1.4687,3.542-3.4014,3.5966-7.121,.1983-119.8935,3.2998-208.4243,3.3008Z"/><g><path class="cls-2" d="M876.9444,289.069c-.5176,0-1.043-.1153-1.5391-.3589-1.7353-.8511-2.4512-2.9482-1.6006-4.6836,8.2412-16.7988,18.2002-28.4062,42.3496-34.3579,22.4747-5.5391,57.5967-6.4951,121.2383-3.2974,1.9307,.0972,3.417,1.7407,3.3194,3.6714-.0967,1.9302-1.7666,3.4082-3.6709,3.3198-62.9053-3.1596-97.4453-2.2607-119.212,3.1031-21.6025,5.3242-30.1962,15.2675-37.7392,30.644-.6084,1.2393-1.8516,1.9595-3.1455,1.9595Z"/><g><path class="cls-2" d="M1028.9268,230.6288c-.0062,20.8657-.4959,44.7121,6.1981,43.1071,6.6941-1.6051,38.6776-20.4071,38.9255-25.6808,.248-5.2737-45.1203-28.6589-45.1236-17.4263Z"/><path class="cls-2" d="M1034.5059,277.3121c-1.3115,0-2.5693-.4379-3.6406-1.2841-5.2412-4.1407-5.4834-18.4444-5.4434-41.44l.0049-3.9599c.001-2.3741,1.1465-4.3726,3.1426-5.4839,8.0849-4.4976,31.2627,7.729,38.7431,12.3677,8.6592,5.3691,10.3545,8.1635,10.2344,10.708-.083,1.7714-.2568,5.458-18.6816,17.0161-8.2149,5.1538-18.7276,10.8974-22.9238,11.9033-.4815,.1157-.9629,.1728-1.4356,.1728Zm.7188-6.7597h0Zm-2.7989-39.4116l-.0039,3.4594c-.0205,11.9463-.0547,31.6363,2.4903,35.563,7.0566-2.2143,30.956-16.7554,35.2128-21.9897-2.1191-2.1089-8.7763-6.5567-18.0087-10.9199-11.3057-5.3428-17.7149-6.4029-19.6905-6.1128Zm38.2305,16.2304h0Zm-41.7295-16.7422h0Z"/></g></g><g><path class="cls-2" d="M908.3497,423.7213c-16.752,0-36.7144-.6152-60.7413-1.8222-1.9301-.0972-3.4169-1.7408-3.3198-3.6714,.0977-1.9307,1.7495-3.418,3.6714-3.3199,62.9072,3.1607,97.4443,2.2618,119.2119-3.103,21.6026-5.3242,30.1963-15.2676,37.7393-30.6435,.8515-1.7349,2.9472-2.4551,4.6846-1.6006,1.7353,.8511,2.4511,2.9482,1.6005,4.6836-8.2412,16.7988-18.2002,28.4057-42.3496,34.3574-13.9902,3.4477-32.8808,5.1196-60.497,5.1196Z"/><g><path class="cls-2" d="M856.074,437.6417c.0062-20.8656,.4958-44.712-6.1982-43.107-6.694,1.6051-38.6776,20.4071-38.9255,25.6808s45.1203,28.6589,45.1237,17.4262Z"/><path class="cls-2" d="M851.8384,444.1041c-10.1386,0-27.8003-9.4077-34.1513-13.3457-8.6582-5.3686-10.3526-8.1631-10.233-10.7075,.0835-1.7715,.2569-5.458,18.6817-17.0161,8.2153-5.1538,18.7275-10.8975,22.9243-11.9033,1.8159-.437,3.6167-.0405,5.0757,1.1113,5.2417,4.1411,5.4829,18.4473,5.4429,41.4473l-.0049,3.9526c-.0005,2.374-1.1465,4.3726-3.1431,5.4839-1.2212,.6797-2.7881,.9775-4.5923,.9775Zm.7383-6.4633c-.0015,.0102-.0029,.02-.0039,.0297l3.501-.0288-3.4971-.0009Zm-37.7012-17.5435c2.1202,2.1089,8.7769,6.5566,18.0088,10.9199,11.3028,5.3418,17.7154,6.4048,19.69,6.1128l.0044-3.4521c.021-11.9493,.0556-31.6431-2.4903-35.5703-7.0566,2.2148-30.9551,16.7553-35.2129,21.9897Zm-.5302,.8022h0Z"/></g></g><path class="cls-2" d="M107.0513,562.7286c-1.2075,0-2.3823-.6259-3.0312-1.7451-.9698-1.6728-.3999-3.8144,1.2724-4.7841,.4087-.2364,41.041-23.896,56.6597-41.6446,1.2769-1.4512,3.4893-1.5928,4.9394-.3154,1.4512,1.2768,1.5923,3.4883,.3155,4.9394-16.3745,18.6075-56.6953,42.087-58.4038,43.0772-.5528,.3203-1.1563,.4726-1.752,.4726Z"/><path class="cls-2" d="M129.2666,587.6828c-.8959,0-1.7919-.3418-2.4755-1.0264-1.3667-1.3672-1.3658-3.583,.0014-4.9492,14.4458-14.4375,39.5313-31.667,40.5918-32.3936,1.5952-1.0918,3.7735-.6836,4.8653,.9102,1.0922,1.5947,.6845,3.7734-.9102,4.8652-.2544,.1748-25.6147,17.5938-39.5986,31.5693-.6831,.6827-1.5786,1.0245-2.4742,1.0245Z"/><path class="cls-2" d="M76.7666,540.1828c-.8959,0-1.7919-.3418-2.4755-1.0264-1.3667-1.3672-1.3658-3.583,.0014-4.9492,14.4458-14.4375,72.492-49.6768,73.5525-50.4034,1.5952-1.0918,3.7735-.6836,4.8653,.9102,1.0922,1.5947,.6845,3.7734-.9102,4.8652-.2544,.1748-58.5754,35.6036-72.5593,49.5791-.6831,.6827-1.5786,1.0245-2.4742,1.0245Z"/><path class="cls-2" d="M144.7193,621.298c-1.1895,0-2.3491-.6065-3.0054-1.7012-.9936-1.6582-.4556-3.8076,1.2022-4.8017,13.4692-8.0752,23.4316-22.9082,23.5307-23.0577,1.0698-1.6074,3.2412-2.0459,4.8516-.9765,1.6094,1.0693,2.0483,3.2392,.9795,4.8496-.438,.6601-10.9082,16.2822-25.7622,25.1885-.5635,.3379-1.1841,.499-1.7964,.499Z"/><path class="cls-2" d="M788.1714,727.4142c-.9228,0-1.685-.0078-2.2817-.0244-7.7788-.2227-13.7983-11.042-17.8926-32.1592-4.6055-23.7529-7.5488-72.9707,6.5161-79.1094,13.6387-5.9472,81.6651-6.2265,147.4517-6.497,25.9434-.1065,50.4482-.2071,70.6045-.6475,11.5283-.251,22.2168-.585,31.6465-.8799,48.5332-1.5146,72.8925-2.2764,85.3984,11.0977,10.5342,11.2656,10.7559,31.4004,7.4795,64.6133-.1904,1.9228-1.8838,3.3183-3.8272,3.1396-1.9238-.1904-3.3291-1.9033-3.1396-3.8271,3.0029-30.4366,3.0449-49.8721-5.625-59.1446-10.3418-11.0605-35.1045-10.2881-80.0684-8.8818-9.4443,.2949-20.1503,.6289-31.7119,.8808-20.2177,.4414-44.7529,.543-70.7275,.6495-62.0454,.2548-132.3687,.5439-144.6821,5.913-1.751,.7647-5.2603,7.0059-5.9976,25.1514-.5864,14.4307,.7427,31.7051,3.5547,46.209,3.7441,19.3105,8.7607,26.4248,11.2192,26.4941,5.7744,.17,29.667-.58,59.9131-1.5214,57.9448-1.8047,145.5103-4.5284,180.7349-3.0752,1.9316,.08,3.4326,1.7099,3.3525,3.6416-.0801,1.9306-1.7344,3.4365-3.6416,3.3525-34.9717-1.4453-122.3848,1.2754-180.2275,3.0771-28.4048,.8848-49.7139,1.5479-58.0484,1.5479Z"/><path class="cls-2" d="M860.4795,725.4249c-1.9135,0-3.476-1.54-3.499-3.4589-.0088-.7442-.8931-74.8116-2.0703-108.2471-.0679-1.9317,1.4434-3.5528,3.375-3.6211,1.9292-.041,3.5527,1.4433,3.6211,3.375,1.1797,33.5176,2.0649,107.666,2.0742,108.4111,.0225,1.9326-1.5259,3.5176-3.4585,3.541h-.0425Z"/><path class="cls-2" d="M946.8018,723.0636c-1.9131,0-3.4756-1.5391-3.499-3.458-.0088-.7324-.8994-73.6367-2.0781-106.457-.0694-1.9326,1.4404-3.5547,3.372-3.6241,1.9522-.0429,3.5537,1.4415,3.6241,3.3721,1.1806,32.9043,2.0732,105.8916,2.082,106.625,.0234,1.9326-1.5244,3.5186-3.458,3.542h-.043Z"/><path class="cls-2" d="M1033.1045,694.2062c-1.9033,0-3.4629-1.5244-3.498-3.4346l-1.4746-79.2549c-.0361-1.9326,1.501-3.5293,3.4336-3.5644,.0224-.001,.0449-.001,.0664-.001,1.9033,0,3.4629,1.5244,3.498,3.4346l1.4746,79.2549c.0362,1.9326-1.5009,3.5293-3.4336,3.5644-.0224,.001-.0449,.001-.0664,.001Z"/><path class="cls-2" d="M1081.1817,757.9396c-.2432,0-.4893-.0254-.7363-.0781-30.6612-6.5625-46.6582-14.1162-53.4903-25.2608-4.5547-7.4267-5.0957-16.3379-1.7578-28.8935,4.4551-16.7764,13.3027-38.2403,30.1485-45.209,10.1367-4.1914,21.6914-2.5869,34.3457,4.7715,13.7968,8.0127,28.0195,18.7461,35.2695,24.4316,1.5205,1.1924,1.7871,3.3926,.5937,4.9141-1.1923,1.5215-3.3925,1.7871-4.914,.5937-7.1065-5.5722-21.0342-16.0859-34.4668-23.8877-10.668-6.2031-20.1358-7.6699-28.1524-4.3545-14.2002,5.8741-22.0088,25.2871-26.0586,40.5381-2.8056,10.5518-2.5097,17.7793,.959,23.4375,5.6572,9.2256,20.7656,16.0332,48.9883,22.0733,1.8906,.4052,3.0947,2.2646,2.6904,4.1552-.3515,1.6436-1.8037,2.7686-3.4189,2.7686Z"/><path class="cls-2" d="M1328.6778,1025.7941c-6.4004,0-12.8848-.0918-19.4522-.2735-79.3984-2.206-142.6377-21.9443-187.9619-58.6679-43.542-35.2793-55.5762-74.9248-58.2265-86.2354-.4414-1.8818,.7265-3.7656,2.6084-4.206,1.8779-.4444,3.7646,.7256,4.206,2.6084,2.5234,10.7636,14.0039,48.5136,55.8193,82.3945,44.1016,35.7324,105.9239,54.9473,183.7491,57.1084,86.1631,2.4004,160.4052-11.875,214.6875-41.2647,51.4531-27.8584,85.2324-69.2402,97.6845-119.6718,12.5235-50.7207-6.4394-118.5186-48.3105-172.7227-29.375-38.0273-95.7305-102.0498-210.0928-103.5693-76.9189-1.0352-144.9082,23.9814-201.9873,74.3174-42.081,37.1103-69.7256,81.5839-80.6113,108.3925-.7276,1.792-2.7715,2.6514-4.5596,1.9268-1.791-.7275-2.6533-2.7686-1.9267-4.5596,11.1728-27.5136,39.4746-73.0957,82.4677-111.0097,26.2784-23.1739,55.42-41.3653,86.6143-54.0684,37.2324-15.1611,77.6133-22.5518,120.0967-21.999,117.3027,1.5586,185.3925,67.2637,215.539,106.29,43.126,55.8301,62.5821,125.9658,49.5664,178.6797-12.9375,52.3975-47.914,95.3281-101.1474,124.1494-51.9922,28.1494-118.7862,42.3809-198.7627,42.3809Z"/><path class="cls-1" d="M1395.9848,606.9879c-27.8595-2.6326-62.2282-2.1105-91.1429,1.6441-2.1772,.2777-4.3321,.5775-6.4429,.8997-15.718-22.9829-12.7966-55.1523,10.1863-75.3581,3.1104-2.7327,6.4428-5.0543,9.9197-6.976,.0111-.0111,.0334-.0222,.0445-.0333,32.2693-17.7843,77.7019-1.1886,86.1552,41.267,2.9437,14.7517-.933,27.9594-8.7199,38.5566Z"/><path class="cls-2" d="M1679.3331,822.2296c-4.669,0-9.4053-1.1914-14.1182-3.583-3.7744-1.915-7.0234-4.2822-9.71-7.0205-10.04,2.9727-21.2275,1.5625-29.5957-4.3389-1.5801-1.1142-1.958-3.2978-.8437-4.8769,1.1133-1.5791,3.2988-1.959,4.8769-.8438,5.9112,4.168,13.625,5.4922,20.9092,4.0362-4.2412-7.1172-5.583-15.8086-3.6191-25.2119,2.625-12.5762,10.4189-22.3975,18.1289-22.8448,2.9765-.1611,8.3945,.9073,11.4453,10.0616,5.167,15.5,1.2978,29.9218-10.3496,38.5791-1.2354,.9179-2.5274,1.7461-3.8623,2.4834,1.6396,1.3437,3.5556,2.6015,5.7881,3.7343,8.8164,4.4737,17.4023,3.5967,25.5214-2.6064,5.1534-3.9365,9.586-9.7451,12.9366-16.0293-9.6319-7.5527-12.2071-23.6104-7.9385-32.6621,2.5283-5.3604,7.3057-7.7422,12.7705-6.376,4.3232,1.082,7.3174,4.6465,8.4307,10.0361,1.3906,6.7354-.1436,16.3369-3.9854,25.7647,6.1875,1.1836,14.1416-2.3985,22.9971-10.4717,1.4297-1.3008,3.6416-1.1982,4.9453,.2285,1.3018,1.4287,1.1992,3.6426-.2285,4.9453-13.8936,12.6651-24.1065,13.7217-30.7393,11.7705-3.7763,7.1163-8.8525,13.7071-14.9385,18.3565-5.9834,4.5713-12.3378,6.8691-18.8212,6.8691Zm-13.4395-57.6992c-.042,0-.084,.001-.127,.0039-3.4121,.1983-9.5078,6.8701-11.6826,17.2871-.9306,4.461-1.8291,13.541,3.5957,21.5156,1.6084-.7675,3.1524-1.6914,4.6016-2.7685,9.2363-6.8652,12.1094-18.0723,7.8848-30.7481-.6641-1.9921-2.0938-5.29-4.2725-5.29Zm42.7979-3.1894c-1.2002,0-2.4327,.5791-3.4571,2.7519-2.8135,5.9639-1.0635,17.2891,4.6758,23.0527,3.1074-7.8261,4.4356-15.6455,3.3379-20.9628-.5547-2.6885-1.6563-4.2569-3.2744-4.6612-.4151-.1045-.8467-.1806-1.2822-.1806Z"/><path class="cls-2" d="M1248.1202,1071.2326c-6.9844,0-12.9922-.4073-17.042-1.2413-20.6221-4.246-30.5723-22.5556-35.4883-65.3046-.2207-1.92,1.1572-3.6553,3.0781-3.877,1.9326-.2217,3.6553,1.1572,3.877,3.0781,5.1884,45.1231,15.7226,56.3194,29.9453,59.2481,8.6416,1.7793,28.2344,1.3564,45.5732-.9795,22.7891-3.0733,32.2217-8,33.001-10.5625,3.4463-11.3233-.043-28.5684-.0791-28.7412-.3906-1.8926,.8271-3.7442,2.7197-4.1358,1.8887-.3945,3.7432,.8252,4.1348,2.7168,.1611,.7764,3.8916,19.1533-.0781,32.1992-2.1553,7.0811-15.1973,12.2832-38.7627,15.46-10.4707,1.4121-21.5459,2.1397-30.8789,2.1397Z"/><path class="cls-2" d="M1520.6504,1037.546c-20.1855,0-35.414-12.2168-44.5029-35.9726-.6914-1.8057,.2129-3.8291,2.0176-4.5196,1.8125-.6943,3.8291,.2139,4.5195,2.0176,9.874,25.8076,27.0449,35.8047,51.0235,29.7217,16.3955-4.1602,25.9013-10.0342,30.8193-19.0459,6.3369-11.6113,5.3232-29.4824-3.0986-54.6348-.6133-1.833,.375-3.8164,2.208-4.4306,1.832-.6123,3.8164,.375,4.4306,2.208,9.2002,27.4775,10.0274,46.6103,2.6045,60.2109-5.9297,10.8653-16.7998,17.7979-35.2431,22.4776-5.1797,1.3144-10.1133,1.9677-14.7784,1.9677Z"/><path class="cls-2" d="M1296.6573,748.5343c-1.4981,0-2.8838-.9687-3.3457-2.4756-.5664-1.8476,.4726-3.8056,2.3213-4.372,20.7304-6.3516,34.4609-5.9737,35.0351-5.959,1.9317,.0634,3.4463,1.6816,3.3819,3.6142-.0635,1.9307-1.6504,3.4219-3.6143,3.3819-.1221,0-13.2354-.3252-32.752,5.6562-.3418,.1045-.6875,.1543-1.0263,.1543Z"/><path class="cls-2" d="M1178.0909,640.9904c-.1875,0-.378-.0157-.5703-.0469-1.9073-.3125-3.2002-2.1123-2.8877-4.0205,3.0761-18.7637,2.705-25.6397,2.7011-25.707-.1181-1.9288,1.3506-3.5889,3.2803-3.7061,1.9268-.1328,3.5879,1.3506,3.7061,3.2803,.0195,.3066,.4218,7.7343-2.7793,27.2656-.2813,1.7158-1.7657,2.9346-3.4502,2.9346Z"/><path class="cls-2" d="M1146.0743,668.6066c-1.7149,0-3.2119-1.2608-3.46-3.0078-4.959-34.9307,21.375-77.959,50.3164-82.2149,6.3057-.9258,11.3418,.5381,14.9561,4.3594,8.5722,9.0654,5.0312,27.8311,4.5996,29.9414-.3877,1.8936-2.2393,3.1123-4.1309,2.7266-1.8935-.3877-3.1142-2.2373-2.7265-4.1309,.9638-4.749,2.3339-18.2773-2.8331-23.7324-1.9794-2.0899-4.874-2.8203-8.8466-2.2383-25.1543,3.6982-48.8086,43.2813-44.4053,74.3047,.2725,1.9141-1.0596,3.6855-2.9727,3.957-.167,.0244-.333,.0352-.497,.0352Z"/><path class="cls-2" d="M1296.6543,775.1427c-1.8212,0-3.3584-1.4111-3.4873-3.2558-.1347-1.9288,1.3194-3.6006,3.2471-3.7354,16.8662-1.1807,60.7158-8.1689,61.0693-26.0947,.1729-8.8106-6.6767-17.9102-17.8769-23.7471-13.3057-6.9346-35.7119-10.0244-55.0791,4.083-1.5635,1.1377-3.751,.793-4.8897-.7685-1.1377-1.5625-.7939-3.751,.7686-4.8897,21.9551-15.9932,47.3555-12.4922,62.4355-4.6328,13.5743,7.0752,21.8663,18.6055,21.6397,30.0928-.2393,12.1494-11.9981,21.3925-34.9502,27.4756-16.1553,4.2812-31.9648,5.4179-32.6299,5.4638-.083,.0059-.165,.0088-.2471,.0088Z"/><path class="cls-2" d="M1442.8584,621.841c-.6601,0-1.3281-.1866-1.9209-.5762-6.0166-3.959-17.583-7.2168-33.4482-9.4219-3.7861-.5283-7.7666-.9893-11.832-1.3711-9.9951-.9433-20.7842-1.4834-32.0684-1.6055-4.4404-.0439-8.9756-.0224-13.4795,.0655-15.6728,.2939-31.1689,1.3896-44.8144,3.1709-2.1953,.2793-4.334,.5781-6.3672,.8886-7.5918,1.1582-14.46,2.504-20.4151,4-1.8759,.4717-3.7763-.6669-4.247-2.5419-.4707-1.8741,.667-3.7764,2.542-4.2471,6.1679-1.5498,13.2548-2.9395,21.0634-4.1309,2.0899-.3193,4.2862-.626,6.5284-.9111,13.8877-1.8125,29.6513-2.9287,45.5761-3.2266,4.5694-.0898,9.1758-.1123,13.6866-.0674,11.4804,.125,22.4648,.6748,32.6513,1.6368,4.168,.3906,8.253,.8642,12.1406,1.4062,17.129,2.3809,29.3526,5.916,36.3311,10.5078,1.6152,1.0625,2.0625,3.2324,1,4.8477-.6728,1.0224-1.7891,1.5762-2.9268,1.5762Z"/><path class="cls-2" d="M1089.7774,886.1417c-15.4531,0-32.1504-4.2871-48.1973-12.7158-21.3769-11.2285-33.3017-33.3164-30.3799-56.2724,3.4629-27.2081,26.0489-48.2657,60.4161-56.3282h0c20.124-4.7207,39.7382,.7793,55.2285,15.4873,17.5771,16.6895,26.2597,42.291,22.1201,65.2227-3.0635,16.9658-13.2393,30.4551-28.6543,37.9824-9.0801,4.4336-19.4883,6.624-30.5332,6.624Zm-16.5615-118.5019c-31.4053,7.3681-51.9932,26.208-55.0723,50.3974-2.5488,20.0274,7.9287,39.336,26.6924,49.1914,25.5469,13.4209,52.6162,15.6631,72.4023,5.9991,13.5537-6.6182,22.1426-18.0078,24.8379-32.9366,3.7324-20.6728-4.1387-43.7929-20.0508-58.9023-13.7236-13.0303-31.0605-17.9131-48.8095-13.749h0Z"/><path class="cls-2" d="M1094.3584,862.006c-1.7646,0-3.5195-.3467-5.2343-1.0488-7.5635-3.0938-10.461-11.6993-7.75-23.0186,3.4853-14.5557,15.041-29.6123,27.6435-28.5976h0c4.5635,.374,7.9756,3.124,9.6074,7.7421,3.7051,10.4864-2.372,30.0303-12.2685,39.4561-3.792,3.6113-7.919,5.4668-11.9981,5.4668Zm13.4366-45.7149c-8.0801,0-16.9239,12.0469-19.6133,23.2784-.6875,2.8711-2.4609,12.4326,3.5928,14.9091,3.0605,1.252,6.3427,.2403,9.7539-3.0078,7.7822-7.4121,13.2763-24.1884,10.497-32.0556-.8994-2.5449-2.3144-2.9942-3.58-3.0977h0c-.2159-.0176-.4336-.0264-.6504-.0264Z"/><path class="cls-2" d="M1050.7833,839.1544c-1.4258,0-2.8477-.3056-4.2344-.9218-6.1416-2.7334-8.2901-10.2198-5.7471-20.0264,2.8848-11.1211,11.0674-22.4649,20.5791-21.6377h0c3.6641,.3271,6.3975,2.6328,7.6973,6.4922,2.9365,8.7226-2.1348,25.3926-9.8662,32.4297-2.6631,2.4248-5.5557,3.664-8.4287,3.664Zm9.6318-35.6289c-4.5313,0-10.5606,7.6602-12.8369,16.4375-1.1875,4.5762-1.4239,10.4317,1.8164,11.874,.6318,.2784,2.3066,1.0264,5.1054-1.5224,6.0489-5.5068,9.8379-19.3955,7.9444-25.0205-.5567-1.6524-1.2627-1.7158-1.6846-1.753-.1133-.0107-.2295-.0156-.3447-.0156Z"/><g><path class="cls-2" d="M1365.2736,586.8376c-.4332-2.1105-1.1775-3.9989-2.2216-5.6652-1.0553-1.6551-2.2773-2.9881-3.6769-3.9767-1.3997-.9886-2.8659-1.744-4.3766-2.255-1.5108-.5221-3.0214-.822-4.5211-.8997-1.3441-.0445-2.5105-.2445-3.499-.5999-.9888-.3444-1.7329-.7554-2.2216-1.2441-.4889-.4777-.8332-.8887-1.0332-1.2442-.2-.3443-.322-.6553-.3887-.933-.0556-.3111-.0667-.6554-.0111-1.022,.0555-.3665,.1998-.8109,.4331-1.3441,.2222-.5331,.6888-1.0219,1.3885-1.4774,.7111-.4554,1.5886-.7664,2.655-.9553,2.5438-.4887,5.4651-.7109,8.742-.6775,.2556,.0221,.4777-.0889,.6666-.3,.1777-.211,.2555-.4554,.2444-.7109l-.9776-9.2642c-.0221-.2556-.1333-.4555-.3442-.611-.2112-.1444-.4223-.2111-.6444-.2-2.0107,.1778-4.0212,.4332-6.065,.7554l-1.5552-7.598c-.0444-.2444-.1889-.4444-.411-.5888-.2221-.1554-.4554-.1999-.711-.1554l-11.2748,2.3104c-.2444,.0556-.4331,.1889-.5666,.411-.1331,.2222-.1776,.4555-.122,.6998l1.7883,8.7644c-2.6548,1.5774-4.5321,3.5436-5.643,5.8874-1.0997,2.3439-1.344,5.0098-.7331,7.9868,.4333,2.1106,1.1775,4.01,2.255,5.6763,1.0663,1.6773,2.2994,2.9992,3.6991,3.9767,1.3996,.9775,2.8436,1.7329,4.3432,2.2661,1.4997,.5332,3.0214,.822,4.5434,.8664,1.344,.0556,2.5104,.2445,3.4989,.5999,.9887,.3443,1.7219,.7554,2.1994,1.2441,.4666,.4887,.7998,.8998,1.0109,1.2552,.2,.3444,.3333,.6777,.3888,.9775,.0556,.2889,.0667,.611,.0111,.9998-.0556,.3777-.1887,.8331-.3999,1.3441-.2221,.511-.6776,.9997-1.3774,1.4441-.7109,.4554-1.5996,.7776-2.6993,.9664-.9885,.1999-2.0882,.3555-3.2769,.4554-1.1887,.1-2.1661,.1555-2.9215,.1778-.7554,.0333-1.4884,.0333-2.2105,.0221-.2888-.011-.5332,.0889-.7109,.2889-.1888,.1999-.2666,.4443-.2444,.7331l.9775,9.2642c.0555,.2445,.1667,.4444,.3666,.5999,.1889,.1555,.4,.2221,.6221,.2111,1.755-.1333,3.699-.3666,5.8318-.6998l.1665,.8331c4.5434-.0889,9.0866-.1111,13.5855-.0667l-.8997-4.3766c2.888-1.5218,4.8319-3.4547,5.8318-5.7763,.9885-2.3216,1.1552-5.1209,.4887-8.3756Z"/><path class="cls-2" d="M1346.2676,606.9328c-.5088,0-.9677-.2559-1.2402-.6563-1.667,.2363-3.2246,.4111-4.6445,.5195-.6602,.0313-1.2178-.1601-1.6905-.5507-.4326-.337-.7383-.8243-.875-1.4239-.0127-.0576-.0224-.1162-.0293-.1758l-.9775-9.2636c-.0596-.7598,.165-1.4092,.6445-1.919,.4483-.5058,1.1006-.7734,1.8584-.7597,.6602,.0097,1.3633,.0087,2.0899-.0225,.8047-.0225,1.7851-.082,2.8593-.1738,1.1104-.0928,2.1543-.2373,3.1065-.4297,.9248-.1592,1.6455-.4121,2.1875-.7598,.5898-.375,.7646-.6699,.8125-.7803,.1445-.3525,.2519-.7041,.29-.9638,.0371-.2559,.0186-.4073,.001-.4981-.0127-.0683-.0557-.2343-.2139-.5078-.1396-.2334-.4111-.5654-.7988-.9726-.1982-.2022-.6514-.5293-1.6074-.8633-.8301-.2979-1.8291-.4658-3.0684-.5166-1.6621-.0489-3.3447-.3701-4.9824-.9522-1.6094-.5713-3.1904-1.3965-4.7002-2.4502-1.5625-1.0908-2.9443-2.5722-4.1064-4.4023-1.1543-1.7832-1.9834-3.8652-2.459-6.1777-.6738-3.2911-.3897-6.294,.8447-8.9258,1.1084-2.3379,2.8965-4.3399,5.3252-5.9658l-1.582-7.7491c-.1338-.584-.0313-1.207,.3037-1.7685,.3486-.5772,.873-.9571,1.5215-1.1055l11.3076-2.3174c.7002-.1211,1.331,.0196,1.8701,.3946,.5303,.3457,.9092,.9043,1.0283,1.5478l1.2637,6.1748c1.6406-.2353,3.206-.418,4.749-.5547,.6133-.0332,1.1358,.124,1.6211,.4551,.5996,.4395,.9365,1.041,.9942,1.7246l.9746,9.2324c.0351,.7246-.1758,1.3448-.5889,1.835-.5244,.5879-1.1826,.8818-1.8721,.832-3.1787-.0215-5.9941,.1895-8.4004,.6514-.9062,.1611-1.5957,.4043-2.1299,.7461-.5751,.374-.7568,.6572-.8134,.792-.2344,.5371-.3096,.831-.333,.9873-.0284,.1875-.0264,.3662,.0039,.5361,.0195,.0723,.0957,.25,.209,.4453,.0957,.169,.2998,.4502,.7851,.9248,.2305,.2295,.6943,.5616,1.666,.9004,.8516,.3047,1.875,.4766,3.0557,.5166,1.6611,.085,3.3203,.4151,4.96,.9805,1.6357,.5527,3.2373,1.3769,4.7529,2.4473,1.539,1.0879,2.9101,2.5673,4.0762,4.3955,1.1484,1.833,1.9619,3.9062,2.4267,6.1718h0c.7256,3.5411,.5313,6.6582-.5781,9.2637-1.0186,2.3643-2.8731,4.3643-5.5225,5.958l.6797,3.3057c.0908,.4443-.0234,.9053-.3115,1.2558-.2881,.3497-.7139,.5323-1.1729,.5459-4.4629-.0429-9.0185-.0224-13.541,.0665h-.0293Zm-.165-3.8331c.5635,0,1.0771,.3184,1.331,.8116,3.5313-.0606,7.0762-.0811,10.5762-.0596l-.5264-2.5606c-.1337-.6533,.1797-1.3173,.7706-1.6289,2.5585-1.3486,4.2929-3.0449,5.1533-5.0429,.8642-2.0283,.998-4.5469,.3965-7.4805h0c-.3916-1.9131-1.0723-3.6523-2.0235-5.1709-.9492-1.4883-2.0517-2.6855-3.2715-3.5478-1.2783-.9024-2.6211-1.5957-3.9912-2.0586-1.3828-.4776-2.7646-.753-4.1172-.8223-1.4658-.0488-2.7968-.2803-3.9287-.6856-1.2148-.4238-2.1269-.9472-2.7754-1.5957-.5976-.5839-1.0078-1.0869-1.2793-1.5683-.2509-.4317-.4365-.8818-.541-1.3223-.1064-.5781-.1123-1.0859-.0351-1.5947,.0732-.4922,.2509-1.0566,.542-1.7207,.331-.793,.9697-1.499,1.9443-2.1328,.8828-.5655,1.9297-.9473,3.2109-1.1748,2.4229-.4658,5.2373-.7032,8.3575-.7041l-.8506-8.0371c-1.6992,.163-3.4825,.3906-5.3897,.6914-.7881,.1299-1.542-.3946-1.7031-1.1807l-1.4453-7.0644-10.1465,2.08,1.6797,8.2266c.1279,.625-.1543,1.2627-.7031,1.5889-2.3741,1.4111-4.0752,3.1748-5.0547,5.2412-.9522,2.0293-1.1612,4.4004-.6192,7.0439,.3994,1.9444,1.0879,3.6817,2.0459,5.1621,.9551,1.5039,2.0625,2.6983,3.2979,3.5615,1.289,.8995,2.6299,1.6006,3.9863,2.0831,1.3438,.4775,2.7178,.7392,4.085,.7802,1.5654,.0645,2.8554,.2891,3.9629,.6875,1.2129,.4219,2.1211,.9492,2.7636,1.6065,.5713,.5976,.9571,1.082,1.2276,1.5361,.2978,.5147,.4883,1.0039,.5752,1.4717,.0898,.4648,.0976,.9541,.0205,1.4863-.0752,.5147-.2422,1.086-.4971,1.7031-.3613,.8291-1.0166,1.5391-1.9609,2.1387-.8877,.5693-1.9532,.9561-3.25,1.1787-1.0205,.2071-2.1817,.3692-3.4053,.4717-1.1436,.0967-2.1543,.1582-3.0029,.1816-.4981,.0225-1.0176,.0293-1.6504,.0293l.8506,8.0518c1.542-.1338,3.2841-.3496,5.1572-.6426,.0781-.0117,.1562-.0176,.2334-.0176Zm-6.8672-7.3974h0Zm15.748-41.2764c.001,.0059,.002,.0117,.002,.0166l-.002-.0166Zm-18.7392-5.4668l.0049,.0244c-.002-.0088-.0039-.0166-.0049-.0244Zm10.1533-2.0439c.001,.0068,.0029,.0136,.0039,.0205l-.0039-.0205Z"/></g></svg>